<svg width="95" height="17" viewBox="0 0 95 17" fill="none" xmlns="http://www.w3.org/2000/svg">
<path id="Activities" d="M10.54 16L9.5 12.6H4.3L3.26 16H0L5.04 1.66H8.74L13.8 16H10.54ZM7.74 6.74C7.67333 6.51333 7.58667 6.22667 7.48 5.88C7.37333 5.53333 7.26667 5.18 7.16 4.82C7.05333 4.46 6.96667 4.14667 6.9 3.88C6.83333 4.14667 6.74 4.48 6.62 4.88C6.51333 5.26667 6.40667 5.64 6.3 6C6.20667 6.34667 6.13333 6.59333 6.08 6.74L5.06 10.06H8.78L7.74 6.74ZM20.0486 16.2C18.4219 16.2 17.1619 15.7533 16.2686 14.86C15.3886 13.9533 14.9486 12.5333 14.9486 10.6C14.9486 9.26667 15.1753 8.18 15.6286 7.34C16.0819 6.5 16.7086 5.88 17.5086 5.48C18.3219 5.08 19.2553 4.88 20.3086 4.88C21.0553 4.88 21.7019 4.95333 22.2486 5.1C22.8086 5.24667 23.2953 5.42 23.7086 5.62L22.8286 7.92C22.3619 7.73333 21.9219 7.58 21.5086 7.46C21.1086 7.34 20.7086 7.28 20.3086 7.28C18.7619 7.28 17.9886 8.38 17.9886 10.58C17.9886 11.6733 18.1886 12.48 18.5886 13C19.0019 13.52 19.5753 13.78 20.3086 13.78C20.9353 13.78 21.4886 13.7 21.9686 13.54C22.4486 13.3667 22.9153 13.1333 23.3686 12.84V15.38C22.9153 15.6733 22.4353 15.88 21.9286 16C21.4353 16.1333 20.8086 16.2 20.0486 16.2ZM30.722 13.82C31.0554 13.82 31.3754 13.7867 31.682 13.72C31.9887 13.6533 32.2954 13.5733 32.602 13.48V15.7C32.282 15.8333 31.882 15.9467 31.402 16.04C30.9354 16.1467 30.422 16.2 29.862 16.2C29.2087 16.2 28.622 16.0933 28.102 15.88C27.5954 15.6667 27.1887 15.3 26.882 14.78C26.5887 14.2467 26.442 13.5133 26.442 12.58V7.32H25.022V6.06L26.662 5.06L27.522 2.76H29.422V5.08H32.482V7.32H29.422V12.58C29.422 12.9933 29.542 13.3067 29.782 13.52C30.022 13.72 30.3354 13.82 30.722 13.82ZM36.5339 0.799999C36.9739 0.799999 37.3539 0.906666 37.6739 1.12C37.9939 1.32 38.1539 1.7 38.1539 2.26C38.1539 2.80667 37.9939 3.18667 37.6739 3.4C37.3539 3.61333 36.9739 3.72 36.5339 3.72C36.0806 3.72 35.6939 3.61333 35.3739 3.4C35.0672 3.18667 34.9139 2.80667 34.9139 2.26C34.9139 1.7 35.0672 1.32 35.3739 1.12C35.6939 0.906666 36.0806 0.799999 36.5339 0.799999ZM38.0139 5.08V16H35.0339V5.08H38.0139ZM43.9677 16L39.8077 5.08H42.9277L45.0277 11.3C45.1477 11.6733 45.241 12.06 45.3077 12.46C45.3877 12.86 45.4343 13.22 45.4477 13.54H45.5277C45.5677 12.82 45.7143 12.0733 45.9677 11.3L48.0677 5.08H51.1877L47.0277 16H43.9677ZM54.4944 0.799999C54.9344 0.799999 55.3144 0.906666 55.6344 1.12C55.9544 1.32 56.1144 1.7 56.1144 2.26C56.1144 2.80667 55.9544 3.18667 55.6344 3.4C55.3144 3.61333 54.9344 3.72 54.4944 3.72C54.041 3.72 53.6544 3.61333 53.3344 3.4C53.0277 3.18667 52.8744 2.80667 52.8744 2.26C52.8744 1.7 53.0277 1.32 53.3344 1.12C53.6544 0.906666 54.041 0.799999 54.4944 0.799999ZM55.9744 5.08V16H52.9944V5.08H55.9744ZM63.9281 13.82C64.2615 13.82 64.5815 13.7867 64.8881 13.72C65.1948 13.6533 65.5015 13.5733 65.8081 13.48V15.7C65.4881 15.8333 65.0881 15.9467 64.6081 16.04C64.1415 16.1467 63.6281 16.2 63.0681 16.2C62.4148 16.2 61.8281 16.0933 61.3081 15.88C60.8015 15.6667 60.3948 15.3 60.0881 14.78C59.7948 14.2467 59.6481 13.5133 59.6481 12.58V7.32H58.2281V6.06L59.8681 5.06L60.7281 2.76H62.6281V5.08H65.6881V7.32H62.6281V12.58C62.6281 12.9933 62.7481 13.3067 62.9881 13.52C63.2281 13.72 63.5415 13.82 63.9281 13.82ZM69.74 0.799999C70.18 0.799999 70.56 0.906666 70.88 1.12C71.2 1.32 71.36 1.7 71.36 2.26C71.36 2.80667 71.2 3.18667 70.88 3.4C70.56 3.61333 70.18 3.72 69.74 3.72C69.2867 3.72 68.9 3.61333 68.58 3.4C68.2733 3.18667 68.12 2.80667 68.12 2.26C68.12 1.7 68.2733 1.32 68.58 1.12C68.9 0.906666 69.2867 0.799999 69.74 0.799999ZM71.22 5.08V16H68.24V5.08H71.22ZM79.0737 4.88C80.5804 4.88 81.7737 5.31333 82.6537 6.18C83.5337 7.03333 83.9737 8.25333 83.9737 9.84V11.28H76.9337C76.9604 12.12 77.2071 12.78 77.6737 13.26C78.1537 13.74 78.8137 13.98 79.6537 13.98C80.3604 13.98 81.0004 13.9133 81.5737 13.78C82.1471 13.6333 82.7404 13.4133 83.3537 13.12V15.42C82.8204 15.6867 82.2537 15.88 81.6537 16C81.0671 16.1333 80.3537 16.2 79.5137 16.2C78.4204 16.2 77.4537 16 76.6137 15.6C75.7737 15.1867 75.1137 14.5667 74.6337 13.74C74.1537 12.9133 73.9137 11.8733 73.9137 10.62C73.9137 9.34 74.1271 8.28 74.5537 7.44C74.9937 6.58667 75.6004 5.94667 76.3737 5.52C77.1471 5.09333 78.0471 4.88 79.0737 4.88ZM79.0937 7C78.5204 7 78.0404 7.18667 77.6537 7.56C77.2804 7.93333 77.0604 8.51333 76.9937 9.3H81.1737C81.1604 8.63333 80.9871 8.08667 80.6537 7.66C80.3204 7.22 79.8004 7 79.0937 7ZM94.2502 12.76C94.2502 13.8667 93.8568 14.72 93.0702 15.32C92.2968 15.9067 91.1368 16.2 89.5902 16.2C88.8302 16.2 88.1768 16.1467 87.6302 16.04C87.0835 15.9467 86.5368 15.7867 85.9902 15.56V13.1C86.5768 13.3667 87.2102 13.5867 87.8902 13.76C88.5702 13.9333 89.1702 14.02 89.6902 14.02C90.2768 14.02 90.6902 13.9333 90.9302 13.76C91.1835 13.5867 91.3102 13.36 91.3102 13.08C91.3102 12.8933 91.2568 12.7267 91.1502 12.58C91.0568 12.4333 90.8435 12.2667 90.5102 12.08C90.1768 11.8933 89.6568 11.6533 88.9502 11.36C88.2702 11.0667 87.7102 10.78 87.2702 10.5C86.8302 10.2067 86.5035 9.86 86.2902 9.46C86.0768 9.04667 85.9702 8.53333 85.9702 7.92C85.9702 6.90667 86.3635 6.14667 87.1502 5.64C87.9368 5.13333 88.9835 4.88 90.2902 4.88C90.9702 4.88 91.6168 4.94667 92.2302 5.08C92.8435 5.21333 93.4768 5.43333 94.1302 5.74L93.2302 7.88C92.6968 7.65333 92.1902 7.46667 91.7102 7.32C91.2302 7.16 90.7435 7.08 90.2502 7.08C89.3702 7.08 88.9302 7.32 88.9302 7.8C88.9302 7.97333 88.9835 8.13333 89.0902 8.28C89.2102 8.41333 89.4302 8.56 89.7502 8.72C90.0835 8.88 90.5702 9.09333 91.2102 9.36C91.8368 9.61333 92.3768 9.88 92.8302 10.16C93.2835 10.4267 93.6302 10.7667 93.8702 11.18C94.1235 11.58 94.2502 12.1067 94.2502 12.76Z" fill="#0F2851"/>
</svg>
