<svg width="32" height="32" viewBox="0 0 32 32" fill="none" xmlns="http://www.w3.org/2000/svg">
<g id="icon / afternoon" clip-path="url(#clip0_296_5787)">
<path id="Vector" d="M31 15H27C26.448 15 26 15.448 26 16C26 16.552 26.448 17 27 17H31C31.552 17 32 16.552 32 16C32 15.448 31.552 15 31 15Z" fill="#898D9E"/>
<path id="Vector_2" d="M16 25C20.962 25 25 20.962 25 16C25 11.038 20.962 7 16 7C11.038 7 7 11.038 7 16C7 20.962 11.038 25 16 25ZM16 9C19.86 9 23 12.14 23 16C23 19.86 19.86 23 16 23C12.14 23 9 19.86 9 16C9 12.14 12.14 9 16 9Z" fill="#898D9E"/>
<path id="Vector_3" d="M16 6C16.552 6 17 5.552 17 5V1C17 0.448 16.552 0 16 0C15.448 0 15 0.448 15 1V5C15 5.552 15.448 6 16 6Z" fill="#898D9E"/>
<path id="Vector_4" d="M17 31V27C17 26.448 16.552 26 16 26C15.448 26 15 26.448 15 27V31C15 31.552 15.448 32 16 32C16.552 32 17 31.552 17 31Z" fill="#898D9E"/>
<path id="Vector_5" d="M1 17H5C5.552 17 6 16.552 6 16C6 15.448 5.552 15 5 15H1C0.448 15 0 15.448 0 16C0 16.552 0.448 17 1 17Z" fill="#898D9E"/>
<path id="Vector_6" d="M7.51499 8.92899C7.70999 9.12399 7.96599 9.22199 8.22199 9.22199C8.47799 9.22199 8.73399 9.12399 8.92899 8.92899C9.31999 8.53799 9.31999 7.90599 8.92899 7.51499L6.10099 4.68699C5.70999 4.29599 5.07799 4.29599 4.68699 4.68699C4.29599 5.07799 4.29599 5.70999 4.68699 6.10099L7.51499 8.92899Z" fill="#898D9E"/>
<path id="Vector_7" d="M24.485 23.071C24.094 22.68 23.462 22.68 23.071 23.071C22.68 23.462 22.68 24.094 23.071 24.485L25.899 27.313C26.094 27.508 26.35 27.606 26.606 27.606C26.862 27.606 27.118 27.508 27.313 27.313C27.704 26.922 27.704 26.29 27.313 25.899L24.485 23.071Z" fill="#898D9E"/>
<path id="Vector_8" d="M23.778 9.22199C24.034 9.22199 24.29 9.12399 24.485 8.92899L27.313 6.10099C27.704 5.70999 27.704 5.07799 27.313 4.68699C26.922 4.29599 26.29 4.29599 25.899 4.68699L23.071 7.51499C22.68 7.90599 22.68 8.53799 23.071 8.92899C23.267 9.12399 23.522 9.22199 23.778 9.22199Z" fill="#898D9E"/>
<path id="Vector_9" d="M7.51499 23.071L4.68699 25.899C4.29599 26.29 4.29599 26.922 4.68699 27.313C4.88199 27.508 5.13799 27.606 5.39399 27.606C5.64999 27.606 5.90599 27.508 6.10099 27.313L8.92899 24.485C9.31999 24.094 9.31999 23.462 8.92899 23.071C8.53799 22.68 7.90499 22.681 7.51499 23.071Z" fill="#898D9E"/>
<path id="Vector_10" d="M11.5 15C11.776 15 12 14.776 12 14.5C12 13.122 13.122 12 14.5 12C14.776 12 15 11.776 15 11.5C15 11.224 14.776 11 14.5 11C12.57 11 11 12.57 11 14.5C11 14.776 11.224 15 11.5 15Z" fill="#898D9E"/>
</g>
<defs>
<clipPath id="clip0_296_5787">
<rect width="32" height="32" fill="white"/>
</clipPath>
</defs>
</svg>
