<svg width="72" height="16" viewBox="0 0 72 16" fill="none" xmlns="http://www.w3.org/2000/svg">
<path id="Arrows" d="M10.54 15L9.5 11.6H4.3L3.26 15H0L5.04 0.66H8.74L13.8 15H10.54ZM7.74 5.74C7.67333 5.51333 7.58667 5.22667 7.48 4.88C7.37333 4.53333 7.26667 4.18 7.16 3.82C7.05333 3.46 6.96667 3.14667 6.9 2.88C6.83333 3.14667 6.74 3.48 6.62 3.88C6.51333 4.26667 6.40667 4.64 6.3 5C6.20667 5.34667 6.13333 5.59333 6.08 5.74L5.06 9.06H8.78L7.74 5.74ZM21.7086 3.88C21.8553 3.88 22.0286 3.88667 22.2286 3.9C22.4286 3.91333 22.5886 3.93333 22.7086 3.96L22.4886 6.76C22.3953 6.73333 22.2553 6.71333 22.0686 6.7C21.8953 6.67333 21.7419 6.66 21.6086 6.66C21.1019 6.66 20.6153 6.75333 20.1486 6.94C19.6819 7.11333 19.3019 7.4 19.0086 7.8C18.7286 8.2 18.5886 8.74667 18.5886 9.44V15H15.6086V4.08H17.8686L18.3086 5.92H18.4486C18.7686 5.36 19.2086 4.88 19.7686 4.48C20.3286 4.08 20.9753 3.88 21.7086 3.88ZM31.0306 3.88C31.1773 3.88 31.3506 3.88667 31.5506 3.9C31.7506 3.91333 31.9106 3.93333 32.0306 3.96L31.8106 6.76C31.7173 6.73333 31.5773 6.71333 31.3906 6.7C31.2173 6.67333 31.064 6.66 30.9306 6.66C30.424 6.66 29.9373 6.75333 29.4706 6.94C29.004 7.11333 28.624 7.4 28.3306 7.8C28.0506 8.2 27.9106 8.74667 27.9106 9.44V15H24.9306V4.08H27.1906L27.6306 5.92H27.7706C28.0906 5.36 28.5306 4.88 29.0906 4.48C29.6506 4.08 30.2973 3.88 31.0306 3.88ZM43.782 9.52C43.782 11.3333 43.302 12.7333 42.342 13.72C41.3954 14.7067 40.102 15.2 38.462 15.2C37.4487 15.2 36.542 14.98 35.742 14.54C34.9554 14.1 34.3354 13.46 33.882 12.62C33.4287 11.7667 33.202 10.7333 33.202 9.52C33.202 7.70667 33.6754 6.31333 34.622 5.34C35.5687 4.36667 36.8687 3.88 38.522 3.88C39.5487 3.88 40.4554 4.1 41.242 4.54C42.0287 4.98 42.6487 5.62 43.102 6.46C43.5554 7.28667 43.782 8.30667 43.782 9.52ZM36.242 9.52C36.242 10.6 36.4154 11.42 36.762 11.98C37.122 12.5267 37.702 12.8 38.502 12.8C39.2887 12.8 39.8554 12.5267 40.202 11.98C40.562 11.42 40.742 10.6 40.742 9.52C40.742 8.44 40.562 7.63333 40.202 7.1C39.8554 6.55333 39.282 6.28 38.482 6.28C37.6954 6.28 37.122 6.55333 36.762 7.1C36.4154 7.63333 36.242 8.44 36.242 9.52ZM54.2342 11.18C54.1809 10.9533 54.1009 10.62 53.9942 10.18C53.9009 9.72667 53.7942 9.24667 53.6742 8.74C53.5542 8.22 53.4409 7.74667 53.3342 7.32C53.2276 6.88 53.1542 6.56 53.1142 6.36H53.0342C52.9942 6.56 52.9209 6.88 52.8142 7.32C52.7209 7.74667 52.6142 8.22 52.4942 8.74C52.3742 9.24667 52.2609 9.72667 52.1542 10.18C52.0476 10.6333 51.9676 10.98 51.9142 11.22L51.0342 15H47.8342L44.7342 4.08H47.6942L48.9542 8.92C49.0476 9.25333 49.1276 9.65333 49.1942 10.12C49.2742 10.5867 49.3476 11.04 49.4142 11.48C49.4809 11.9067 49.5276 12.2467 49.5542 12.5H49.6342C49.6476 12.3133 49.6742 12.0667 49.7142 11.76C49.7542 11.44 49.8009 11.1133 49.8542 10.78C49.9209 10.4467 49.9742 10.1467 50.0142 9.88C50.0676 9.6 50.1076 9.41333 50.1342 9.32L51.4742 4.08H54.7542L56.0342 9.32C56.0876 9.50667 56.1476 9.80667 56.2142 10.22C56.2942 10.6333 56.3609 11.0533 56.4142 11.48C56.4809 11.9067 56.5142 12.2467 56.5142 12.5H56.5942C56.6209 12.2733 56.6676 11.9467 56.7342 11.52C56.8009 11.08 56.8742 10.62 56.9542 10.14C57.0476 9.66 57.1409 9.25333 57.2342 8.92L58.5342 4.08H61.4542L58.3142 15H55.0742L54.2342 11.18ZM71.0831 11.76C71.0831 12.8667 70.6898 13.72 69.9031 14.32C69.1298 14.9067 67.9698 15.2 66.4231 15.2C65.6631 15.2 65.0098 15.1467 64.4631 15.04C63.9165 14.9467 63.3698 14.7867 62.8231 14.56V12.1C63.4098 12.3667 64.0431 12.5867 64.7231 12.76C65.4031 12.9333 66.0031 13.02 66.5231 13.02C67.1098 13.02 67.5231 12.9333 67.7631 12.76C68.0165 12.5867 68.1431 12.36 68.1431 12.08C68.1431 11.8933 68.0898 11.7267 67.9831 11.58C67.8898 11.4333 67.6765 11.2667 67.3431 11.08C67.0098 10.8933 66.4898 10.6533 65.7831 10.36C65.1031 10.0667 64.5431 9.78 64.1031 9.5C63.6631 9.20667 63.3365 8.86 63.1231 8.46C62.9098 8.04667 62.8031 7.53333 62.8031 6.92C62.8031 5.90667 63.1965 5.14667 63.9831 4.64C64.7698 4.13333 65.8165 3.88 67.1231 3.88C67.8031 3.88 68.4498 3.94667 69.0631 4.08C69.6765 4.21333 70.3098 4.43333 70.9631 4.74L70.0631 6.88C69.5298 6.65333 69.0231 6.46667 68.5431 6.32C68.0631 6.16 67.5765 6.08 67.0831 6.08C66.2031 6.08 65.7631 6.32 65.7631 6.8C65.7631 6.97333 65.8165 7.13333 65.9231 7.28C66.0431 7.41333 66.2631 7.56 66.5831 7.72C66.9165 7.88 67.4031 8.09333 68.0431 8.36C68.6698 8.61333 69.2098 8.88 69.6631 9.16C70.1165 9.42667 70.4631 9.76667 70.7031 10.18C70.9565 10.58 71.0831 11.1067 71.0831 11.76Z" fill="#0F2851"/>
</svg>
