<svg width="40" height="40" viewBox="0 0 40 40" fill="none" xmlns="http://www.w3.org/2000/svg">
<g id="icon / biking">
<path id="Oval" fill-rule="evenodd" clip-rule="evenodd" d="M25.8333 10.4167C28.1345 10.4167 30 8.5512 30 6.25001C30 3.94882 28.1345 2.08334 25.8333 2.08334C23.5321 2.08334 21.6667 3.94882 21.6667 6.25001C21.6667 8.5512 23.5321 10.4167 25.8333 10.4167Z" stroke="#A1A3F6" stroke-width="1.5" stroke-linecap="round" stroke-linejoin="round"/>
<path id="Shape" fill-rule="evenodd" clip-rule="evenodd" d="M20 35C19.8172 35.0005 19.6349 34.9803 19.4567 34.94C18.1093 34.6405 17.2595 33.3058 17.5583 31.9583C18.3235 28.4482 16.8706 24.8264 13.8917 22.8183L12.785 22.08C12.1851 21.6815 11.7862 21.0437 11.6904 20.33C11.5947 19.6162 11.8114 18.8958 12.285 18.3533L18.1183 11.6867C18.6058 11.1298 19.3149 10.8175 20.0548 10.8339C20.7947 10.8503 21.4894 11.1937 21.9517 11.7717C23.5794 13.817 26.0527 15.006 28.6667 15H29.1667C30.5474 15 31.6667 16.1193 31.6667 17.5C31.6667 18.8807 30.5474 20 29.1667 20H28.6667C25.5573 20.0068 22.5404 18.9427 20.1233 16.9867L17.8683 19.565C21.7664 22.8666 23.5241 28.05 22.4383 33.0417C22.1846 34.185 21.1711 34.9989 20 35V35Z" stroke="#A1A3F6" stroke-width="1.5" stroke-linecap="round" stroke-linejoin="round"/>
<path id="Oval_2" fill-rule="evenodd" clip-rule="evenodd" d="M7.50001 37.9167C11.1819 37.9167 14.1667 34.9319 14.1667 31.25C14.1667 27.5681 11.1819 24.5833 7.50001 24.5833C3.81811 24.5833 0.833344 27.5681 0.833344 31.25C0.833344 34.9319 3.81811 37.9167 7.50001 37.9167Z" stroke="#A1A3F6" stroke-width="1.5" stroke-linecap="round" stroke-linejoin="round"/>
<path id="Oval_3" fill-rule="evenodd" clip-rule="evenodd" d="M32.5 37.9167C36.1819 37.9167 39.1667 34.9319 39.1667 31.25C39.1667 27.5681 36.1819 24.5833 32.5 24.5833C28.8181 24.5833 25.8333 27.5681 25.8333 31.25C25.8333 34.9319 28.8181 37.9167 32.5 37.9167Z" stroke="#A1A3F6" stroke-width="1.5" stroke-linecap="round" stroke-linejoin="round"/>
</g>
</svg>
