<svg width="32" height="32" viewBox="0 0 32 32" fill="none" xmlns="http://www.w3.org/2000/svg">
<g id="icon / blood pressure">
<path id="Rectangle-path" fill-rule="evenodd" clip-rule="evenodd" d="M4.75 7.75C4.75 6.09315 6.09315 4.75 7.75 4.75H24.25C25.9069 4.75 27.25 6.09315 27.25 7.75V24.25C27.25 25.9069 25.9069 27.25 24.25 27.25H7.75C6.09315 27.25 4.75 25.9069 4.75 24.25V7.75Z" stroke="#585CE5" stroke-width="1.5" stroke-linecap="round" stroke-linejoin="round"/>
<path id="Shape" d="M4.75 12.25H10.75L11.915 9.92102C11.9787 9.79442 12.1083 9.71454 12.25 9.71454C12.3917 9.71454 12.5213 9.79442 12.585 9.92102L14.937 14.621C14.9987 14.7448 15.1236 14.8245 15.2618 14.8285C15.4001 14.8325 15.5293 14.76 15.598 14.64L17.949 10.525C18.0134 10.412 18.1318 10.3404 18.2619 10.336C18.3919 10.3315 18.5149 10.3947 18.587 10.503L19.75 12.25H27.25" stroke="#585CE5" stroke-width="1.5" stroke-linecap="round" stroke-linejoin="round"/>
<path id="Shape_2" d="M4.75 21.25H8.5L9.25 19.75L10.75 22.75L11.5 21.25H19.75L20.5 19.75L22 22.75L22.75 21.25H27.25" stroke="#585CE5" stroke-width="1.5" stroke-linecap="round" stroke-linejoin="round"/>
</g>
</svg>
