<svg width="44" height="44" viewBox="0 0 44 44" fill="none" xmlns="http://www.w3.org/2000/svg">
<g id="icon / blood pressure bgr">
<rect id="icon bgr" width="44" height="44" rx="12" fill="#EEC1C1"/>
<g id="icon / blood pressure">
<path id="Rectangle-path" fill-rule="evenodd" clip-rule="evenodd" d="M10.75 13.75C10.75 12.0931 12.0931 10.75 13.75 10.75H30.25C31.9069 10.75 33.25 12.0931 33.25 13.75V30.25C33.25 31.9069 31.9069 33.25 30.25 33.25H13.75C12.0931 33.25 10.75 31.9069 10.75 30.25V13.75Z" stroke="white" stroke-width="1.5" stroke-linecap="round" stroke-linejoin="round"/>
<path id="Shape" d="M10.75 18.25H16.75L17.915 15.921C17.9787 15.7944 18.1083 15.7145 18.25 15.7145C18.3917 15.7145 18.5213 15.7944 18.585 15.921L20.937 20.621C20.9987 20.7448 21.1236 20.8245 21.2618 20.8285C21.4001 20.8325 21.5293 20.76 21.598 20.64L23.949 16.525C24.0134 16.412 24.1318 16.3404 24.2619 16.336C24.3919 16.3315 24.5149 16.3947 24.587 16.503L25.75 18.25H33.25" stroke="white" stroke-width="1.5" stroke-linecap="round" stroke-linejoin="round"/>
<path id="Shape_2" d="M10.75 27.25H14.5L15.25 25.75L16.75 28.75L17.5 27.25H25.75L26.5 25.75L28 28.75L28.75 27.25H33.25" stroke="white" stroke-width="1.5" stroke-linecap="round" stroke-linejoin="round"/>
</g>
</g>
</svg>
