<svg width="44" height="44" viewBox="0 0 44 44" fill="none" xmlns="http://www.w3.org/2000/svg">
<g id="icon / breath rate bgr">
<rect id="icon bgr" width="44" height="44" rx="12" fill="#A1A3F6"/>
<g id="icon / breath rate">
<path id="Vector" d="M22 12C22 12 22 15.9054 22 19.7647M22 19.7647C19.75 19.7647 19.75 21.5882 19 23M22 19.7647C24.25 19.7647 24.25 21.5882 25 23" stroke="white" stroke-width="1.5" stroke-linecap="round"/>
<path id="Vector_2" d="M19.3621 30.1758C21.2692 26.6303 18.2551 25.7182 18.6387 17.8738C18.6686 17.2635 18.4582 16.6256 17.92 16.3361C14.4682 14.4797 10.4722 20.5447 11.0575 28.8138C11.1784 30.5213 12.5658 31.8678 14.2744 31.9713C16.4295 32.1018 18.4695 31.8353 19.3621 30.1758Z" stroke="white" stroke-width="1.5" stroke-linecap="round"/>
<path id="Vector_3" d="M24.6379 30.1758C22.7308 26.6303 25.7449 25.7182 25.3613 17.8738C25.3314 17.2635 25.5418 16.6256 26.08 16.3361C29.5318 14.4797 33.5278 20.5447 32.9425 28.8138C32.8216 30.5213 31.4342 31.8678 29.7256 31.9713C27.5705 32.1018 25.5305 31.8353 24.6379 30.1758Z" stroke="white" stroke-width="1.5" stroke-linecap="round"/>
</g>
</g>
</svg>
