<svg width="40" height="40" viewBox="0 0 40 40" fill="none" xmlns="http://www.w3.org/2000/svg">
<g id="icon / breath">
<path id="Vector 70" d="M3 16.0876C4.16667 14.9209 7.6 12.5876 12 12.5876C17.5 12.5876 22.5 16.0876 25.5 12.5876C28.2057 9.43093 26 6.58762 24 6.08759C22.4661 5.70408 20.5 6.58761 20.5 8.5876C20.5 10.5876 22.5 10.5876 23 10.0876M3.5 21.5876C4.5 20.7543 7.6 19.0876 12 19.0876C17.5 19.0876 21 21.5876 24 22.5876C28 23.9209 33.5 24.0876 35.5 19.5876C37.5 15.0876 34.6403 12.5596 32 13.0876C29.5 13.5876 29.5 17.5876 32.5 17.0876M3 28.0876C4.5 26.5876 6.69341 24.9384 9.5 24.5876C13 24.1501 16.4505 25.0381 19 27.5876C20.5 29.0876 21.3324 32.3383 19 34.0876C17 35.5876 14.5 33.5876 14.5 32.0876C14.5 30.8876 15.5 30.0876 16.5 30.0876" stroke="#A1A3F6" stroke-width="1.5" stroke-linecap="round" stroke-linejoin="round"/>
</g>
</svg>
