<svg width="32" height="32" viewBox="0 0 32 32" fill="none" xmlns="http://www.w3.org/2000/svg">
<g id="icon / breath rate">
<path id="Vector" d="M16 6C16 6 16 9.90541 16 13.7647M16 13.7647C13.75 13.7647 13.75 15.5882 13 17M16 13.7647C18.25 13.7647 18.25 15.5882 19 17" stroke="#585CE5" stroke-width="1.5" stroke-linecap="round"/>
<path id="Vector_2" d="M13.3621 24.1758C15.2692 20.6303 12.2551 19.7182 12.6387 11.8738C12.6686 11.2635 12.4582 10.6256 11.92 10.3361C8.46819 8.4797 4.4722 14.5447 5.05749 22.8138C5.17835 24.5213 6.56576 25.8678 8.27441 25.9713C10.4295 26.1018 12.4695 25.8353 13.3621 24.1758Z" stroke="#585CE5" stroke-width="1.5" stroke-linecap="round"/>
<path id="Vector_3" d="M18.6379 24.1758C16.7308 20.6303 19.7449 19.7182 19.3613 11.8738C19.3314 11.2635 19.5418 10.6256 20.08 10.3361C23.5318 8.47971 27.5278 14.5447 26.9425 22.8138C26.8216 24.5213 25.4342 25.8678 23.7256 25.9713C21.5705 26.1018 19.5305 25.8353 18.6379 24.1758Z" stroke="#585CE5" stroke-width="1.5" stroke-linecap="round"/>
</g>
</svg>
