<svg width="139" height="17" viewBox="0 0 139 17" fill="none" xmlns="http://www.w3.org/2000/svg">
<path id="Close / Cancel" d="M6.86 4.04C5.7 4.04 4.81333 4.47333 4.2 5.34C3.58667 6.20667 3.28 7.39333 3.28 8.9C3.28 10.42 3.56 11.6 4.12 12.44C4.69333 13.2667 5.60667 13.68 6.86 13.68C7.44667 13.68 8.02667 13.6133 8.6 13.48C9.18667 13.3467 9.82 13.16 10.5 12.92V15.46C9.87333 15.7133 9.25333 15.9 8.64 16.02C8.02667 16.14 7.34 16.2 6.58 16.2C5.11333 16.2 3.9 15.9 2.94 15.3C1.99333 14.6867 1.29333 13.8333 0.84 12.74C0.386667 11.6333 0.16 10.3467 0.16 8.88C0.16 7.44 0.42 6.16667 0.94 5.06C1.46 3.95333 2.21333 3.08667 3.2 2.46C4.2 1.83333 5.42 1.52 6.86 1.52C7.56667 1.52 8.27333 1.61333 8.98 1.8C9.7 1.97333 10.3867 2.21333 11.04 2.52L10.06 4.98C9.52667 4.72667 8.98667 4.50667 8.44 4.32C7.90667 4.13333 7.38 4.04 6.86 4.04ZM16.5144 16H13.5344V0.799999H16.5144V16ZM29.7881 10.52C29.7881 12.3333 29.3081 13.7333 28.3481 14.72C27.4015 15.7067 26.1081 16.2 24.4681 16.2C23.4548 16.2 22.5481 15.98 21.7481 15.54C20.9615 15.1 20.3415 14.46 19.8881 13.62C19.4348 12.7667 19.2081 11.7333 19.2081 10.52C19.2081 8.70667 19.6815 7.31333 20.6281 6.34C21.5748 5.36667 22.8748 4.88 24.5281 4.88C25.5548 4.88 26.4615 5.1 27.2481 5.54C28.0348 5.98 28.6548 6.62 29.1081 7.46C29.5615 8.28667 29.7881 9.30667 29.7881 10.52ZM22.2481 10.52C22.2481 11.6 22.4215 12.42 22.7681 12.98C23.1281 13.5267 23.7081 13.8 24.5081 13.8C25.2948 13.8 25.8615 13.5267 26.2081 12.98C26.5681 12.42 26.7481 11.6 26.7481 10.52C26.7481 9.44 26.5681 8.63333 26.2081 8.1C25.8615 7.55333 25.2881 7.28 24.4881 7.28C23.7015 7.28 23.1281 7.55333 22.7681 8.1C22.4215 8.63333 22.2481 9.44 22.2481 10.52ZM40.1109 12.76C40.1109 13.8667 39.7176 14.72 38.9309 15.32C38.1576 15.9067 36.9976 16.2 35.4509 16.2C34.6909 16.2 34.0376 16.1467 33.4909 16.04C32.9443 15.9467 32.3976 15.7867 31.8509 15.56V13.1C32.4376 13.3667 33.0709 13.5867 33.7509 13.76C34.4309 13.9333 35.0309 14.02 35.5509 14.02C36.1376 14.02 36.5509 13.9333 36.7909 13.76C37.0443 13.5867 37.1709 13.36 37.1709 13.08C37.1709 12.8933 37.1176 12.7267 37.0109 12.58C36.9176 12.4333 36.7043 12.2667 36.3709 12.08C36.0376 11.8933 35.5176 11.6533 34.8109 11.36C34.1309 11.0667 33.5709 10.78 33.1309 10.5C32.6909 10.2067 32.3643 9.86 32.1509 9.46C31.9376 9.04667 31.8309 8.53333 31.8309 7.92C31.8309 6.90667 32.2243 6.14667 33.0109 5.64C33.7976 5.13333 34.8443 4.88 36.1509 4.88C36.8309 4.88 37.4776 4.94667 38.0909 5.08C38.7043 5.21333 39.3376 5.43333 39.9909 5.74L39.0909 7.88C38.5576 7.65333 38.0509 7.46667 37.5709 7.32C37.0909 7.16 36.6043 7.08 36.1109 7.08C35.2309 7.08 34.7909 7.32 34.7909 7.8C34.7909 7.97333 34.8443 8.13333 34.9509 8.28C35.0709 8.41333 35.2909 8.56 35.6109 8.72C35.9443 8.88 36.4309 9.09333 37.0709 9.36C37.6976 9.61333 38.2376 9.88 38.6909 10.16C39.1443 10.4267 39.4909 10.7667 39.7309 11.18C39.9843 11.58 40.1109 12.1067 40.1109 12.76ZM47.1723 4.88C48.679 4.88 49.8723 5.31333 50.7523 6.18C51.6323 7.03333 52.0723 8.25333 52.0723 9.84V11.28H45.0323C45.059 12.12 45.3057 12.78 45.7723 13.26C46.2523 13.74 46.9123 13.98 47.7523 13.98C48.459 13.98 49.099 13.9133 49.6723 13.78C50.2457 13.6333 50.839 13.4133 51.4523 13.12V15.42C50.919 15.6867 50.3523 15.88 49.7523 16C49.1657 16.1333 48.4523 16.2 47.6123 16.2C46.519 16.2 45.5523 16 44.7123 15.6C43.8723 15.1867 43.2123 14.5667 42.7323 13.74C42.2523 12.9133 42.0123 11.8733 42.0123 10.62C42.0123 9.34 42.2257 8.28 42.6523 7.44C43.0923 6.58667 43.699 5.94667 44.4723 5.52C45.2457 5.09333 46.1457 4.88 47.1723 4.88ZM47.1923 7C46.619 7 46.139 7.18667 45.7523 7.56C45.379 7.93333 45.159 8.51333 45.0923 9.3H49.2723C49.259 8.63333 49.0857 8.08667 48.7523 7.66C48.419 7.22 47.899 7 47.1923 7ZM66.7641 1.72L61.4441 16H58.7441L64.0641 1.72H66.7641ZM80.4011 4.04C79.2411 4.04 78.3544 4.47333 77.7411 5.34C77.1278 6.20667 76.8211 7.39333 76.8211 8.9C76.8211 10.42 77.1011 11.6 77.6611 12.44C78.2344 13.2667 79.1478 13.68 80.4011 13.68C80.9878 13.68 81.5678 13.6133 82.1411 13.48C82.7278 13.3467 83.3611 13.16 84.0411 12.92V15.46C83.4144 15.7133 82.7944 15.9 82.1811 16.02C81.5678 16.14 80.8811 16.2 80.1211 16.2C78.6544 16.2 77.4411 15.9 76.4811 15.3C75.5344 14.6867 74.8344 13.8333 74.3811 12.74C73.9278 11.6333 73.7011 10.3467 73.7011 8.88C73.7011 7.44 73.9611 6.16667 74.4811 5.06C75.0011 3.95333 75.7544 3.08667 76.7411 2.46C77.7411 1.83333 78.9611 1.52 80.4011 1.52C81.1078 1.52 81.8144 1.61333 82.5211 1.8C83.2411 1.97333 83.9278 2.21333 84.5811 2.52L83.6011 4.98C83.0678 4.72667 82.5278 4.50667 81.9811 4.32C81.4478 4.13333 80.9211 4.04 80.4011 4.04ZM91.5555 4.86C93.0221 4.86 94.1421 5.18 94.9155 5.82C95.7021 6.44667 96.0955 7.41333 96.0955 8.72V16H94.0155L93.4355 14.52H93.3555C92.8888 15.1067 92.3955 15.5333 91.8755 15.8C91.3555 16.0667 90.6421 16.2 89.7355 16.2C88.7621 16.2 87.9555 15.92 87.3155 15.36C86.6755 14.7867 86.3555 13.9133 86.3555 12.74C86.3555 11.58 86.7621 10.7267 87.5755 10.18C88.3888 9.62 89.6088 9.31333 91.2355 9.26L93.1355 9.2V8.72C93.1355 8.14667 92.9821 7.72667 92.6755 7.46C92.3821 7.19333 91.9688 7.06 91.4355 7.06C90.9021 7.06 90.3821 7.14 89.8755 7.3C89.3688 7.44667 88.8621 7.63333 88.3555 7.86L87.3755 5.84C87.9621 5.53333 88.6088 5.29333 89.3155 5.12C90.0355 4.94667 90.7821 4.86 91.5555 4.86ZM91.9755 10.98C91.0155 11.0067 90.3488 11.18 89.9755 11.5C89.6021 11.82 89.4155 12.24 89.4155 12.76C89.4155 13.2133 89.5488 13.54 89.8155 13.74C90.0821 13.9267 90.4288 14.02 90.8555 14.02C91.4955 14.02 92.0355 13.8333 92.4755 13.46C92.9155 13.0733 93.1355 12.5333 93.1355 11.84V10.94L91.9755 10.98ZM105.586 4.88C106.759 4.88 107.699 5.2 108.406 5.84C109.112 6.46667 109.466 7.48 109.466 8.88V16H106.486V9.62C106.486 8.83333 106.346 8.24667 106.066 7.86C105.786 7.46 105.339 7.26 104.726 7.26C103.819 7.26 103.199 7.57333 102.866 8.2C102.532 8.81333 102.366 9.7 102.366 10.86V16H99.3858V5.08H101.666L102.066 6.48H102.226C102.572 5.92 103.046 5.51333 103.646 5.26C104.259 5.00667 104.906 4.88 105.586 4.88ZM117.21 16.2C115.584 16.2 114.324 15.7533 113.43 14.86C112.55 13.9533 112.11 12.5333 112.11 10.6C112.11 9.26667 112.337 8.18 112.79 7.34C113.244 6.5 113.87 5.88 114.67 5.48C115.484 5.08 116.417 4.88 117.47 4.88C118.217 4.88 118.864 4.95333 119.41 5.1C119.97 5.24667 120.457 5.42 120.87 5.62L119.99 7.92C119.524 7.73333 119.084 7.58 118.67 7.46C118.27 7.34 117.87 7.28 117.47 7.28C115.924 7.28 115.15 8.38 115.15 10.58C115.15 11.6733 115.35 12.48 115.75 13C116.164 13.52 116.737 13.78 117.47 13.78C118.097 13.78 118.65 13.7 119.13 13.54C119.61 13.3667 120.077 13.1333 120.53 12.84V15.38C120.077 15.6733 119.597 15.88 119.09 16C118.597 16.1333 117.97 16.2 117.21 16.2ZM127.784 4.88C129.29 4.88 130.484 5.31333 131.364 6.18C132.244 7.03333 132.684 8.25333 132.684 9.84V11.28H125.644C125.67 12.12 125.917 12.78 126.384 13.26C126.864 13.74 127.524 13.98 128.364 13.98C129.07 13.98 129.71 13.9133 130.284 13.78C130.857 13.6333 131.45 13.4133 132.064 13.12V15.42C131.53 15.6867 130.964 15.88 130.364 16C129.777 16.1333 129.064 16.2 128.224 16.2C127.13 16.2 126.164 16 125.324 15.6C124.484 15.1867 123.824 14.5667 123.344 13.74C122.864 12.9133 122.624 11.8733 122.624 10.62C122.624 9.34 122.837 8.28 123.264 7.44C123.704 6.58667 124.31 5.94667 125.084 5.52C125.857 5.09333 126.757 4.88 127.784 4.88ZM127.804 7C127.23 7 126.75 7.18667 126.364 7.56C125.99 7.93333 125.77 8.51333 125.704 9.3H129.884C129.87 8.63333 129.697 8.08667 129.364 7.66C129.03 7.22 128.51 7 127.804 7ZM138.32 16H135.34V0.799999H138.32V16Z" fill="#0F2851"/>
</svg>
