<svg width="119" height="17" viewBox="0 0 119 17" fill="none" xmlns="http://www.w3.org/2000/svg">
<path id="Checkboxes" d="M6.86 4.04C5.7 4.04 4.81333 4.47333 4.2 5.34C3.58667 6.20667 3.28 7.39333 3.28 8.9C3.28 10.42 3.56 11.6 4.12 12.44C4.69333 13.2667 5.60667 13.68 6.86 13.68C7.44667 13.68 8.02667 13.6133 8.6 13.48C9.18667 13.3467 9.82 13.16 10.5 12.92V15.46C9.87333 15.7133 9.25333 15.9 8.64 16.02C8.02667 16.14 7.34 16.2 6.58 16.2C5.11333 16.2 3.9 15.9 2.94 15.3C1.99333 14.6867 1.29333 13.8333 0.84 12.74C0.386667 11.6333 0.16 10.3467 0.16 8.88C0.16 7.44 0.42 6.16667 0.94 5.06C1.46 3.95333 2.21333 3.08667 3.2 2.46C4.2 1.83333 5.42 1.52 6.86 1.52C7.56667 1.52 8.27333 1.61333 8.98 1.8C9.7 1.97333 10.3867 2.21333 11.04 2.52L10.06 4.98C9.52667 4.72667 8.98667 4.50667 8.44 4.32C7.90667 4.13333 7.38 4.04 6.86 4.04ZM16.5144 3.9C16.5144 4.43333 16.4944 4.94667 16.4544 5.44C16.4277 5.93333 16.401 6.28 16.3744 6.48H16.5344C16.881 5.92 17.3277 5.51333 17.8744 5.26C18.421 5.00667 19.0277 4.88 19.6944 4.88C20.881 4.88 21.8277 5.2 22.5344 5.84C23.2544 6.46667 23.6144 7.48 23.6144 8.88V16H20.6344V9.62C20.6344 8.04667 20.0477 7.26 18.8744 7.26C17.981 7.26 17.361 7.57333 17.0144 8.2C16.681 8.81333 16.5144 9.7 16.5144 10.86V16H13.5344V0.799999H16.5144V3.9ZM31.4189 4.88C32.9256 4.88 34.1189 5.31333 34.9989 6.18C35.8789 7.03333 36.3189 8.25333 36.3189 9.84V11.28H29.2789C29.3056 12.12 29.5522 12.78 30.0189 13.26C30.4989 13.74 31.1589 13.98 31.9989 13.98C32.7056 13.98 33.3456 13.9133 33.9189 13.78C34.4922 13.6333 35.0856 13.4133 35.6989 13.12V15.42C35.1656 15.6867 34.5989 15.88 33.9989 16C33.4122 16.1333 32.6989 16.2 31.8589 16.2C30.7656 16.2 29.7989 16 28.9589 15.6C28.1189 15.1867 27.4589 14.5667 26.9789 13.74C26.4989 12.9133 26.2589 11.8733 26.2589 10.62C26.2589 9.34 26.4722 8.28 26.8989 7.44C27.3389 6.58667 27.9456 5.94667 28.7189 5.52C29.4922 5.09333 30.3922 4.88 31.4189 4.88ZM31.4389 7C30.8656 7 30.3856 7.18667 29.9989 7.56C29.6256 7.93333 29.4056 8.51333 29.3389 9.3H33.5189C33.5056 8.63333 33.3322 8.08667 32.9989 7.66C32.6656 7.22 32.1456 7 31.4389 7ZM43.4153 16.2C41.7886 16.2 40.5286 15.7533 39.6353 14.86C38.7553 13.9533 38.3153 12.5333 38.3153 10.6C38.3153 9.26667 38.542 8.18 38.9953 7.34C39.4486 6.5 40.0753 5.88 40.8753 5.48C41.6886 5.08 42.622 4.88 43.6753 4.88C44.422 4.88 45.0686 4.95333 45.6153 5.1C46.1753 5.24667 46.662 5.42 47.0753 5.62L46.1953 7.92C45.7286 7.73333 45.2886 7.58 44.8753 7.46C44.4753 7.34 44.0753 7.28 43.6753 7.28C42.1286 7.28 41.3553 8.38 41.3553 10.58C41.3553 11.6733 41.5553 12.48 41.9553 13C42.3686 13.52 42.942 13.78 43.6753 13.78C44.302 13.78 44.8553 13.7 45.3353 13.54C45.8153 13.3667 46.282 13.1333 46.7353 12.84V15.38C46.282 15.6733 45.802 15.88 45.2953 16C44.802 16.1333 44.1753 16.2 43.4153 16.2ZM52.4687 7.6C52.4687 8.01333 52.4487 8.42667 52.4087 8.84C52.3821 9.24 52.3487 9.64667 52.3087 10.06H52.3487C52.5487 9.78 52.7554 9.5 52.9687 9.22C53.1821 8.92667 53.4087 8.65333 53.6487 8.4L56.7087 5.08H60.0688L55.7287 9.82L60.3287 16H56.8887L53.7487 11.58L52.4687 12.6V16H49.4887V0.799999H52.4687V7.6ZM65.1111 4.34C65.1111 4.75333 65.0978 5.16 65.0711 5.56C65.0444 5.96 65.0178 6.27333 64.9911 6.5H65.1111C65.4044 6.04667 65.7978 5.66667 66.2911 5.36C66.7844 5.04 67.4244 4.88 68.2111 4.88C69.4378 4.88 70.4311 5.36 71.1911 6.32C71.9511 7.26667 72.3311 8.66667 72.3311 10.52C72.3311 12.3867 71.9444 13.8 71.1711 14.76C70.3978 15.72 69.3844 16.2 68.1311 16.2C67.3311 16.2 66.6978 16.06 66.2311 15.78C65.7778 15.4867 65.4044 15.16 65.1111 14.8H64.9111L64.4111 16H62.1311V0.799999H65.1111V4.34ZM67.2511 7.26C66.4778 7.26 65.9311 7.5 65.6111 7.98C65.3044 8.46 65.1378 9.19333 65.1111 10.18V10.5C65.1111 11.5533 65.2644 12.3667 65.5711 12.94C65.8911 13.5 66.4644 13.78 67.2911 13.78C67.9044 13.78 68.3911 13.5 68.7511 12.94C69.1111 12.3667 69.2911 11.5467 69.2911 10.48C69.2911 9.41333 69.1044 8.61333 68.7311 8.08C68.3711 7.53333 67.8778 7.26 67.2511 7.26ZM84.9473 10.52C84.9473 12.3333 84.4673 13.7333 83.5073 14.72C82.5607 15.7067 81.2673 16.2 79.6273 16.2C78.614 16.2 77.7073 15.98 76.9073 15.54C76.1207 15.1 75.5007 14.46 75.0473 13.62C74.594 12.7667 74.3673 11.7333 74.3673 10.52C74.3673 8.70667 74.8407 7.31333 75.7873 6.34C76.734 5.36667 78.034 4.88 79.6873 4.88C80.714 4.88 81.6207 5.1 82.4073 5.54C83.194 5.98 83.814 6.62 84.2673 7.46C84.7207 8.28667 84.9473 9.30667 84.9473 10.52ZM77.4073 10.52C77.4073 11.6 77.5807 12.42 77.9273 12.98C78.2873 13.5267 78.8673 13.8 79.6673 13.8C80.454 13.8 81.0207 13.5267 81.3673 12.98C81.7273 12.42 81.9073 11.6 81.9073 10.52C81.9073 9.44 81.7273 8.63333 81.3673 8.1C81.0207 7.55333 80.4473 7.28 79.6473 7.28C78.8607 7.28 78.2873 7.55333 77.9273 8.1C77.5807 8.63333 77.4073 9.44 77.4073 10.52ZM89.4995 10.42L85.9795 5.08H89.3595L91.4795 8.56L93.6195 5.08H96.9995L93.4395 10.42L97.1595 16H93.7795L91.4795 12.26L89.1795 16H85.7995L89.4995 10.42ZM103.171 4.88C104.678 4.88 105.871 5.31333 106.751 6.18C107.631 7.03333 108.071 8.25333 108.071 9.84V11.28H101.031C101.058 12.12 101.305 12.78 101.771 13.26C102.251 13.74 102.911 13.98 103.751 13.98C104.458 13.98 105.098 13.9133 105.671 13.78C106.245 13.6333 106.838 13.4133 107.451 13.12V15.42C106.918 15.6867 106.351 15.88 105.751 16C105.165 16.1333 104.451 16.2 103.611 16.2C102.518 16.2 101.551 16 100.711 15.6C99.8714 15.1867 99.2114 14.5667 98.7314 13.74C98.2514 12.9133 98.0114 11.8733 98.0114 10.62C98.0114 9.34 98.2247 8.28 98.6514 7.44C99.0914 6.58667 99.6981 5.94667 100.471 5.52C101.245 5.09333 102.145 4.88 103.171 4.88ZM103.191 7C102.618 7 102.138 7.18667 101.751 7.56C101.378 7.93333 101.158 8.51333 101.091 9.3H105.271C105.258 8.63333 105.085 8.08667 104.751 7.66C104.418 7.22 103.898 7 103.191 7ZM118.348 12.76C118.348 13.8667 117.954 14.72 117.168 15.32C116.394 15.9067 115.234 16.2 113.688 16.2C112.928 16.2 112.274 16.1467 111.728 16.04C111.181 15.9467 110.634 15.7867 110.088 15.56V13.1C110.674 13.3667 111.308 13.5867 111.988 13.76C112.668 13.9333 113.268 14.02 113.788 14.02C114.374 14.02 114.788 13.9333 115.028 13.76C115.281 13.5867 115.408 13.36 115.408 13.08C115.408 12.8933 115.354 12.7267 115.248 12.58C115.154 12.4333 114.941 12.2667 114.608 12.08C114.274 11.8933 113.754 11.6533 113.048 11.36C112.368 11.0667 111.808 10.78 111.368 10.5C110.928 10.2067 110.601 9.86 110.388 9.46C110.174 9.04667 110.068 8.53333 110.068 7.92C110.068 6.90667 110.461 6.14667 111.248 5.64C112.034 5.13333 113.081 4.88 114.388 4.88C115.068 4.88 115.714 4.94667 116.328 5.08C116.941 5.21333 117.574 5.43333 118.228 5.74L117.328 7.88C116.794 7.65333 116.288 7.46667 115.808 7.32C115.328 7.16 114.841 7.08 114.348 7.08C113.468 7.08 113.028 7.32 113.028 7.8C113.028 7.97333 113.081 8.13333 113.188 8.28C113.308 8.41333 113.528 8.56 113.848 8.72C114.181 8.88 114.668 9.09333 115.308 9.36C115.934 9.61333 116.474 9.88 116.928 10.16C117.381 10.4267 117.728 10.7667 117.968 11.18C118.221 11.58 118.348 12.1067 118.348 12.76Z" fill="#0F2851"/>
</svg>
