<svg width="24" height="26" viewBox="0 0 24 26" fill="none" xmlns="http://www.w3.org/2000/svg">
<g id="icon / contact">
<path id="Shape" d="M12 22.25V22.25C12.1381 22.25 12.25 22.3619 12.25 22.5V22.5C12.25 22.6381 12.1381 22.75 12 22.75V22.75C11.8619 22.75 11.75 22.6381 11.75 22.5V22.5C11.75 22.3619 11.8619 22.25 12 22.25" stroke="#B0B2C4" stroke-width="1.5" stroke-linecap="round" stroke-linejoin="round"/>
<path id="Rectangle-path" fill-rule="evenodd" clip-rule="evenodd" d="M5.5 3.5C5.5 2.39543 6.39543 1.5 7.5 1.5H16.5C17.6046 1.5 18.5 2.39543 18.5 3.5V22.5C18.5 23.6046 17.6046 24.5 16.5 24.5H7.5C6.39543 24.5 5.5 23.6046 5.5 22.5V3.5Z" stroke="#B0B2C4" stroke-width="1.5" stroke-linecap="round" stroke-linejoin="round"/>
<path id="Shape_2" d="M18.5 20.5H5.5" stroke="#B0B2C4" stroke-width="1.5" stroke-linecap="round" stroke-linejoin="round"/>
<path id="Shape_3" d="M18.5 5.5H5.5" stroke="#B0B2C4" stroke-width="1.5" stroke-linecap="round" stroke-linejoin="round"/>
<path id="Shape_4" d="M10.5 3.5H13.5" stroke="#B0B2C4" stroke-width="1.5" stroke-linecap="round" stroke-linejoin="round"/>
</g>
</svg>
