<svg width="112" height="17" viewBox="0 0 112 17" fill="none" xmlns="http://www.w3.org/2000/svg">
<path id="Controllers" d="M6.86 4.04C5.7 4.04 4.81333 4.47333 4.2 5.34C3.58667 6.20667 3.28 7.39333 3.28 8.9C3.28 10.42 3.56 11.6 4.12 12.44C4.69333 13.2667 5.60667 13.68 6.86 13.68C7.44667 13.68 8.02667 13.6133 8.6 13.48C9.18667 13.3467 9.82 13.16 10.5 12.92V15.46C9.87333 15.7133 9.25333 15.9 8.64 16.02C8.02667 16.14 7.34 16.2 6.58 16.2C5.11333 16.2 3.9 15.9 2.94 15.3C1.99333 14.6867 1.29333 13.8333 0.84 12.74C0.386667 11.6333 0.16 10.3467 0.16 8.88C0.16 7.44 0.42 6.16667 0.94 5.06C1.46 3.95333 2.21333 3.08667 3.2 2.46C4.2 1.83333 5.42 1.52 6.86 1.52C7.56667 1.52 8.27333 1.61333 8.98 1.8C9.7 1.97333 10.3867 2.21333 11.04 2.52L10.06 4.98C9.52667 4.72667 8.98667 4.50667 8.44 4.32C7.90667 4.13333 7.38 4.04 6.86 4.04ZM23.4544 10.52C23.4544 12.3333 22.9744 13.7333 22.0144 14.72C21.0677 15.7067 19.7744 16.2 18.1344 16.2C17.121 16.2 16.2144 15.98 15.4144 15.54C14.6277 15.1 14.0077 14.46 13.5544 13.62C13.101 12.7667 12.8744 11.7333 12.8744 10.52C12.8744 8.70667 13.3477 7.31333 14.2944 6.34C15.241 5.36667 16.541 4.88 18.1944 4.88C19.221 4.88 20.1277 5.1 20.9144 5.54C21.701 5.98 22.321 6.62 22.7744 7.46C23.2277 8.28667 23.4544 9.30667 23.4544 10.52ZM15.9144 10.52C15.9144 11.6 16.0877 12.42 16.4344 12.98C16.7944 13.5267 17.3744 13.8 18.1744 13.8C18.961 13.8 19.5277 13.5267 19.8744 12.98C20.2344 12.42 20.4144 11.6 20.4144 10.52C20.4144 9.44 20.2344 8.63333 19.8744 8.1C19.5277 7.55333 18.9544 7.28 18.1544 7.28C17.3677 7.28 16.7944 7.55333 16.4344 8.1C16.0877 8.63333 15.9144 9.44 15.9144 10.52ZM32.3572 4.88C33.5305 4.88 34.4705 5.2 35.1772 5.84C35.8839 6.46667 36.2372 7.48 36.2372 8.88V16H33.2572V9.62C33.2572 8.83333 33.1172 8.24667 32.8372 7.86C32.5572 7.46 32.1105 7.26 31.4972 7.26C30.5905 7.26 29.9705 7.57333 29.6372 8.2C29.3039 8.81333 29.1372 9.7 29.1372 10.86V16H26.1572V5.08H28.4372L28.8372 6.48H28.9972C29.3439 5.92 29.8172 5.51333 30.4172 5.26C31.0305 5.00667 31.6772 4.88 32.3572 4.88ZM44.1417 13.82C44.4751 13.82 44.7951 13.7867 45.1017 13.72C45.4084 13.6533 45.7151 13.5733 46.0217 13.48V15.7C45.7017 15.8333 45.3017 15.9467 44.8217 16.04C44.3551 16.1467 43.8417 16.2 43.2817 16.2C42.6284 16.2 42.0417 16.0933 41.5217 15.88C41.0151 15.6667 40.6084 15.3 40.3017 14.78C40.0084 14.2467 39.8617 13.5133 39.8617 12.58V7.32H38.4417V6.06L40.0817 5.06L40.9417 2.76H42.8417V5.08H45.9017V7.32H42.8417V12.58C42.8417 12.9933 42.9617 13.3067 43.2017 13.52C43.4417 13.72 43.7551 13.82 44.1417 13.82ZM54.5536 4.88C54.7003 4.88 54.8736 4.88667 55.0736 4.9C55.2736 4.91333 55.4336 4.93333 55.5536 4.96L55.3336 7.76C55.2403 7.73333 55.1003 7.71333 54.9136 7.7C54.7403 7.67333 54.5869 7.66 54.4536 7.66C53.9469 7.66 53.4603 7.75333 52.9936 7.94C52.5269 8.11333 52.1469 8.4 51.8536 8.8C51.5736 9.2 51.4336 9.74667 51.4336 10.44V16H48.4536V5.08H50.7136L51.1536 6.92H51.2936C51.6136 6.36 52.0536 5.88 52.6136 5.48C53.1736 5.08 53.8203 4.88 54.5536 4.88ZM67.305 10.52C67.305 12.3333 66.825 13.7333 65.865 14.72C64.9183 15.7067 63.625 16.2 61.985 16.2C60.9717 16.2 60.065 15.98 59.265 15.54C58.4783 15.1 57.8583 14.46 57.405 13.62C56.9517 12.7667 56.725 11.7333 56.725 10.52C56.725 8.70667 57.1983 7.31333 58.145 6.34C59.0917 5.36667 60.3917 4.88 62.045 4.88C63.0717 4.88 63.9783 5.1 64.765 5.54C65.5517 5.98 66.1717 6.62 66.625 7.46C67.0783 8.28667 67.305 9.30667 67.305 10.52ZM59.765 10.52C59.765 11.6 59.9383 12.42 60.285 12.98C60.645 13.5267 61.225 13.8 62.025 13.8C62.8117 13.8 63.3783 13.5267 63.725 12.98C64.085 12.42 64.265 11.6 64.265 10.52C64.265 9.44 64.085 8.63333 63.725 8.1C63.3783 7.55333 62.805 7.28 62.005 7.28C61.2183 7.28 60.645 7.55333 60.285 8.1C59.9383 8.63333 59.765 9.44 59.765 10.52ZM72.9878 16H70.0078V0.799999H72.9878V16ZM79.3216 16H76.3416V0.799999H79.3216V16ZM87.1753 4.88C88.682 4.88 89.8753 5.31333 90.7553 6.18C91.6353 7.03333 92.0753 8.25333 92.0753 9.84V11.28H85.0353C85.062 12.12 85.3086 12.78 85.7753 13.26C86.2553 13.74 86.9153 13.98 87.7553 13.98C88.462 13.98 89.102 13.9133 89.6753 13.78C90.2486 13.6333 90.842 13.4133 91.4553 13.12V15.42C90.922 15.6867 90.3553 15.88 89.7553 16C89.1686 16.1333 88.4553 16.2 87.6153 16.2C86.522 16.2 85.5553 16 84.7153 15.6C83.8753 15.1867 83.2153 14.5667 82.7353 13.74C82.2553 12.9133 82.0153 11.8733 82.0153 10.62C82.0153 9.34 82.2286 8.28 82.6553 7.44C83.0953 6.58667 83.702 5.94667 84.4753 5.52C85.2486 5.09333 86.1486 4.88 87.1753 4.88ZM87.1953 7C86.622 7 86.142 7.18667 85.7553 7.56C85.382 7.93333 85.162 8.51333 85.0953 9.3H89.2753C89.262 8.63333 89.0886 8.08667 88.7553 7.66C88.422 7.22 87.902 7 87.1953 7ZM100.832 4.88C100.978 4.88 101.152 4.88667 101.352 4.9C101.552 4.91333 101.712 4.93333 101.832 4.96L101.612 7.76C101.518 7.73333 101.378 7.71333 101.192 7.7C101.018 7.67333 100.865 7.66 100.732 7.66C100.225 7.66 99.7384 7.75333 99.2717 7.94C98.8051 8.11333 98.4251 8.4 98.1317 8.8C97.8517 9.2 97.7117 9.74667 97.7117 10.44V16H94.7317V5.08H96.9917L97.4317 6.92H97.5717C97.8917 6.36 98.3317 5.88 98.8917 5.48C99.4517 5.08 100.098 4.88 100.832 4.88ZM111.674 12.76C111.674 13.8667 111.28 14.72 110.494 15.32C109.72 15.9067 108.56 16.2 107.014 16.2C106.254 16.2 105.6 16.1467 105.054 16.04C104.507 15.9467 103.96 15.7867 103.414 15.56V13.1C104 13.3667 104.634 13.5867 105.314 13.76C105.994 13.9333 106.594 14.02 107.114 14.02C107.7 14.02 108.114 13.9333 108.354 13.76C108.607 13.5867 108.734 13.36 108.734 13.08C108.734 12.8933 108.68 12.7267 108.574 12.58C108.48 12.4333 108.267 12.2667 107.934 12.08C107.6 11.8933 107.08 11.6533 106.374 11.36C105.694 11.0667 105.134 10.78 104.694 10.5C104.254 10.2067 103.927 9.86 103.714 9.46C103.5 9.04667 103.394 8.53333 103.394 7.92C103.394 6.90667 103.787 6.14667 104.574 5.64C105.36 5.13333 106.407 4.88 107.714 4.88C108.394 4.88 109.04 4.94667 109.654 5.08C110.267 5.21333 110.9 5.43333 111.554 5.74L110.654 7.88C110.12 7.65333 109.614 7.46667 109.134 7.32C108.654 7.16 108.167 7.08 107.674 7.08C106.794 7.08 106.354 7.32 106.354 7.8C106.354 7.97333 106.407 8.13333 106.514 8.28C106.634 8.41333 106.854 8.56 107.174 8.72C107.507 8.88 107.994 9.09333 108.634 9.36C109.26 9.61333 109.8 9.88 110.254 10.16C110.707 10.4267 111.054 10.7667 111.294 11.18C111.547 11.58 111.674 12.1067 111.674 12.76Z" fill="#0F2851"/>
</svg>
