<svg width="26" height="26" viewBox="0 0 26 26" fill="none" xmlns="http://www.w3.org/2000/svg">
<g id="icon / download pdf">
<path id="Shape" fill-rule="evenodd" clip-rule="evenodd" d="M24.5 23.5C24.5 24.0523 24.0523 24.5 23.5 24.5H2.5C1.94772 24.5 1.5 24.0523 1.5 23.5V17.5H8.5V18.5C8.50329 19.6032 9.3968 20.4967 10.5 20.5H15.5C16.6032 20.4967 17.4967 19.6032 17.5 18.5V17.5H24.5V23.5Z" stroke="#585CE5" stroke-width="1.5" stroke-linecap="round" stroke-linejoin="round"/>
<path id="Shape_2" d="M1.5 17.5L4.711 12C4.88909 11.6915 5.21782 11.5011 5.574 11.5H7.5" stroke="#585CE5" stroke-width="1.5" stroke-linecap="round" stroke-linejoin="round"/>
<path id="Shape_3" d="M18.5 11.5H20.426C20.7822 11.5011 21.1109 11.6915 21.289 12L24.5 17.5" stroke="#585CE5" stroke-width="1.5" stroke-linecap="round" stroke-linejoin="round"/>
<path id="Shape_4" d="M13 12.5V1.5" stroke="#585CE5" stroke-width="1.5" stroke-linecap="round" stroke-linejoin="round"/>
<path id="Shape_5" d="M17 8.5L13 12.5L9 8.5" stroke="#585CE5" stroke-width="1.5" stroke-linecap="round" stroke-linejoin="round"/>
</g>
</svg>
