<svg width="32" height="32" viewBox="0 0 32 32" fill="none" xmlns="http://www.w3.org/2000/svg">
<g id="icon / drops" clip-path="url(#clip0_296_5758)">
<path id="Vector" d="M19.776 1.02401L26.496 7.74402C27.008 8.25602 27.008 9.02401 26.496 9.53602L18.368 17.664C17.856 18.176 17.088 18.176 16.576 17.664L9.856 10.944C9.344 10.432 9.344 9.66402 9.856 9.15202L17.984 1.02401C18.496 0.512015 19.264 0.512015 19.776 1.02401Z" stroke="#898D9E" stroke-width="1.5" stroke-miterlimit="10"/>
<path id="Vector_2" d="M10.176 11.328L8.63999 12.8C8.19199 13.248 8.19199 13.888 8.63999 14.336L9.72799 15.424L7.74399 18.688L8.83199 19.776L12.096 17.792L13.184 18.88C13.632 19.328 14.272 19.328 14.72 18.88L16.256 17.344M10.88 28.8C10.88 30.208 9.72799 31.36 8.31999 31.36C6.91199 31.36 5.75999 30.208 5.75999 28.8C5.75999 27.392 8.31999 23.68 8.31999 23.68C8.31999 23.68 10.88 27.392 10.88 28.8Z" stroke="#898D9E" stroke-width="1.5" stroke-miterlimit="10"/>
</g>
<defs>
<clipPath id="clip0_296_5758">
<rect width="32" height="32" fill="white"/>
</clipPath>
</defs>
</svg>
