<svg width="32" height="32" viewBox="0 0 32 32" fill="none" xmlns="http://www.w3.org/2000/svg">
<g id="icon / ecg">
<path id="Shape" fill-rule="evenodd" clip-rule="evenodd" d="M19.75 26.75H12.25L13 22.25H19L19.75 26.75V26.75Z" stroke="#585CE5" stroke-width="1.5" stroke-linecap="round" stroke-linejoin="round"/>
<path id="Shape_2" d="M10 26.75H22" stroke="#585CE5" stroke-width="1.5" stroke-linecap="round" stroke-linejoin="round"/>
<path id="Rectangle-path" fill-rule="evenodd" clip-rule="evenodd" d="M4.75 9.5C4.75 8.25736 5.75736 7.25 7 7.25H25C26.2426 7.25 27.25 8.25736 27.25 9.5V20C27.25 21.2426 26.2426 22.25 25 22.25H7C5.75736 22.25 4.75 21.2426 4.75 20V9.5Z" stroke="#585CE5" stroke-width="1.5" stroke-linecap="round" stroke-linejoin="round"/>
<path id="Shape_3" d="M23.933 14.75H21.451C21.3256 14.7501 21.2084 14.6874 21.139 14.583L18.608 10.788C18.5339 10.6769 18.4063 10.6137 18.273 10.6219C18.1397 10.6302 18.0209 10.7086 17.961 10.828L14.039 18.672C13.9791 18.7913 13.8603 18.8698 13.727 18.878C13.5938 18.8862 13.4662 18.823 13.392 18.712L10.861 14.917C10.7916 14.8125 10.6744 14.7498 10.549 14.75H7.43301" stroke="#585CE5" stroke-width="1.5" stroke-linecap="round" stroke-linejoin="round"/>
</g>
</svg>
