<svg width="40" height="40" viewBox="0 0 40 40" fill="none" xmlns="http://www.w3.org/2000/svg">
<g id="icon / exercise">
<path id="Oval" fill-rule="evenodd" clip-rule="evenodd" d="M20 14.9983C22.3012 14.9983 24.1667 13.1329 24.1667 10.8317C24.1667 8.53049 22.3012 6.66501 20 6.66501C17.6988 6.66501 15.8333 8.53049 15.8333 10.8317C15.8333 13.1329 17.6988 14.9983 20 14.9983Z" stroke="#A1A3F6" stroke-width="1.5" stroke-linecap="round" stroke-linejoin="round"/>
<path id="Shape" d="M20 39.1667V30.88L25.3667 35.27C25.5579 35.4246 25.6711 35.6558 25.6759 35.9017C25.6807 36.1476 25.5767 36.383 25.3917 36.545L22.3917 39.165" stroke="#A1A3F6" stroke-width="1.5" stroke-linecap="round" stroke-linejoin="round"/>
<path id="Shape_2" d="M29.6667 39.1667C31.3693 36.6802 30.8792 33.3033 28.54 31.4033L25 28.51V22.2817C28.9114 20.5725 31.6803 16.9856 32.3432 12.7689C33.0062 8.55213 31.4716 4.28861 28.2733 1.46168C27.6065 0.853282 26.6634 0.651632 25.8061 0.934107C24.9487 1.21658 24.3102 1.93931 24.1356 2.82495C23.961 3.71059 24.2774 4.62158 24.9633 5.20834C27.2981 7.26901 28.1166 10.5581 27.02 13.4727C25.9233 16.3873 23.1396 18.321 20.0255 18.3314C16.9114 18.3418 14.1149 16.4268 12.9987 13.5196C11.8826 10.6124 12.679 7.31792 15 5.24168C15.6718 4.64781 15.9741 3.73968 15.7922 2.86168C15.6104 1.98369 14.9723 1.2703 14.1199 0.992068C13.2676 0.713838 12.3315 0.913377 11.6667 1.51501C8.49646 4.35286 6.98749 8.60841 7.66176 12.8095C8.33603 17.0105 11.101 20.5801 15 22.2833V39.1667" stroke="#A1A3F6" stroke-width="1.5" stroke-linecap="round" stroke-linejoin="round"/>
</g>
</svg>
