<svg width="40" height="40" viewBox="0 0 40 40" fill="none" xmlns="http://www.w3.org/2000/svg">
<g id="icon / fitness">
<path id="Oval" fill-rule="evenodd" clip-rule="evenodd" d="M4.99998 24.1617C7.30117 24.1617 9.16665 22.2962 9.16665 19.995C9.16665 17.6938 7.30117 15.8283 4.99998 15.8283C2.69879 15.8283 0.833313 17.6938 0.833313 19.995C0.833313 22.2962 2.69879 24.1617 4.99998 24.1617Z" stroke="#A1A3F6" stroke-width="1.5" stroke-linecap="round" stroke-linejoin="round"/>
<path id="Shape" fill-rule="evenodd" clip-rule="evenodd" d="M37.785 38.8983C38.3783 38.6019 38.8295 38.0818 39.0393 37.4525C39.249 36.8233 39.2001 36.1365 38.9033 35.5433C38.26 34.2567 32.8067 22.5933 30.5167 17.74C29.9647 16.5744 28.7897 15.8318 27.5 15.8333H17.5V3.33334C17.5 1.95263 16.3807 0.833344 15 0.833344C13.6193 0.833344 12.5 1.95263 12.5 3.33334V36.6667C12.5 38.0474 13.6193 39.1667 15 39.1667C16.3807 39.1667 17.5 38.0474 17.5 36.6667V24.1667H23.0383L17.7633 35.5483C17.1457 36.7836 17.6464 38.2857 18.8817 38.9033C20.1169 39.521 21.619 39.0203 22.2367 37.785L28.3333 25L34.43 37.785C35.0543 39.0127 36.5505 39.5092 37.785 38.8983V38.8983Z" stroke="#A1A3F6" stroke-width="1.5" stroke-linecap="round" stroke-linejoin="round"/>
</g>
</svg>
