<svg width="110" height="17" viewBox="0 0 110 17" fill="none" xmlns="http://www.w3.org/2000/svg">
<path id="Form icons" d="M3.78 16H0.8V1.72H8.98V4.2H3.78V7.88H8.62V10.36H3.78V16ZM21.6966 10.52C21.6966 12.3333 21.2166 13.7333 20.2566 14.72C19.3099 15.7067 18.0166 16.2 16.3766 16.2C15.3632 16.2 14.4566 15.98 13.6566 15.54C12.8699 15.1 12.2499 14.46 11.7966 13.62C11.3432 12.7667 11.1166 11.7333 11.1166 10.52C11.1166 8.70667 11.5899 7.31333 12.5366 6.34C13.4832 5.36667 14.7832 4.88 16.4366 4.88C17.4632 4.88 18.3699 5.1 19.1566 5.54C19.9432 5.98 20.5632 6.62 21.0166 7.46C21.4699 8.28667 21.6966 9.30667 21.6966 10.52ZM14.1566 10.52C14.1566 11.6 14.3299 12.42 14.6766 12.98C15.0366 13.5267 15.6166 13.8 16.4166 13.8C17.2032 13.8 17.7699 13.5267 18.1166 12.98C18.4766 12.42 18.6566 11.6 18.6566 10.52C18.6566 9.44 18.4766 8.63333 18.1166 8.1C17.7699 7.55333 17.1966 7.28 16.3966 7.28C15.6099 7.28 15.0366 7.55333 14.6766 8.1C14.3299 8.63333 14.1566 9.44 14.1566 10.52ZM30.4994 4.88C30.646 4.88 30.8194 4.88667 31.0194 4.9C31.2194 4.91333 31.3794 4.93333 31.4994 4.96L31.2794 7.76C31.186 7.73333 31.046 7.71333 30.8594 7.7C30.686 7.67333 30.5327 7.66 30.3994 7.66C29.8927 7.66 29.406 7.75333 28.9394 7.94C28.4727 8.11333 28.0927 8.4 27.7994 8.8C27.5194 9.2 27.3794 9.74667 27.3794 10.44V16H24.3994V5.08H26.6594L27.0994 6.92H27.2394C27.5594 6.36 27.9994 5.88 28.5594 5.48C29.1194 5.08 29.766 4.88 30.4994 4.88ZM46.5414 4.88C47.7814 4.88 48.7147 5.2 49.3414 5.84C49.9814 6.46667 50.3014 7.48 50.3014 8.88V16H47.3214V9.62C47.3214 8.04667 46.7747 7.26 45.6814 7.26C44.8947 7.26 44.3347 7.54 44.0014 8.1C43.6681 8.66 43.5014 9.46667 43.5014 10.52V16H40.5214V9.62C40.5214 8.04667 39.9747 7.26 38.8814 7.26C38.0547 7.26 37.4814 7.57333 37.1614 8.2C36.8547 8.81333 36.7014 9.7 36.7014 10.86V16H33.7214V5.08H36.0014L36.4014 6.48H36.5614C36.8947 5.92 37.3481 5.51333 37.9214 5.26C38.5081 5.00667 39.1147 4.88 39.7414 4.88C40.5414 4.88 41.2214 5.01333 41.7814 5.28C42.3414 5.53333 42.7681 5.93333 43.0614 6.48H43.3214C43.6547 5.92 44.1147 5.51333 44.7014 5.26C45.3014 5.00667 45.9147 4.88 46.5414 4.88ZM60.5452 0.799999C60.9852 0.799999 61.3652 0.906666 61.6852 1.12C62.0052 1.32 62.1652 1.7 62.1652 2.26C62.1652 2.80667 62.0052 3.18667 61.6852 3.4C61.3652 3.61333 60.9852 3.72 60.5452 3.72C60.0918 3.72 59.7052 3.61333 59.3852 3.4C59.0785 3.18667 58.9252 2.80667 58.9252 2.26C58.9252 1.7 59.0785 1.32 59.3852 1.12C59.7052 0.906666 60.0918 0.799999 60.5452 0.799999ZM62.0252 5.08V16H59.0452V5.08H62.0252ZM69.8189 16.2C68.1922 16.2 66.9322 15.7533 66.0389 14.86C65.1589 13.9533 64.7189 12.5333 64.7189 10.6C64.7189 9.26667 64.9456 8.18 65.3989 7.34C65.8522 6.5 66.4789 5.88 67.2789 5.48C68.0922 5.08 69.0256 4.88 70.0789 4.88C70.8256 4.88 71.4722 4.95333 72.0189 5.1C72.5789 5.24667 73.0656 5.42 73.4789 5.62L72.5989 7.92C72.1322 7.73333 71.6922 7.58 71.2789 7.46C70.8789 7.34 70.4789 7.28 70.0789 7.28C68.5322 7.28 67.7589 8.38 67.7589 10.58C67.7589 11.6733 67.9589 12.48 68.3589 13C68.7722 13.52 69.3456 13.78 70.0789 13.78C70.7056 13.78 71.2589 13.7 71.7389 13.54C72.2189 13.3667 72.6856 13.1333 73.1389 12.84V15.38C72.6856 15.6733 72.2056 15.88 71.6989 16C71.2056 16.1333 70.5789 16.2 69.8189 16.2ZM85.8123 10.52C85.8123 12.3333 85.3323 13.7333 84.3723 14.72C83.4257 15.7067 82.1323 16.2 80.4923 16.2C79.479 16.2 78.5723 15.98 77.7723 15.54C76.9857 15.1 76.3657 14.46 75.9123 13.62C75.459 12.7667 75.2323 11.7333 75.2323 10.52C75.2323 8.70667 75.7057 7.31333 76.6523 6.34C77.599 5.36667 78.899 4.88 80.5523 4.88C81.579 4.88 82.4857 5.1 83.2723 5.54C84.059 5.98 84.679 6.62 85.1323 7.46C85.5857 8.28667 85.8123 9.30667 85.8123 10.52ZM78.2723 10.52C78.2723 11.6 78.4457 12.42 78.7923 12.98C79.1523 13.5267 79.7323 13.8 80.5323 13.8C81.319 13.8 81.8857 13.5267 82.2323 12.98C82.5923 12.42 82.7723 11.6 82.7723 10.52C82.7723 9.44 82.5923 8.63333 82.2323 8.1C81.8857 7.55333 81.3123 7.28 80.5123 7.28C79.7257 7.28 79.1523 7.55333 78.7923 8.1C78.4457 8.63333 78.2723 9.44 78.2723 10.52ZM94.7152 4.88C95.8885 4.88 96.8285 5.2 97.5352 5.84C98.2418 6.46667 98.5952 7.48 98.5952 8.88V16H95.6152V9.62C95.6152 8.83333 95.4752 8.24667 95.1952 7.86C94.9152 7.46 94.4685 7.26 93.8552 7.26C92.9485 7.26 92.3285 7.57333 91.9952 8.2C91.6618 8.81333 91.4952 9.7 91.4952 10.86V16H88.5152V5.08H90.7952L91.1952 6.48H91.3552C91.7018 5.92 92.1752 5.51333 92.7752 5.26C93.3885 5.00667 94.0352 4.88 94.7152 4.88ZM109.52 12.76C109.52 13.8667 109.126 14.72 108.34 15.32C107.566 15.9067 106.406 16.2 104.86 16.2C104.1 16.2 103.446 16.1467 102.9 16.04C102.353 15.9467 101.806 15.7867 101.26 15.56V13.1C101.846 13.3667 102.48 13.5867 103.16 13.76C103.84 13.9333 104.44 14.02 104.96 14.02C105.546 14.02 105.96 13.9333 106.2 13.76C106.453 13.5867 106.58 13.36 106.58 13.08C106.58 12.8933 106.526 12.7267 106.42 12.58C106.326 12.4333 106.113 12.2667 105.78 12.08C105.446 11.8933 104.926 11.6533 104.22 11.36C103.54 11.0667 102.98 10.78 102.54 10.5C102.1 10.2067 101.773 9.86 101.56 9.46C101.346 9.04667 101.24 8.53333 101.24 7.92C101.24 6.90667 101.633 6.14667 102.42 5.64C103.206 5.13333 104.253 4.88 105.56 4.88C106.24 4.88 106.886 4.94667 107.5 5.08C108.113 5.21333 108.746 5.43333 109.4 5.74L108.5 7.88C107.966 7.65333 107.46 7.46667 106.98 7.32C106.5 7.16 106.013 7.08 105.52 7.08C104.64 7.08 104.2 7.32 104.2 7.8C104.2 7.97333 104.253 8.13333 104.36 8.28C104.48 8.41333 104.7 8.56 105.02 8.72C105.353 8.88 105.84 9.09333 106.48 9.36C107.106 9.61333 107.646 9.88 108.1 10.16C108.553 10.4267 108.9 10.7667 109.14 11.18C109.393 11.58 109.52 12.1067 109.52 12.76Z" fill="#0F2851"/>
</svg>
