<svg width="191" height="17" viewBox="0 0 191 17" fill="none" xmlns="http://www.w3.org/2000/svg">
<path id="Health Parameters" d="M12.5 16H9.48V9.84H3.82V16H0.8V1.72H3.82V7.32H9.48V1.72H12.5V16ZM20.593 4.88C22.0996 4.88 23.293 5.31333 24.173 6.18C25.053 7.03333 25.493 8.25333 25.493 9.84V11.28H18.453C18.4796 12.12 18.7263 12.78 19.193 13.26C19.673 13.74 20.333 13.98 21.173 13.98C21.8796 13.98 22.5196 13.9133 23.093 13.78C23.6663 13.6333 24.2596 13.4133 24.873 13.12V15.42C24.3396 15.6867 23.773 15.88 23.173 16C22.5863 16.1333 21.873 16.2 21.033 16.2C19.9396 16.2 18.973 16 18.133 15.6C17.293 15.1867 16.633 14.5667 16.153 13.74C15.673 12.9133 15.433 11.8733 15.433 10.62C15.433 9.34 15.6463 8.28 16.073 7.44C16.513 6.58667 17.1196 5.94667 17.893 5.52C18.6663 5.09333 19.5663 4.88 20.593 4.88ZM20.613 7C20.0396 7 19.5596 7.18667 19.173 7.56C18.7996 7.93333 18.5796 8.51333 18.513 9.3H22.693C22.6796 8.63333 22.5063 8.08667 22.173 7.66C21.8396 7.22 21.3196 7 20.613 7ZM32.6294 4.86C34.096 4.86 35.216 5.18 35.9894 5.82C36.776 6.44667 37.1694 7.41333 37.1694 8.72V16H35.0894L34.5094 14.52H34.4294C33.9627 15.1067 33.4694 15.5333 32.9494 15.8C32.4294 16.0667 31.716 16.2 30.8094 16.2C29.836 16.2 29.0294 15.92 28.3894 15.36C27.7494 14.7867 27.4294 13.9133 27.4294 12.74C27.4294 11.58 27.836 10.7267 28.6494 10.18C29.4627 9.62 30.6827 9.31333 32.3094 9.26L34.2094 9.2V8.72C34.2094 8.14667 34.056 7.72667 33.7494 7.46C33.456 7.19333 33.0427 7.06 32.5094 7.06C31.976 7.06 31.456 7.14 30.9494 7.3C30.4427 7.44667 29.936 7.63333 29.4294 7.86L28.4494 5.84C29.036 5.53333 29.6827 5.29333 30.3894 5.12C31.1094 4.94667 31.856 4.86 32.6294 4.86ZM33.0494 10.98C32.0894 11.0067 31.4227 11.18 31.0494 11.5C30.676 11.82 30.4894 12.24 30.4894 12.76C30.4894 13.2133 30.6227 13.54 30.8894 13.74C31.156 13.9267 31.5027 14.02 31.9294 14.02C32.5694 14.02 33.1094 13.8333 33.5494 13.46C33.9894 13.0733 34.2094 12.5333 34.2094 11.84V10.94L33.0494 10.98ZM43.4397 16H40.4597V0.799999H43.4397V16ZM51.3934 13.82C51.7268 13.82 52.0468 13.7867 52.3534 13.72C52.6601 13.6533 52.9668 13.5733 53.2734 13.48V15.7C52.9534 15.8333 52.5534 15.9467 52.0734 16.04C51.6068 16.1467 51.0934 16.2 50.5334 16.2C49.8801 16.2 49.2934 16.0933 48.7734 15.88C48.2668 15.6667 47.8601 15.3 47.5534 14.78C47.2601 14.2467 47.1134 13.5133 47.1134 12.58V7.32H45.6934V6.06L47.3334 5.06L48.1934 2.76H50.0934V5.08H53.1534V7.32H50.0934V12.58C50.0934 12.9933 50.2134 13.3067 50.4534 13.52C50.6934 13.72 51.0068 13.82 51.3934 13.82ZM58.6853 3.9C58.6853 4.43333 58.6653 4.94667 58.6253 5.44C58.5986 5.93333 58.572 6.28 58.5453 6.48H58.7053C59.052 5.92 59.4986 5.51333 60.0453 5.26C60.592 5.00667 61.1986 4.88 61.8653 4.88C63.052 4.88 63.9986 5.2 64.7053 5.84C65.4253 6.46667 65.7853 7.48 65.7853 8.88V16H62.8053V9.62C62.8053 8.04667 62.2186 7.26 61.0453 7.26C60.152 7.26 59.532 7.57333 59.1853 8.2C58.852 8.81333 58.6853 9.7 58.6853 10.86V16H55.7053V0.799999H58.6853V3.9ZM79.3252 1.72C81.1652 1.72 82.5052 2.12 83.3452 2.92C84.1985 3.70667 84.6252 4.79333 84.6252 6.18C84.6252 7.00667 84.4518 7.78667 84.1052 8.52C83.7585 9.24 83.1785 9.82 82.3652 10.26C81.5652 10.7 80.4718 10.92 79.0852 10.92H77.7852V16H74.7652V1.72H79.3252ZM79.1652 4.2H77.7852V8.44H78.7852C79.6385 8.44 80.3118 8.27333 80.8052 7.94C81.3118 7.59333 81.5652 7.04 81.5652 6.28C81.5652 4.89333 80.7652 4.2 79.1652 4.2ZM91.8037 4.86C93.2704 4.86 94.3904 5.18 95.1637 5.82C95.9504 6.44667 96.3437 7.41333 96.3437 8.72V16H94.2637L93.6837 14.52H93.6037C93.1371 15.1067 92.6437 15.5333 92.1237 15.8C91.6037 16.0667 90.8904 16.2 89.9837 16.2C89.0104 16.2 88.2037 15.92 87.5637 15.36C86.9237 14.7867 86.6037 13.9133 86.6037 12.74C86.6037 11.58 87.0104 10.7267 87.8237 10.18C88.6371 9.62 89.8571 9.31333 91.4837 9.26L93.3837 9.2V8.72C93.3837 8.14667 93.2304 7.72667 92.9237 7.46C92.6304 7.19333 92.2171 7.06 91.6837 7.06C91.1504 7.06 90.6304 7.14 90.1237 7.3C89.6171 7.44667 89.1104 7.63333 88.6037 7.86L87.6237 5.84C88.2104 5.53333 88.8571 5.29333 89.5637 5.12C90.2837 4.94667 91.0304 4.86 91.8037 4.86ZM92.2237 10.98C91.2637 11.0067 90.5971 11.18 90.2237 11.5C89.8504 11.82 89.6637 12.24 89.6637 12.76C89.6637 13.2133 89.7971 13.54 90.0637 13.74C90.3304 13.9267 90.6771 14.02 91.1037 14.02C91.7437 14.02 92.2837 13.8333 92.7237 13.46C93.1637 13.0733 93.3837 12.5333 93.3837 11.84V10.94L92.2237 10.98ZM105.734 4.88C105.881 4.88 106.054 4.88667 106.254 4.9C106.454 4.91333 106.614 4.93333 106.734 4.96L106.514 7.76C106.421 7.73333 106.281 7.71333 106.094 7.7C105.921 7.67333 105.767 7.66 105.634 7.66C105.127 7.66 104.641 7.75333 104.174 7.94C103.707 8.11333 103.327 8.4 103.034 8.8C102.754 9.2 102.614 9.74667 102.614 10.44V16H99.6341V5.08H101.894L102.334 6.92H102.474C102.794 6.36 103.234 5.88 103.794 5.48C104.354 5.08 105.001 4.88 105.734 4.88ZM113.045 4.86C114.512 4.86 115.632 5.18 116.405 5.82C117.192 6.44667 117.585 7.41333 117.585 8.72V16H115.505L114.925 14.52H114.845C114.379 15.1067 113.885 15.5333 113.365 15.8C112.845 16.0667 112.132 16.2 111.225 16.2C110.252 16.2 109.445 15.92 108.805 15.36C108.165 14.7867 107.845 13.9133 107.845 12.74C107.845 11.58 108.252 10.7267 109.065 10.18C109.879 9.62 111.099 9.31333 112.725 9.26L114.625 9.2V8.72C114.625 8.14667 114.472 7.72667 114.165 7.46C113.872 7.19333 113.459 7.06 112.925 7.06C112.392 7.06 111.872 7.14 111.365 7.3C110.859 7.44667 110.352 7.63333 109.845 7.86L108.865 5.84C109.452 5.53333 110.099 5.29333 110.805 5.12C111.525 4.94667 112.272 4.86 113.045 4.86ZM113.465 10.98C112.505 11.0067 111.839 11.18 111.465 11.5C111.092 11.82 110.905 12.24 110.905 12.76C110.905 13.2133 111.039 13.54 111.305 13.74C111.572 13.9267 111.919 14.02 112.345 14.02C112.985 14.02 113.525 13.8333 113.965 13.46C114.405 13.0733 114.625 12.5333 114.625 11.84V10.94L113.465 10.98ZM133.696 4.88C134.936 4.88 135.869 5.2 136.496 5.84C137.136 6.46667 137.456 7.48 137.456 8.88V16H134.476V9.62C134.476 8.04667 133.929 7.26 132.836 7.26C132.049 7.26 131.489 7.54 131.156 8.1C130.822 8.66 130.656 9.46667 130.656 10.52V16H127.676V9.62C127.676 8.04667 127.129 7.26 126.036 7.26C125.209 7.26 124.636 7.57333 124.316 8.2C124.009 8.81333 123.856 9.7 123.856 10.86V16H120.876V5.08H123.156L123.556 6.48H123.716C124.049 5.92 124.502 5.51333 125.076 5.26C125.662 5.00667 126.269 4.88 126.896 4.88C127.696 4.88 128.376 5.01333 128.936 5.28C129.496 5.53333 129.922 5.93333 130.216 6.48H130.476C130.809 5.92 131.269 5.51333 131.856 5.26C132.456 5.00667 133.069 4.88 133.696 4.88ZM145.264 4.88C146.771 4.88 147.964 5.31333 148.844 6.18C149.724 7.03333 150.164 8.25333 150.164 9.84V11.28H143.124C143.151 12.12 143.398 12.78 143.864 13.26C144.344 13.74 145.004 13.98 145.844 13.98C146.551 13.98 147.191 13.9133 147.764 13.78C148.338 13.6333 148.931 13.4133 149.544 13.12V15.42C149.011 15.6867 148.444 15.88 147.844 16C147.258 16.1333 146.544 16.2 145.704 16.2C144.611 16.2 143.644 16 142.804 15.6C141.964 15.1867 141.304 14.5667 140.824 13.74C140.344 12.9133 140.104 11.8733 140.104 10.62C140.104 9.34 140.318 8.28 140.744 7.44C141.184 6.58667 141.791 5.94667 142.564 5.52C143.338 5.09333 144.238 4.88 145.264 4.88ZM145.284 7C144.711 7 144.231 7.18667 143.844 7.56C143.471 7.93333 143.251 8.51333 143.184 9.3H147.364C147.351 8.63333 147.178 8.08667 146.844 7.66C146.511 7.22 145.991 7 145.284 7ZM157.421 13.82C157.754 13.82 158.074 13.7867 158.381 13.72C158.687 13.6533 158.994 13.5733 159.301 13.48V15.7C158.981 15.8333 158.581 15.9467 158.101 16.04C157.634 16.1467 157.121 16.2 156.561 16.2C155.907 16.2 155.321 16.0933 154.801 15.88C154.294 15.6667 153.887 15.3 153.581 14.78C153.287 14.2467 153.141 13.5133 153.141 12.58V7.32H151.721V6.06L153.361 5.06L154.221 2.76H156.121V5.08H159.181V7.32H156.121V12.58C156.121 12.9933 156.241 13.3067 156.481 13.52C156.721 13.72 157.034 13.82 157.421 13.82ZM166.233 4.88C167.739 4.88 168.933 5.31333 169.813 6.18C170.693 7.03333 171.133 8.25333 171.133 9.84V11.28H164.093C164.119 12.12 164.366 12.78 164.833 13.26C165.313 13.74 165.973 13.98 166.813 13.98C167.519 13.98 168.159 13.9133 168.733 13.78C169.306 13.6333 169.899 13.4133 170.513 13.12V15.42C169.979 15.6867 169.413 15.88 168.813 16C168.226 16.1333 167.513 16.2 166.673 16.2C165.579 16.2 164.613 16 163.773 15.6C162.933 15.1867 162.273 14.5667 161.793 13.74C161.313 12.9133 161.073 11.8733 161.073 10.62C161.073 9.34 161.286 8.28 161.713 7.44C162.153 6.58667 162.759 5.94667 163.533 5.52C164.306 5.09333 165.206 4.88 166.233 4.88ZM166.253 7C165.679 7 165.199 7.18667 164.813 7.56C164.439 7.93333 164.219 8.51333 164.153 9.3H168.333C168.319 8.63333 168.146 8.08667 167.813 7.66C167.479 7.22 166.959 7 166.253 7ZM179.889 4.88C180.036 4.88 180.209 4.88667 180.409 4.9C180.609 4.91333 180.769 4.93333 180.889 4.96L180.669 7.76C180.576 7.73333 180.436 7.71333 180.249 7.7C180.076 7.67333 179.922 7.66 179.789 7.66C179.282 7.66 178.796 7.75333 178.329 7.94C177.862 8.11333 177.482 8.4 177.189 8.8C176.909 9.2 176.769 9.74667 176.769 10.44V16H173.789V5.08H176.049L176.489 6.92H176.629C176.949 6.36 177.389 5.88 177.949 5.48C178.509 5.08 179.156 4.88 179.889 4.88ZM190.731 12.76C190.731 13.8667 190.338 14.72 189.551 15.32C188.778 15.9067 187.618 16.2 186.071 16.2C185.311 16.2 184.658 16.1467 184.111 16.04C183.564 15.9467 183.018 15.7867 182.471 15.56V13.1C183.058 13.3667 183.691 13.5867 184.371 13.76C185.051 13.9333 185.651 14.02 186.171 14.02C186.758 14.02 187.171 13.9333 187.411 13.76C187.664 13.5867 187.791 13.36 187.791 13.08C187.791 12.8933 187.738 12.7267 187.631 12.58C187.538 12.4333 187.324 12.2667 186.991 12.08C186.658 11.8933 186.138 11.6533 185.431 11.36C184.751 11.0667 184.191 10.78 183.751 10.5C183.311 10.2067 182.984 9.86 182.771 9.46C182.558 9.04667 182.451 8.53333 182.451 7.92C182.451 6.90667 182.844 6.14667 183.631 5.64C184.418 5.13333 185.464 4.88 186.771 4.88C187.451 4.88 188.098 4.94667 188.711 5.08C189.324 5.21333 189.958 5.43333 190.611 5.74L189.711 7.88C189.178 7.65333 188.671 7.46667 188.191 7.32C187.711 7.16 187.224 7.08 186.731 7.08C185.851 7.08 185.411 7.32 185.411 7.8C185.411 7.97333 185.464 8.13333 185.571 8.28C185.691 8.41333 185.911 8.56 186.231 8.72C186.564 8.88 187.051 9.09333 187.691 9.36C188.318 9.61333 188.858 9.88 189.311 10.16C189.764 10.4267 190.111 10.7667 190.351 11.18C190.604 11.58 190.731 12.1067 190.731 12.76Z" fill="#0F2851"/>
</svg>
