<svg width="44" height="44" viewBox="0 0 44 44" fill="none" xmlns="http://www.w3.org/2000/svg">
<g id="icon / heart rate bgr">
<rect id="icon bgr" width="44" height="44" rx="12" fill="#99D7DB"/>
<g id="icon / Heart Rate">
<path id="Vector" d="M33.4243 22C33.7983 20.8073 34 19.6114 34 18.4517C34 14.5168 31.012 11.3333 27.328 11.3333C25.156 11.3333 23.212 12.4539 22 14.1857C20.788 12.4539 18.856 11.3333 16.672 11.3333C12.988 11.3333 10 14.5168 10 18.4517C10 19.9155 10.2299 21.3267 10.6538 22.6666M33.4243 22C31.8751 26.9399 27.3701 31.8248 22 33.8607C16.7173 31.858 12.2719 27.7812 10.6538 22.6666M33.4243 22H30.1381C30.0497 22 29.9649 21.9649 29.9024 21.9023L28.327 20.327C28.1661 20.1661 27.8949 20.2101 27.7932 20.4136L26.2068 23.5863C26.1051 23.7898 25.8339 23.8338 25.673 23.673L24.2782 22.2782C24.1326 22.1326 23.891 22.1526 23.7713 22.3202L21.0964 26.065C20.9295 26.2986 20.565 26.226 20.5004 25.9462L18.8617 18.845C18.793 18.5475 18.3938 18.4912 18.2455 18.7581L15.583 23.5506C15.4657 23.7617 15.1698 23.782 15.0249 23.5888L13.5639 21.6408C13.4422 21.4785 13.205 21.4616 13.0616 21.6051L12.0976 22.569C12.0351 22.6315 11.9503 22.6666 11.8619 22.6666H11.2643H10.6538" stroke="white" stroke-width="1.5" stroke-linecap="round" stroke-linejoin="round"/>
</g>
</g>
</svg>
