<svg width="32" height="32" viewBox="0 0 32 32" fill="none" xmlns="http://www.w3.org/2000/svg">
<g id="icon / Heart Rate">
<path id="Vector" d="M27.4243 16C27.7983 14.8073 28 13.6114 28 12.4517C28 8.51683 25.012 5.33331 21.328 5.33331C19.156 5.33331 17.212 6.45391 16 8.18575C14.788 6.45391 12.856 5.33331 10.672 5.33331C6.988 5.33331 4 8.51683 4 12.4517C4 13.9155 4.22986 15.3267 4.65379 16.6666M27.4243 16C25.8751 20.9399 21.3701 25.8248 16 27.8607C10.7173 25.858 6.27188 21.7812 4.65379 16.6666M27.4243 16H24.1381C24.0497 16 23.9649 15.9649 23.9024 15.9023L22.327 14.327C22.1661 14.1661 21.8949 14.2101 21.7932 14.4136L20.2068 17.5863C20.1051 17.7898 19.8339 17.8338 19.673 17.673L18.2782 16.2782C18.1326 16.1326 17.891 16.1526 17.7713 16.3202L15.0964 20.065C14.9295 20.2986 14.565 20.226 14.5004 19.9462L12.8617 12.845C12.793 12.5475 12.3938 12.4912 12.2455 12.7581L9.58297 17.5506C9.46568 17.7617 9.16982 17.782 9.02492 17.5888L7.56394 15.6408C7.44223 15.4785 7.205 15.4616 7.06157 15.6051L6.09763 16.569C6.03512 16.6315 5.95033 16.6666 5.86193 16.6666H5.2643H4.65379" stroke="#585CE5" stroke-width="1.5" stroke-linecap="round" stroke-linejoin="round"/>
</g>
</svg>
