<svg width="80" height="23" viewBox="0 0 80 23" fill="none" xmlns="http://www.w3.org/2000/svg">
<path id="Icons" d="M10.71 22H0.96V19.42L3.57 18.22V4.36L0.96 3.16V0.579999H10.71V3.16L8.1 4.36V18.22L10.71 19.42V22ZM20.7202 22.3C18.2802 22.3 16.3902 21.63 15.0502 20.29C13.7302 18.93 13.0702 16.8 13.0702 13.9C13.0702 11.9 13.4102 10.27 14.0902 9.01C14.7702 7.75 15.7102 6.82 16.9102 6.22C18.1302 5.62 19.5302 5.32 21.1102 5.32C22.2302 5.32 23.2002 5.43 24.0202 5.65C24.8602 5.87 25.5902 6.13 26.2102 6.43L24.8902 9.88C24.1902 9.6 23.5302 9.37 22.9102 9.19C22.3102 9.01 21.7102 8.92 21.1102 8.92C18.7902 8.92 17.6302 10.57 17.6302 13.87C17.6302 15.51 17.9302 16.72 18.5302 17.5C19.1502 18.28 20.0102 18.67 21.1102 18.67C22.0502 18.67 22.8802 18.55 23.6002 18.31C24.3202 18.05 25.0202 17.7 25.7002 17.26V21.07C25.0202 21.51 24.3002 21.82 23.5402 22C22.8002 22.2 21.8602 22.3 20.7202 22.3ZM44.4103 13.78C44.4103 16.5 43.6903 18.6 42.2503 20.08C40.8303 21.56 38.8903 22.3 36.4303 22.3C34.9103 22.3 33.5503 21.97 32.3503 21.31C31.1703 20.65 30.2403 19.69 29.5603 18.43C28.8803 17.15 28.5403 15.6 28.5403 13.78C28.5403 11.06 29.2503 8.97 30.6703 7.51C32.0903 6.05 34.0403 5.32 36.5203 5.32C38.0603 5.32 39.4203 5.65 40.6003 6.31C41.7803 6.97 42.7103 7.93 43.3903 9.19C44.0703 10.43 44.4103 11.96 44.4103 13.78ZM33.1003 13.78C33.1003 15.4 33.3603 16.63 33.8803 17.47C34.4203 18.29 35.2903 18.7 36.4903 18.7C37.6703 18.7 38.5203 18.29 39.0403 17.47C39.5803 16.63 39.8503 15.4 39.8503 13.78C39.8503 12.16 39.5803 10.95 39.0403 10.15C38.5203 9.33 37.6603 8.92 36.4603 8.92C35.2803 8.92 34.4203 9.33 33.8803 10.15C33.3603 10.95 33.1003 12.16 33.1003 13.78ZM57.4645 5.32C59.2245 5.32 60.6345 5.8 61.6945 6.76C62.7545 7.7 63.2845 9.22 63.2845 11.32V22H58.8145V12.43C58.8145 11.25 58.6045 10.37 58.1845 9.79C57.7645 9.19 57.0945 8.89 56.1745 8.89C54.8145 8.89 53.8845 9.36 53.3845 10.3C52.8845 11.22 52.6345 12.55 52.6345 14.29V22H48.1645V5.62H51.5845L52.1845 7.72H52.4245C52.9445 6.88 53.6545 6.27 54.5545 5.89C55.4745 5.51 56.4445 5.32 57.4645 5.32ZM79.3713 17.14C79.3713 18.8 78.7813 20.08 77.6013 20.98C76.4413 21.86 74.7013 22.3 72.3813 22.3C71.2413 22.3 70.2613 22.22 69.4413 22.06C68.6213 21.92 67.8013 21.68 66.9813 21.34V17.65C67.8613 18.05 68.8113 18.38 69.8313 18.64C70.8513 18.9 71.7513 19.03 72.5313 19.03C73.4113 19.03 74.0313 18.9 74.3913 18.64C74.7713 18.38 74.9613 18.04 74.9613 17.62C74.9613 17.34 74.8813 17.09 74.7213 16.87C74.5813 16.65 74.2613 16.4 73.7613 16.12C73.2613 15.84 72.4813 15.48 71.4213 15.04C70.4013 14.6 69.5613 14.17 68.9013 13.75C68.2413 13.31 67.7513 12.79 67.4313 12.19C67.1113 11.57 66.9513 10.8 66.9513 9.88C66.9513 8.36 67.5413 7.22 68.7213 6.46C69.9013 5.7 71.4713 5.32 73.4313 5.32C74.4513 5.32 75.4213 5.42 76.3413 5.62C77.2613 5.82 78.2113 6.15 79.1913 6.61L77.8413 9.82C77.0413 9.48 76.2813 9.2 75.5613 8.98C74.8413 8.74 74.1113 8.62 73.3713 8.62C72.0513 8.62 71.3913 8.98 71.3913 9.7C71.3913 9.96 71.4713 10.2 71.6313 10.42C71.8113 10.62 72.1413 10.84 72.6213 11.08C73.1213 11.32 73.8513 11.64 74.8113 12.04C75.7513 12.42 76.5613 12.82 77.2413 13.24C77.9213 13.64 78.4413 14.15 78.8013 14.77C79.1813 15.37 79.3713 16.16 79.3713 17.14Z" fill="#0F2851"/>
</svg>
