<svg width="64" height="108" viewBox="0 0 64 108" fill="none" xmlns="http://www.w3.org/2000/svg">
<g id="icon notification">
<rect x="0.5" y="0.5" width="63" height="107" rx="4.5" stroke="#585CE5" stroke-dasharray="10 5"/>
<g id="Property 1=default">
<path id="Path_425" fill-rule="evenodd" clip-rule="evenodd" d="M23.5008 33.7871V33.5681C23.533 32.9202 23.7406 32.2925 24.1024 31.7496C24.7045 31.0975 25.1167 30.2983 25.2957 29.436C25.2957 28.7695 25.2957 28.0935 25.3539 27.427C25.6547 24.2184 28.8273 22 31.9611 22H32.0387C35.1725 22 38.345 24.2184 38.6555 27.427C38.7137 28.0935 38.6555 28.7695 38.704 29.436C38.8854 30.3003 39.2972 31.1019 39.8974 31.7591C40.2618 32.2972 40.4698 32.9227 40.4989 33.5681V33.7776C40.5206 34.648 40.2208 35.4968 39.6548 36.1674C38.907 36.9515 37.8921 37.4393 36.8024 37.5384C33.607 37.8812 30.383 37.8812 27.1876 37.5384C26.0991 37.435 25.0858 36.9479 24.3352 36.1674C23.778 35.4963 23.4822 34.6526 23.5008 33.7871Z" stroke="#898D9E" stroke-width="1.5" stroke-linecap="round" stroke-linejoin="round"/>
<path id="Path_421" d="M29.5549 40.8518C30.0542 41.4785 30.7874 41.884 31.5922 41.9787C32.3971 42.0734 33.2072 41.8495 33.8433 41.3564C34.0389 41.2106 34.2149 41.041 34.3672 40.8518" stroke="#898D9E" stroke-width="1.5" stroke-linecap="round" stroke-linejoin="round"/>
</g>
<g id="Property 1=new">
<path id="Path_425_2" fill-rule="evenodd" clip-rule="evenodd" d="M23.5008 77.7871V77.5681C23.533 76.9202 23.7406 76.2925 24.1024 75.7496C24.7045 75.0975 25.1167 74.2983 25.2957 73.436C25.2957 72.7695 25.2957 72.0935 25.3539 71.427C25.6547 68.2184 28.8273 66 31.9611 66H32.0387C35.1725 66 38.345 68.2184 38.6555 71.427C38.7137 72.0935 38.6555 72.7695 38.704 73.436C38.8854 74.3003 39.2972 75.1019 39.8974 75.7591C40.2618 76.2972 40.4698 76.9227 40.4989 77.5681V77.7776C40.5206 78.648 40.2208 79.4968 39.6548 80.1674C38.907 80.9515 37.8921 81.4393 36.8024 81.5384C33.607 81.8812 30.383 81.8812 27.1876 81.5384C26.0991 81.435 25.0858 80.9479 24.3352 80.1674C23.778 79.4963 23.4822 78.6526 23.5008 77.7871Z" stroke="#898D9E" stroke-width="1.5" stroke-linecap="round" stroke-linejoin="round"/>
<path id="Path_421_2" d="M29.5549 84.8518C30.0542 85.4785 30.7874 85.884 31.5922 85.9787C32.3971 86.0734 33.2072 85.8495 33.8433 85.3564C34.0389 85.2106 34.2149 85.041 34.3672 84.8518" stroke="#898D9E" stroke-width="1.5" stroke-linecap="round" stroke-linejoin="round"/>
<circle id="Ellipse 773" cx="38.5" cy="67.5" r="3.5" fill="#585CE5"/>
</g>
</g>
</svg>
