<svg width="40" height="40" viewBox="0 0 40 40" fill="none" xmlns="http://www.w3.org/2000/svg">
<g id="icon / kcal">
<path id="Vector" d="M18.9559 1C18.5176 1.00103 18.0726 1.17573 17.7295 1.56388C16.7562 2.66533 15.9059 3.84426 15.2022 5.0677C15.0278 5.37089 15.1324 5.75813 15.4356 5.93245C15.7388 6.10684 16.1259 6.00232 16.3001 5.69914C16.9615 4.54939 17.7617 3.44037 18.6787 2.40265C18.9177 2.13231 19.3596 2.29252 19.3718 2.66039C19.41 3.80973 19.6767 4.86363 20.1644 5.79283C21.0788 7.53525 22.3328 7.96373 23.4169 9.26063C24.5378 10.6013 25.2378 12.376 25.4977 14.5357C25.659 15.8772 27.3201 16.4177 28.2463 15.4247C28.6474 14.9945 28.9686 14.4966 29.2011 13.9445C29.2979 13.7149 29.6007 13.6704 29.7581 13.863C34.8965 20.1529 34.4686 29.6052 28.8236 34.5037C23.8622 38.8091 15.7894 38.8091 10.828 34.5037C5.18113 29.6035 4.75478 20.1494 9.89688 13.859C10.0515 13.6698 10.3548 13.703 10.4493 13.9295C10.6236 14.3467 10.8471 14.7344 11.1134 15.0813C12.0316 16.2782 13.9443 15.6515 13.9602 14.1484C13.9782 12.4686 14.242 10.8116 14.7489 9.20992C14.8544 8.87649 14.6698 8.52058 14.3363 8.41505C14.0029 8.30953 13.6469 8.49421 13.5414 8.82771C13.0021 10.5315 12.7131 12.3124 12.6937 14.1349C12.6916 14.3253 12.5613 14.3972 12.4837 14.423C12.417 14.4452 12.2475 14.4789 12.1182 14.3103C11.9185 14.0501 11.7502 13.7577 11.618 13.4412C11.1558 12.3347 9.67692 12.1265 8.91602 13.0573C3.09868 20.1737 4.01426 30.2681 9.99768 35.4603C15.4359 40.1794 24.2142 40.1804 29.6535 35.4603C35.6336 30.2714 36.5548 20.1807 30.7389 13.0618C29.9773 12.1292 28.5009 12.344 28.034 13.4529C27.8595 13.8673 27.6193 14.2401 27.32 14.5609C27.1301 14.7643 26.7884 14.6608 26.7552 14.3845C26.4655 11.9773 25.6692 9.98015 24.3885 8.4483C23.2013 7.02814 22.0557 6.671 21.2859 5.20422C20.8877 4.44538 20.6696 3.57547 20.6378 2.61849C20.6051 1.62941 19.7926 0.998054 18.9559 1ZM10.8808 20.5529C10.5311 20.5529 10.2475 20.8364 10.2475 21.1862V29.419C10.2475 29.7687 10.5311 30.0523 10.8808 30.0523C11.2306 30.0523 11.5141 29.7687 11.5141 29.419V27.4975C11.7305 27.4739 11.9732 27.4317 12.2303 27.3574C12.8495 27.9449 13.2768 28.6728 13.4231 29.526C13.4822 29.8706 13.8095 30.1024 14.1541 30.0431C14.4989 29.9841 14.7304 29.6567 14.6713 29.312C14.5066 28.351 14.0711 27.4959 13.4231 26.7711C13.9624 26.3722 14.3654 25.8523 14.6294 25.2349C14.7669 24.9132 14.6177 24.5411 14.2961 24.4037C13.9744 24.2662 13.6023 24.4154 13.4649 24.737C13.1257 25.5305 12.4443 26.0791 11.5141 26.2217V21.1862C11.5141 20.8364 11.2306 20.5529 10.8808 20.5529ZM27.6629 20.5529C27.3132 20.5529 27.0296 20.8364 27.0296 21.1862V27.5191C27.0296 28.9159 28.166 30.0523 29.5628 30.0523C29.9125 30.0523 30.1961 29.7687 30.1961 29.419C30.1961 29.0692 29.9125 28.7857 29.5628 28.7857C28.8644 28.7857 28.2962 28.2175 28.2962 27.5191V21.1862C28.2962 20.8364 28.0126 20.5529 27.6629 20.5529ZM18.1635 24.3526C16.9414 24.3526 15.947 25.347 15.947 26.5692V27.8357C15.947 29.0579 16.9414 30.0523 18.1635 30.0523C18.8662 30.0523 19.5345 29.7138 19.9508 29.1469C20.1579 28.865 20.0973 28.4686 19.8154 28.2615C19.5335 28.0545 19.137 28.1151 18.9299 28.397C18.3868 29.1365 17.2136 28.7494 17.2136 27.8356V26.569C17.2137 25.6564 18.3819 25.2702 18.9269 26.0036C19.1354 26.2843 19.5322 26.3428 19.8129 26.1342C20.0937 25.9256 20.1522 25.529 19.9436 25.2483C19.527 24.6875 18.8615 24.3526 18.1635 24.3526ZM22.5966 24.3526C22.2468 24.3526 21.9633 24.6362 21.9633 24.9859C21.9633 25.3357 22.2468 25.6192 22.5966 25.6192H23.9819C24.2656 25.6192 24.4964 25.8501 24.4964 26.1338V26.49H23.1111C22.129 26.49 21.33 27.289 21.33 28.2711C21.33 29.2533 22.129 30.0523 23.1111 30.0523H23.9819C24.964 30.0523 25.763 29.2533 25.763 28.2711V26.1338C25.763 25.1516 24.964 24.3526 23.9819 24.3526H22.5966ZM23.1111 27.7566H24.4964V28.2711C24.4964 28.5548 24.2656 28.7857 23.9819 28.7857H23.1111C22.8274 28.7857 22.5966 28.5548 22.5966 28.2711C22.5966 27.9874 22.8274 27.7566 23.1111 27.7566Z" fill="#A1A3F6" stroke="#A1A3F6" stroke-width="0.3"/>
</g>
</svg>
