<svg width="48" height="20" viewBox="0 0 48 20" fill="none" xmlns="http://www.w3.org/2000/svg">
<path id="Logo" d="M0.8 15V0.719999H3.82V12.5H9.62V15H0.8ZM22.0286 9.52C22.0286 11.3333 21.5486 12.7333 20.5886 13.72C19.6419 14.7067 18.3486 15.2 16.7086 15.2C15.6953 15.2 14.7886 14.98 13.9886 14.54C13.2019 14.1 12.5819 13.46 12.1286 12.62C11.6753 11.7667 11.4486 10.7333 11.4486 9.52C11.4486 7.70667 11.9219 6.31333 12.8686 5.34C13.8153 4.36667 15.1153 3.88 16.7686 3.88C17.7953 3.88 18.7019 4.1 19.4886 4.54C20.2753 4.98 20.8953 5.62 21.3486 6.46C21.8019 7.28667 22.0286 8.30667 22.0286 9.52ZM14.4886 9.52C14.4886 10.6 14.6619 11.42 15.0086 11.98C15.3686 12.5267 15.9486 12.8 16.7486 12.8C17.5353 12.8 18.1019 12.5267 18.4486 11.98C18.8086 11.42 18.9886 10.6 18.9886 9.52C18.9886 8.44 18.8086 7.63333 18.4486 7.1C18.1019 6.55333 17.5286 6.28 16.7286 6.28C15.9419 6.28 15.3686 6.55333 15.0086 7.1C14.6619 7.63333 14.4886 8.44 14.4886 9.52ZM28.2714 3.88C29.6181 3.88 30.6714 4.41333 31.4314 5.48H31.5114L31.7514 4.08H34.2714V15.02C34.2714 16.58 33.8114 17.7667 32.8914 18.58C31.9714 19.3933 30.6114 19.8 28.8114 19.8C28.0381 19.8 27.3181 19.7533 26.6514 19.66C25.9981 19.5667 25.3581 19.4 24.7314 19.16V16.78C26.0781 17.34 27.4981 17.62 28.9914 17.62C30.5247 17.62 31.2914 16.7933 31.2914 15.14V14.92C31.2914 14.6933 31.2981 14.46 31.3114 14.22C31.3381 13.98 31.3581 13.7667 31.3714 13.58H31.2914C30.9181 14.1533 30.4714 14.5667 29.9514 14.82C29.4314 15.0733 28.8447 15.2 28.1914 15.2C26.8981 15.2 25.8847 14.7067 25.1514 13.72C24.4314 12.72 24.0714 11.3333 24.0714 9.56C24.0714 7.77333 24.4447 6.38 25.1914 5.38C25.9381 4.38 26.9647 3.88 28.2714 3.88ZM29.2114 6.3C27.8114 6.3 27.1114 7.4 27.1114 9.6C27.1114 11.7733 27.8247 12.86 29.2514 12.86C30.0114 12.86 30.5714 12.6467 30.9314 12.22C31.3047 11.78 31.4914 11.02 31.4914 9.94V9.58C31.4914 8.40667 31.3114 7.56667 30.9514 7.06C30.5914 6.55333 30.0114 6.3 29.2114 6.3ZM47.5477 9.52C47.5477 11.3333 47.0677 12.7333 46.1077 13.72C45.161 14.7067 43.8677 15.2 42.2277 15.2C41.2143 15.2 40.3077 14.98 39.5077 14.54C38.721 14.1 38.101 13.46 37.6477 12.62C37.1943 11.7667 36.9677 10.7333 36.9677 9.52C36.9677 7.70667 37.441 6.31333 38.3877 5.34C39.3343 4.36667 40.6343 3.88 42.2877 3.88C43.3143 3.88 44.221 4.1 45.0077 4.54C45.7943 4.98 46.4143 5.62 46.8677 6.46C47.321 7.28667 47.5477 8.30667 47.5477 9.52ZM40.0077 9.52C40.0077 10.6 40.181 11.42 40.5277 11.98C40.8877 12.5267 41.4677 12.8 42.2677 12.8C43.0543 12.8 43.621 12.5267 43.9677 11.98C44.3277 11.42 44.5077 10.6 44.5077 9.52C44.5077 8.44 44.3277 7.63333 43.9677 7.1C43.621 6.55333 43.0477 6.28 42.2477 6.28C41.461 6.28 40.8877 6.55333 40.5277 7.1C40.181 7.63333 40.0077 8.44 40.0077 9.52Z" fill="#0F2851"/>
</svg>
