<svg width="64" height="108" viewBox="0 0 64 108" fill="none" xmlns="http://www.w3.org/2000/svg">
<g id="icon / menu settings">
<rect x="0.499878" y="0.499939" width="63" height="107" rx="4.5" stroke="#585CE5" stroke-dasharray="10 5"/>
<g id="Property 1=outline">
<path id="Shape" fill-rule="evenodd" clip-rule="evenodd" d="M30.5459 22.4379C30.917 22.8499 31.4454 23.0851 31.9999 23.0851C32.5543 23.0851 33.0828 22.8499 33.4539 22.4379L34.3999 21.3999C34.9554 20.7851 35.8378 20.5863 36.6033 20.9035C37.3689 21.2207 37.852 21.9853 37.8099 22.8129L37.7389 24.2129C37.7111 24.7652 37.9182 25.3035 38.3089 25.6948C38.6996 26.0861 39.2376 26.2939 39.7899 26.2669L41.1899 26.1959C42.0169 26.1552 42.7803 26.6388 43.0967 27.404C43.4131 28.1692 43.2142 29.0507 42.5999 29.6059L41.5579 30.5459C41.1465 30.9176 40.9117 31.446 40.9117 32.0004C40.9117 32.5548 41.1465 33.0833 41.5579 33.4549L42.5999 34.3949C43.2147 34.9505 43.4135 35.8328 43.0963 36.5984C42.7791 37.3639 42.0145 37.8471 41.1869 37.8049L39.7869 37.7339C39.2334 37.7055 38.6937 37.9129 38.3018 38.3048C37.9099 38.6968 37.7024 39.2364 37.7309 39.7899L37.8019 41.1899C37.8386 42.0132 37.3561 42.7713 36.5949 43.0868C35.8336 43.4024 34.9563 43.2077 34.3999 42.5999L33.4589 41.5589C33.0874 41.1476 32.5591 40.9128 32.0049 40.9128C31.4506 40.9128 30.9223 41.1476 30.5509 41.5589L29.6059 42.5999C29.0503 43.2106 28.1714 43.4075 27.4084 43.092C26.6454 42.7766 26.1621 42.0167 26.1999 41.1919L26.2719 39.7919C26.3004 39.2384 26.0929 38.6988 25.701 38.3068C25.3091 37.9149 24.7694 37.7075 24.2159 37.7359L22.8159 37.8069C21.9886 37.8501 21.2237 37.368 20.9058 36.6031C20.5878 35.8381 20.7857 34.9558 21.3999 34.3999L22.4409 33.4599C22.8523 33.0883 23.0871 32.5598 23.0871 32.0054C23.0871 31.451 22.8523 30.9226 22.4409 30.5509L21.3999 29.6059C20.7878 29.0507 20.5902 28.1709 20.9061 27.4072C21.222 26.6436 21.9834 26.1605 22.8089 26.1999L24.2089 26.2709C24.7635 26.3001 25.3044 26.0924 25.6969 25.6995C26.0894 25.3066 26.2966 24.7655 26.2669 24.2109L26.1999 22.8099C26.1612 21.9848 26.6442 21.2241 27.4074 20.9081C28.1706 20.5921 29.05 20.7889 29.6059 21.3999L30.5459 22.4379Z" stroke="#B0B2C4" stroke-width="1.5" stroke-linecap="round" stroke-linejoin="round"/>
<path id="Oval" fill-rule="evenodd" clip-rule="evenodd" d="M31.9999 36.5009C34.4852 36.5009 36.4999 34.4862 36.4999 32.0009C36.4999 29.5157 34.4852 27.5009 31.9999 27.5009C29.5146 27.5009 27.4999 29.5157 27.4999 32.0009C27.4999 34.4862 29.5146 36.5009 31.9999 36.5009Z" stroke="#B0B2C4" stroke-width="1.5" stroke-linecap="round" stroke-linejoin="round"/>
</g>
<g id="Property 1=fill">
<g id="cog">
<path fill-rule="evenodd" clip-rule="evenodd" d="M31.9999 67.0851C31.4454 67.0851 30.917 66.8499 30.5459 66.4379L29.6059 65.3999C29.05 64.7889 28.1706 64.5921 27.4074 64.9081C26.6442 65.2241 26.1612 65.9848 26.1999 66.8099L26.2669 68.2109C26.2966 68.7655 26.0894 69.3066 25.6969 69.6995C25.3044 70.0924 24.7635 70.3001 24.2089 70.2709L22.8089 70.1999C21.9834 70.1605 21.222 70.6436 20.9061 71.4072C20.5902 72.1709 20.7878 73.0507 21.3999 73.6059L22.4409 74.5509C22.8523 74.9226 23.0871 75.451 23.0871 76.0054C23.0871 76.5598 22.8523 77.0883 22.4409 77.4599L21.3999 78.3999C20.7857 78.9558 20.5878 79.8381 20.9058 80.6031C21.2237 81.368 21.9886 81.8501 22.8159 81.8069L24.2159 81.7359C24.7694 81.7075 25.3091 81.9149 25.701 82.3068C26.0929 82.6988 26.3004 83.2384 26.2719 83.7919L26.1999 85.1919C26.1621 86.0167 26.6454 86.7766 27.4084 87.092C28.1714 87.4075 29.0503 87.2106 29.6059 86.5999L30.5509 85.5589C30.9223 85.1476 31.4506 84.9128 32.0049 84.9128C32.5591 84.9128 33.0874 85.1476 33.4589 85.5589L34.3999 86.5999C34.9563 87.2077 35.8336 87.4024 36.5949 87.0868C37.3561 86.7713 37.8386 86.0132 37.8019 85.1899L37.7309 83.7899C37.7024 83.2364 37.9099 82.6968 38.3018 82.3048C38.6937 81.9129 39.2334 81.7055 39.7869 81.7339L41.1869 81.8049C42.0145 81.8471 42.7791 81.3639 43.0963 80.5984C43.4135 79.8328 43.2147 78.9505 42.5999 78.3949L41.5579 77.4549C41.1465 77.0833 40.9117 76.5548 40.9117 76.0004C40.9117 75.446 41.1465 74.9176 41.5579 74.5459L42.5999 73.6059C43.2142 73.0507 43.4131 72.1692 43.0967 71.404C42.7803 70.6388 42.0169 70.1552 41.1899 70.1959L39.7899 70.2669C39.2376 70.2939 38.6996 70.0861 38.3089 69.6948C37.9182 69.3035 37.7111 68.7652 37.7389 68.2129L37.8099 66.8129C37.852 65.9853 37.3689 65.2207 36.6033 64.9035C35.8378 64.5863 34.9554 64.7851 34.3999 65.3999L33.4539 66.4379C33.0828 66.8499 32.5543 67.0851 31.9999 67.0851ZM36.4999 76.0009C36.4999 78.4862 34.4852 80.5009 31.9999 80.5009C29.5146 80.5009 27.4999 78.4862 27.4999 76.0009C27.4999 73.5157 29.5146 71.5009 31.9999 71.5009C34.4852 71.5009 36.4999 73.5157 36.4999 76.0009Z" fill="#585CE5"/>
<path d="M30.5459 66.4379L31.1031 65.9359L31.1018 65.9345L30.5459 66.4379ZM29.6059 65.3999L30.1618 64.8965L30.1607 64.8953L29.6059 65.3999ZM26.1999 66.8099L25.4507 66.8451L25.4507 66.8458L26.1999 66.8099ZM26.2669 68.2109L25.5177 68.2468L25.518 68.251L26.2669 68.2109ZM24.2089 70.2709L24.2483 69.522L24.2469 69.5219L24.2089 70.2709ZM22.8089 70.1999L22.8469 69.4509L22.8447 69.4508L22.8089 70.1999ZM20.9061 71.4072L21.5991 71.6939L20.9061 71.4072ZM21.3999 73.6059L21.904 73.0506L21.9038 73.0504L21.3999 73.6059ZM22.4409 74.5509L21.9368 75.1063L21.9382 75.1075L22.4409 74.5509ZM22.4409 77.4599L22.9435 78.0166L22.9436 78.0165L22.4409 77.4599ZM21.3999 78.3999L20.8972 77.8433L20.8966 77.8439L21.3999 78.3999ZM22.8159 81.8069L22.7779 81.0579L22.7768 81.058L22.8159 81.8069ZM24.2159 81.7359L24.2539 82.485L24.2544 82.4849L24.2159 81.7359ZM26.2719 83.7919L25.5229 83.7534L25.5229 83.7534L26.2719 83.7919ZM26.1999 85.1919L25.4509 85.1534L25.4507 85.1576L26.1999 85.1919ZM29.6059 86.5999L30.1606 87.1046L30.1612 87.104L29.6059 86.5999ZM30.5509 85.5589L31.1062 86.063L31.1075 86.0616L30.5509 85.5589ZM33.4589 85.5589L32.9022 86.0616L32.9025 86.0619L33.4589 85.5589ZM34.3999 86.5999L33.8435 87.1029L33.8467 87.1064L34.3999 86.5999ZM37.8019 85.1899L38.5511 85.1566L38.5509 85.1519L37.8019 85.1899ZM37.7309 83.7899L38.4799 83.7519L38.4799 83.7514L37.7309 83.7899ZM39.7869 81.7339L39.7484 82.4829L39.7489 82.483L39.7869 81.7339ZM41.1869 81.8049L41.225 81.0559L41.2249 81.0559L41.1869 81.8049ZM42.5999 78.3949L43.1027 77.8384L43.1023 77.838L42.5999 78.3949ZM41.5579 77.4549L41.0552 78.0115L41.0555 78.0118L41.5579 77.4549ZM41.5579 74.5459L41.0555 73.989L41.0552 73.9894L41.5579 74.5459ZM42.5999 73.6059L43.1023 74.1628L43.1028 74.1624L42.5999 73.6059ZM41.1899 70.1959L41.1529 69.4468L41.1519 69.4469L41.1899 70.1959ZM39.7899 70.2669L39.8264 71.016L39.8279 71.016L39.7899 70.2669ZM37.7389 68.2129L36.9898 68.1749L36.9898 68.1753L37.7389 68.2129ZM37.8099 66.8129L37.0608 66.7748L37.0608 66.7749L37.8099 66.8129ZM36.6033 64.9035L36.8904 64.2106V64.2106L36.6033 64.9035ZM34.3999 65.3999L34.9542 65.9051L34.9564 65.9028L34.3999 65.3999ZM33.4539 66.4379L32.8995 65.9327L32.8966 65.9359L33.4539 66.4379ZM29.9886 66.9399C30.502 67.5097 31.2329 67.8351 31.9999 67.8351V66.3351C31.6579 66.3351 31.332 66.19 31.1031 65.9359L29.9886 66.9399ZM29.05 65.9034L29.99 66.9414L31.1018 65.9345L30.1618 64.8965L29.05 65.9034ZM27.6943 65.6011C28.1653 65.4061 28.708 65.5275 29.0511 65.9046L30.1607 64.8953C29.392 64.0503 28.176 63.7782 27.1205 64.2151L27.6943 65.6011ZM26.9491 66.7748C26.9252 66.2656 27.2233 65.7961 27.6943 65.6011L27.1205 64.2151C26.0651 64.652 25.3972 65.7041 25.4507 66.8451L26.9491 66.7748ZM27.016 68.1751L26.949 66.7741L25.4507 66.8458L25.5177 68.2468L27.016 68.1751ZM26.2275 70.2295C26.7703 69.6862 27.0569 68.9378 27.0158 68.1708L25.518 68.251C25.5363 68.5932 25.4084 68.927 25.1663 69.1694L26.2275 70.2295ZM24.1695 71.0199C24.9365 71.0602 25.6846 70.7729 26.2275 70.2295L25.1663 69.1694C24.9241 69.4118 24.5904 69.54 24.2483 69.522L24.1695 71.0199ZM22.7709 70.949L24.1709 71.02L24.2469 69.5219L22.8469 69.4509L22.7709 70.949ZM21.5991 71.6939C21.794 71.2228 22.2638 70.9247 22.7731 70.9491L22.8447 69.4508C21.703 69.3962 20.65 70.0643 20.2131 71.1205L21.5991 71.6939ZM21.9038 73.0504C21.5261 72.7079 21.4042 72.1651 21.5991 71.6939L20.2131 71.1205C19.7761 72.1767 20.0494 73.3935 20.896 74.1614L21.9038 73.0504ZM22.945 73.9956L21.904 73.0506L20.8958 74.1613L21.9368 75.1063L22.945 73.9956ZM23.8371 76.0054C23.8371 75.2389 23.5125 74.5082 22.9436 73.9944L21.9382 75.1075C22.1921 75.3369 22.3371 75.6632 22.3371 76.0054H23.8371ZM22.9436 78.0165C23.5125 77.5027 23.8371 76.772 23.8371 76.0054H22.3371C22.3371 76.3477 22.1921 76.6739 21.9382 76.9034L22.9436 78.0165ZM21.9025 78.9566L22.9435 78.0166L21.9382 76.9033L20.8972 77.8433L21.9025 78.9566ZM21.5983 80.3152C21.4022 79.8433 21.5243 79.299 21.9032 78.956L20.8966 77.8439C20.0472 78.6127 19.7735 79.8329 20.2132 80.8909L21.5983 80.3152ZM22.7768 81.058C22.2664 81.0846 21.7945 80.7872 21.5983 80.3152L20.2132 80.8909C20.6529 81.9489 21.7108 82.6156 22.855 82.5559L22.7768 81.058ZM24.1779 80.9869L22.7779 81.0579L22.8539 82.556L24.2539 82.485L24.1779 80.9869ZM26.2313 81.7765C25.6893 81.2345 24.9429 80.9475 24.1773 80.9869L24.2544 82.4849C24.5959 82.4674 24.9289 82.5954 25.1706 82.8372L26.2313 81.7765ZM27.0209 83.8305C27.0603 83.0649 26.7733 82.3185 26.2313 81.7765L25.1706 82.8372C25.4124 83.079 25.5404 83.4119 25.5229 83.7534L27.0209 83.8305ZM26.9489 85.2305L27.0209 83.8305L25.5229 83.7534L25.4509 85.1534L26.9489 85.2305ZM27.6949 86.3989C27.2241 86.2043 26.9258 85.7353 26.9491 85.2263L25.4507 85.1576C25.3984 86.2981 26.0668 87.349 27.1219 87.7852L27.6949 86.3989ZM29.0511 86.0952C28.7082 86.4721 28.1658 86.5936 27.6949 86.3989L27.1219 87.7852C28.177 88.2213 29.3923 87.9492 30.1606 87.1046L29.0511 86.0952ZM29.9956 85.0548L29.0506 86.0958L30.1612 87.104L31.1062 86.063L29.9956 85.0548ZM32.0049 84.1628C31.2384 84.1628 30.5079 84.4874 29.9942 85.0563L31.1075 86.0616C31.3368 85.8077 31.6628 85.6628 32.0049 85.6628V84.1628ZM34.0155 85.0563C33.5019 84.4874 32.7713 84.1628 32.0049 84.1628V85.6628C32.3469 85.6628 32.673 85.8077 32.9022 86.0616L34.0155 85.0563ZM34.9563 86.097L34.0153 85.056L32.9025 86.0619L33.8435 87.1029L34.9563 86.097ZM36.3077 86.394C35.8379 86.5887 35.2965 86.4686 34.9531 86.0935L33.8467 87.1064C34.6161 87.9469 35.8293 88.216 36.882 87.7797L36.3077 86.394ZM37.0526 85.2233C37.0753 85.7314 36.7775 86.1993 36.3077 86.394L36.882 87.7797C37.9347 87.3434 38.6019 86.295 38.5511 85.1566L37.0526 85.2233ZM36.9818 83.8279L37.0528 85.2279L38.5509 85.1519L38.4799 83.7519L36.9818 83.8279ZM37.7714 81.7745C37.2294 82.3165 36.9425 83.0629 36.9819 83.8285L38.4799 83.7514C38.4623 83.4099 38.5903 83.077 38.8321 82.8352L37.7714 81.7745ZM39.8254 80.9849C39.0599 80.9455 38.3135 81.2325 37.7714 81.7745L38.8321 82.8352C39.0739 82.5934 39.4068 82.4654 39.7484 82.4829L39.8254 80.9849ZM41.2249 81.0559L39.8249 80.9849L39.7489 82.483L41.1489 82.554L41.2249 81.0559ZM42.4034 80.3113C42.2077 80.7837 41.7358 81.0819 41.225 81.0559L41.1487 82.554C42.2932 82.6122 43.3505 81.9441 43.7892 80.8855L42.4034 80.3113ZM42.0971 78.9514C42.4765 79.2943 42.5992 79.8388 42.4034 80.3113L43.7892 80.8855C44.2278 79.8268 43.953 78.6067 43.1027 77.8384L42.0971 78.9514ZM41.0555 78.0118L42.0975 78.9518L43.1023 77.838L42.0603 76.898L41.0555 78.0118ZM40.1617 76.0004C40.1617 76.767 40.4863 77.4977 41.0552 78.0115L42.0606 76.8984C41.8066 76.6689 41.6617 76.3427 41.6617 76.0004H40.1617ZM41.0552 73.9894C40.4863 74.5032 40.1617 75.2339 40.1617 76.0004H41.6617C41.6617 75.6582 41.8066 75.3319 42.0606 75.1025L41.0552 73.9894ZM42.0975 73.049L41.0555 73.989L42.0603 75.1028L43.1023 74.1628L42.0975 73.049ZM42.4036 71.6906C42.5989 72.1628 42.4761 72.7069 42.097 73.0495L43.1028 74.1624C43.9523 73.3946 44.2273 72.1756 43.7898 71.1174L42.4036 71.6906ZM41.2268 70.945C41.7372 70.9199 42.2083 71.2183 42.4036 71.6906L43.7898 71.1174C43.3522 70.0592 42.2966 69.3905 41.1529 69.4468L41.2268 70.945ZM39.8279 71.016L41.2279 70.945L41.1519 69.4469L39.7519 69.5179L39.8279 71.016ZM37.7782 70.2247C38.3186 70.7659 39.0626 71.0533 39.8264 71.016L39.7533 69.5178C39.4126 69.5345 39.0807 69.4062 38.8396 69.1648L37.7782 70.2247ZM36.9898 68.1753C36.9514 68.9391 37.2378 69.6835 37.7782 70.2247L38.8396 69.1648C38.5985 68.9234 38.4708 68.5913 38.4879 68.2506L36.9898 68.1753ZM37.0608 66.7749L36.9898 68.1749L38.4879 68.2509L38.5589 66.8509L37.0608 66.7749ZM36.3162 65.5964C36.7887 65.7922 37.0869 66.264 37.0608 66.7748L38.5589 66.8511C38.6172 65.7066 37.9491 64.6493 36.8904 64.2106L36.3162 65.5964ZM34.9564 65.9028C35.2992 65.5233 35.8438 65.4006 36.3162 65.5964L36.8904 64.2106C35.8318 63.772 34.6117 64.0469 33.8434 64.8971L34.9564 65.9028ZM34.0082 66.9431L34.9542 65.9051L33.8456 64.8947L32.8996 65.9327L34.0082 66.9431ZM31.9999 67.8351C32.7668 67.8351 33.4978 67.5097 34.0111 66.9399L32.8966 65.9359C32.6678 66.19 32.3418 66.3351 31.9999 66.3351V67.8351ZM31.9999 81.2509C34.8994 81.2509 37.2499 78.9004 37.2499 76.0009H35.7499C35.7499 78.072 34.0709 79.7509 31.9999 79.7509V81.2509ZM26.7499 76.0009C26.7499 78.9004 29.1004 81.2509 31.9999 81.2509V79.7509C29.9288 79.7509 28.2499 78.072 28.2499 76.0009H26.7499ZM31.9999 70.7509C29.1004 70.7509 26.7499 73.1015 26.7499 76.0009H28.2499C28.2499 73.9299 29.9288 72.2509 31.9999 72.2509V70.7509ZM37.2499 76.0009C37.2499 73.1015 34.8994 70.7509 31.9999 70.7509V72.2509C34.0709 72.2509 35.7499 73.9299 35.7499 76.0009H37.2499Z" fill="#585CE5"/>
</g>
</g>
</g>
</svg>
