<svg width="115" height="17" viewBox="0 0 115 17" fill="none" xmlns="http://www.w3.org/2000/svg">
<path id="Menu icons" d="M6.84 16L3.4 4.8H3.32C3.33333 5.06667 3.35333 5.46667 3.38 6C3.40667 6.53333 3.43333 7.10667 3.46 7.72C3.48667 8.32 3.5 8.86667 3.5 9.36V16H0.8V1.72H4.92L8.3 12.64H8.36L11.94 1.72H16.06V16H13.24V9.24C13.24 8.78667 13.2467 8.26667 13.26 7.68C13.2867 7.09333 13.3067 6.54 13.32 6.02C13.3467 5.48667 13.3667 5.08667 13.38 4.82H13.3L9.62 16H6.84ZM24.1672 4.88C25.6739 4.88 26.8672 5.31333 27.7472 6.18C28.6272 7.03333 29.0672 8.25333 29.0672 9.84V11.28H22.0272C22.0539 12.12 22.3005 12.78 22.7672 13.26C23.2472 13.74 23.9072 13.98 24.7472 13.98C25.4539 13.98 26.0939 13.9133 26.6672 13.78C27.2405 13.6333 27.8339 13.4133 28.4472 13.12V15.42C27.9139 15.6867 27.3472 15.88 26.7472 16C26.1605 16.1333 25.4472 16.2 24.6072 16.2C23.5139 16.2 22.5472 16 21.7072 15.6C20.8672 15.1867 20.2072 14.5667 19.7272 13.74C19.2472 12.9133 19.0072 11.8733 19.0072 10.62C19.0072 9.34 19.2205 8.28 19.6472 7.44C20.0872 6.58667 20.6939 5.94667 21.4672 5.52C22.2405 5.09333 23.1405 4.88 24.1672 4.88ZM24.1872 7C23.6139 7 23.1339 7.18667 22.7472 7.56C22.3739 7.93333 22.1539 8.51333 22.0872 9.3H26.2672C26.2539 8.63333 26.0805 8.08667 25.7472 7.66C25.4139 7.22 24.8939 7 24.1872 7ZM37.9236 4.88C39.0969 4.88 40.0369 5.2 40.7436 5.84C41.4503 6.46667 41.8036 7.48 41.8036 8.88V16H38.8236V9.62C38.8236 8.83333 38.6836 8.24667 38.4036 7.86C38.1236 7.46 37.6769 7.26 37.0636 7.26C36.1569 7.26 35.5369 7.57333 35.2036 8.2C34.8703 8.81333 34.7036 9.7 34.7036 10.86V16H31.7236V5.08H34.0036L34.4036 6.48H34.5636C34.9103 5.92 35.3836 5.51333 35.9836 5.26C36.5969 5.00667 37.2436 4.88 37.9236 4.88ZM55.1281 5.08V16H52.8481L52.4481 14.6H52.2881C51.9415 15.16 51.4615 15.5667 50.8481 15.82C50.2481 16.0733 49.6081 16.2 48.9281 16.2C47.7548 16.2 46.8148 15.8867 46.1081 15.26C45.4015 14.62 45.0481 13.6 45.0481 12.2V5.08H48.0281V11.46C48.0281 12.2333 48.1681 12.82 48.4481 13.22C48.7281 13.62 49.1748 13.82 49.7881 13.82C50.6948 13.82 51.3148 13.5133 51.6481 12.9C51.9815 12.2733 52.1481 11.38 52.1481 10.22V5.08H55.1281ZM65.428 0.799999C65.868 0.799999 66.248 0.906666 66.568 1.12C66.888 1.32 67.048 1.7 67.048 2.26C67.048 2.80667 66.888 3.18667 66.568 3.4C66.248 3.61333 65.868 3.72 65.428 3.72C64.9746 3.72 64.588 3.61333 64.268 3.4C63.9613 3.18667 63.808 2.80667 63.808 2.26C63.808 1.7 63.9613 1.32 64.268 1.12C64.588 0.906666 64.9746 0.799999 65.428 0.799999ZM66.908 5.08V16H63.928V5.08H66.908ZM74.7017 16.2C73.0751 16.2 71.8151 15.7533 70.9217 14.86C70.0417 13.9533 69.6017 12.5333 69.6017 10.6C69.6017 9.26667 69.8284 8.18 70.2817 7.34C70.7351 6.5 71.3617 5.88 72.1617 5.48C72.9751 5.08 73.9084 4.88 74.9617 4.88C75.7084 4.88 76.3551 4.95333 76.9017 5.1C77.4617 5.24667 77.9484 5.42 78.3617 5.62L77.4817 7.92C77.0151 7.73333 76.5751 7.58 76.1617 7.46C75.7617 7.34 75.3617 7.28 74.9617 7.28C73.4151 7.28 72.6417 8.38 72.6417 10.58C72.6417 11.6733 72.8417 12.48 73.2417 13C73.6551 13.52 74.2284 13.78 74.9617 13.78C75.5884 13.78 76.1417 13.7 76.6217 13.54C77.1017 13.3667 77.5684 13.1333 78.0217 12.84V15.38C77.5684 15.6733 77.0884 15.88 76.5817 16C76.0884 16.1333 75.4617 16.2 74.7017 16.2ZM90.6952 10.52C90.6952 12.3333 90.2152 13.7333 89.2552 14.72C88.3085 15.7067 87.0152 16.2 85.3752 16.2C84.3618 16.2 83.4552 15.98 82.6552 15.54C81.8685 15.1 81.2485 14.46 80.7952 13.62C80.3418 12.7667 80.1152 11.7333 80.1152 10.52C80.1152 8.70667 80.5885 7.31333 81.5352 6.34C82.4818 5.36667 83.7818 4.88 85.4352 4.88C86.4618 4.88 87.3685 5.1 88.1552 5.54C88.9418 5.98 89.5618 6.62 90.0152 7.46C90.4685 8.28667 90.6952 9.30667 90.6952 10.52ZM83.1552 10.52C83.1552 11.6 83.3285 12.42 83.6752 12.98C84.0352 13.5267 84.6152 13.8 85.4152 13.8C86.2018 13.8 86.7685 13.5267 87.1152 12.98C87.4752 12.42 87.6552 11.6 87.6552 10.52C87.6552 9.44 87.4752 8.63333 87.1152 8.1C86.7685 7.55333 86.1952 7.28 85.3952 7.28C84.6085 7.28 84.0352 7.55333 83.6752 8.1C83.3285 8.63333 83.1552 9.44 83.1552 10.52ZM99.598 4.88C100.771 4.88 101.711 5.2 102.418 5.84C103.125 6.46667 103.478 7.48 103.478 8.88V16H100.498V9.62C100.498 8.83333 100.358 8.24667 100.078 7.86C99.798 7.46 99.3513 7.26 98.738 7.26C97.8313 7.26 97.2113 7.57333 96.878 8.2C96.5446 8.81333 96.378 9.7 96.378 10.86V16H93.398V5.08H95.678L96.078 6.48H96.238C96.5846 5.92 97.058 5.51333 97.658 5.26C98.2713 5.00667 98.918 4.88 99.598 4.88ZM114.403 12.76C114.403 13.8667 114.009 14.72 113.223 15.32C112.449 15.9067 111.289 16.2 109.743 16.2C108.983 16.2 108.329 16.1467 107.783 16.04C107.236 15.9467 106.689 15.7867 106.143 15.56V13.1C106.729 13.3667 107.363 13.5867 108.043 13.76C108.723 13.9333 109.323 14.02 109.843 14.02C110.429 14.02 110.843 13.9333 111.083 13.76C111.336 13.5867 111.463 13.36 111.463 13.08C111.463 12.8933 111.409 12.7267 111.303 12.58C111.209 12.4333 110.996 12.2667 110.663 12.08C110.329 11.8933 109.809 11.6533 109.103 11.36C108.423 11.0667 107.863 10.78 107.423 10.5C106.983 10.2067 106.656 9.86 106.443 9.46C106.229 9.04667 106.123 8.53333 106.123 7.92C106.123 6.90667 106.516 6.14667 107.303 5.64C108.089 5.13333 109.136 4.88 110.443 4.88C111.123 4.88 111.769 4.94667 112.383 5.08C112.996 5.21333 113.629 5.43333 114.283 5.74L113.383 7.88C112.849 7.65333 112.343 7.46667 111.863 7.32C111.383 7.16 110.896 7.08 110.403 7.08C109.523 7.08 109.083 7.32 109.083 7.8C109.083 7.97333 109.136 8.13333 109.243 8.28C109.363 8.41333 109.583 8.56 109.903 8.72C110.236 8.88 110.723 9.09333 111.363 9.36C111.989 9.61333 112.529 9.88 112.983 10.16C113.436 10.4267 113.783 10.7667 114.023 11.18C114.276 11.58 114.403 12.1067 114.403 12.76Z" fill="#0F2851"/>
</svg>
