<svg width="64" height="108" viewBox="0 0 64 108" fill="none" xmlns="http://www.w3.org/2000/svg">
<g id="icon / menu home">
<rect x="0.5" y="0.5" width="63" height="107" rx="4.5" stroke="#585CE5" stroke-dasharray="10 5"/>
<g id="Property 1=outline">
<path id="Vector" d="M29.1348 40.7733V37.7156C29.1348 36.9351 29.7722 36.3023 30.5584 36.3023H33.4326C33.8102 36.3023 34.1723 36.4512 34.4393 36.7163C34.7063 36.9813 34.8563 37.3408 34.8563 37.7156V40.7733C34.8539 41.0978 34.9821 41.4099 35.2124 41.6402C35.4427 41.8705 35.756 42 36.0829 42H38.0438C38.9596 42.0023 39.8388 41.6428 40.4872 41.0008C41.1356 40.3588 41.5 39.487 41.5 38.5778V29.8669C41.5 29.1325 41.1721 28.4358 40.6046 27.9647L33.934 22.6759C32.7737 21.7486 31.1111 21.7785 29.9854 22.747L23.467 27.9647C22.8727 28.422 22.5176 29.1206 22.5 29.8669V38.5689C22.5 40.4639 24.0474 42 25.9562 42H27.8723C28.5512 42 29.103 41.4562 29.1079 40.7822L29.1348 40.7733Z" stroke="#B0B2C4" stroke-width="1.5" stroke-linejoin="round"/>
</g>
<g id="Property 1=fill">
<path id="Vector_2" d="M29.1348 84.7733V81.7156C29.1348 80.9351 29.7722 80.3023 30.5584 80.3023H33.4326C33.8102 80.3023 34.1723 80.4512 34.4393 80.7163C34.7063 80.9813 34.8563 81.3408 34.8563 81.7156V84.7733C34.8539 85.0978 34.9821 85.4099 35.2124 85.6402C35.4427 85.8705 35.7561 86 36.0829 86H38.0438C38.9596 86.0023 39.8388 85.6428 40.4872 85.0008C41.1356 84.3588 41.5 83.487 41.5 82.5778V73.8669C41.5 73.1325 41.1721 72.4358 40.6046 71.9647L33.934 66.6759C32.7737 65.7486 31.1111 65.7785 29.9854 66.747L23.467 71.9647C22.8727 72.422 22.5176 73.1206 22.5 73.8669V82.5689C22.5 84.4639 24.0474 86 25.9562 86H27.8723C28.5512 86 29.103 85.4562 29.1079 84.7822L29.1348 84.7733Z" fill="#585CE5"/>
</g>
</g>
</svg>
