<svg width="189" height="21" viewBox="0 0 189 21" fill="none" xmlns="http://www.w3.org/2000/svg">
<path id="Other icons (32 px)" d="M13.76 8.84C13.76 10.32 13.5133 11.6133 13.02 12.72C12.54 13.8133 11.8 14.6667 10.8 15.28C9.8 15.8933 8.52 16.2 6.96 16.2C5.41333 16.2 4.13333 15.8933 3.12 15.28C2.12 14.6667 1.37333 13.8067 0.88 12.7C0.4 11.5933 0.16 10.3 0.16 8.82C0.16 7.34 0.4 6.05333 0.88 4.96C1.37333 3.86667 2.12 3.02 3.12 2.42C4.13333 1.80667 5.42 1.5 6.98 1.5C8.52667 1.5 9.8 1.80667 10.8 2.42C11.8 3.02 12.54 3.87333 13.02 4.98C13.5133 6.07333 13.76 7.36 13.76 8.84ZM3.34 8.84C3.34 10.3333 3.62667 11.5133 4.2 12.38C4.77333 13.2333 5.69333 13.66 6.96 13.66C8.25333 13.66 9.18 13.2333 9.74 12.38C10.3 11.5133 10.58 10.3333 10.58 8.84C10.58 7.33333 10.3 6.15333 9.74 5.3C9.18 4.44667 8.26 4.02 6.98 4.02C5.7 4.02 4.77333 4.44667 4.2 5.3C3.62667 6.15333 3.34 7.33333 3.34 8.84ZM21.318 13.82C21.6513 13.82 21.9713 13.7867 22.278 13.72C22.5846 13.6533 22.8913 13.5733 23.198 13.48V15.7C22.878 15.8333 22.478 15.9467 21.998 16.04C21.5313 16.1467 21.018 16.2 20.458 16.2C19.8046 16.2 19.218 16.0933 18.698 15.88C18.1913 15.6667 17.7846 15.3 17.478 14.78C17.1846 14.2467 17.038 13.5133 17.038 12.58V7.32H15.618V6.06L17.258 5.06L18.118 2.76H20.018V5.08H23.078V7.32H20.018V12.58C20.018 12.9933 20.138 13.3067 20.378 13.52C20.618 13.72 20.9313 13.82 21.318 13.82ZM28.6098 3.9C28.6098 4.43333 28.5898 4.94667 28.5498 5.44C28.5232 5.93333 28.4965 6.28 28.4698 6.48H28.6298C28.9765 5.92 29.4232 5.51333 29.9698 5.26C30.5165 5.00667 31.1232 4.88 31.7898 4.88C32.9765 4.88 33.9232 5.2 34.6298 5.84C35.3498 6.46667 35.7098 7.48 35.7098 8.88V16H32.7298V9.62C32.7298 8.04667 32.1432 7.26 30.9698 7.26C30.0765 7.26 29.4565 7.57333 29.1098 8.2C28.7765 8.81333 28.6098 9.7 28.6098 10.86V16H25.6298V0.799999H28.6098V3.9ZM43.5144 4.88C45.021 4.88 46.2144 5.31333 47.0944 6.18C47.9744 7.03333 48.4144 8.25333 48.4144 9.84V11.28H41.3744C41.401 12.12 41.6477 12.78 42.1144 13.26C42.5944 13.74 43.2544 13.98 44.0944 13.98C44.801 13.98 45.441 13.9133 46.0144 13.78C46.5877 13.6333 47.181 13.4133 47.7944 13.12V15.42C47.261 15.6867 46.6944 15.88 46.0944 16C45.5077 16.1333 44.7944 16.2 43.9544 16.2C42.861 16.2 41.8944 16 41.0544 15.6C40.2144 15.1867 39.5544 14.5667 39.0744 13.74C38.5944 12.9133 38.3544 11.8733 38.3544 10.62C38.3544 9.34 38.5677 8.28 38.9944 7.44C39.4344 6.58667 40.041 5.94667 40.8144 5.52C41.5877 5.09333 42.4877 4.88 43.5144 4.88ZM43.5344 7C42.961 7 42.481 7.18667 42.0944 7.56C41.721 7.93333 41.501 8.51333 41.4344 9.3H45.6144C45.601 8.63333 45.4277 8.08667 45.0944 7.66C44.761 7.22 44.241 7 43.5344 7ZM57.1708 4.88C57.3174 4.88 57.4908 4.88667 57.6908 4.9C57.8908 4.91333 58.0508 4.93333 58.1708 4.96L57.9508 7.76C57.8574 7.73333 57.7174 7.71333 57.5308 7.7C57.3574 7.67333 57.2041 7.66 57.0708 7.66C56.5641 7.66 56.0774 7.75333 55.6108 7.94C55.1441 8.11333 54.7641 8.4 54.4708 8.8C54.1908 9.2 54.0508 9.74667 54.0508 10.44V16H51.0708V5.08H53.3308L53.7708 6.92H53.9108C54.2308 6.36 54.6708 5.88 55.2308 5.48C55.7908 5.08 56.4374 4.88 57.1708 4.88ZM67.3281 0.799999C67.7681 0.799999 68.1481 0.906666 68.4681 1.12C68.7881 1.32 68.9481 1.7 68.9481 2.26C68.9481 2.80667 68.7881 3.18667 68.4681 3.4C68.1481 3.61333 67.7681 3.72 67.3281 3.72C66.8748 3.72 66.4881 3.61333 66.1681 3.4C65.8615 3.18667 65.7081 2.80667 65.7081 2.26C65.7081 1.7 65.8615 1.32 66.1681 1.12C66.4881 0.906666 66.8748 0.799999 67.3281 0.799999ZM68.8081 5.08V16H65.8281V5.08H68.8081ZM76.6019 16.2C74.9752 16.2 73.7152 15.7533 72.8219 14.86C71.9419 13.9533 71.5019 12.5333 71.5019 10.6C71.5019 9.26667 71.7285 8.18 72.1819 7.34C72.6352 6.5 73.2619 5.88 74.0619 5.48C74.8752 5.08 75.8085 4.88 76.8619 4.88C77.6085 4.88 78.2552 4.95333 78.8019 5.1C79.3619 5.24667 79.8485 5.42 80.2619 5.62L79.3819 7.92C78.9152 7.73333 78.4752 7.58 78.0619 7.46C77.6619 7.34 77.2619 7.28 76.8619 7.28C75.3152 7.28 74.5419 8.38 74.5419 10.58C74.5419 11.6733 74.7419 12.48 75.1419 13C75.5552 13.52 76.1285 13.78 76.8619 13.78C77.4885 13.78 78.0419 13.7 78.5219 13.54C79.0019 13.3667 79.4685 13.1333 79.9219 12.84V15.38C79.4685 15.6733 78.9885 15.88 78.4819 16C77.9885 16.1333 77.3619 16.2 76.6019 16.2ZM92.5953 10.52C92.5953 12.3333 92.1153 13.7333 91.1553 14.72C90.2086 15.7067 88.9153 16.2 87.2753 16.2C86.262 16.2 85.3553 15.98 84.5553 15.54C83.7686 15.1 83.1486 14.46 82.6953 13.62C82.242 12.7667 82.0153 11.7333 82.0153 10.52C82.0153 8.70667 82.4886 7.31333 83.4353 6.34C84.382 5.36667 85.682 4.88 87.3353 4.88C88.362 4.88 89.2686 5.1 90.0553 5.54C90.842 5.98 91.462 6.62 91.9153 7.46C92.3686 8.28667 92.5953 9.30667 92.5953 10.52ZM85.0553 10.52C85.0553 11.6 85.2286 12.42 85.5753 12.98C85.9353 13.5267 86.5153 13.8 87.3153 13.8C88.102 13.8 88.6686 13.5267 89.0153 12.98C89.3753 12.42 89.5553 11.6 89.5553 10.52C89.5553 9.44 89.3753 8.63333 89.0153 8.1C88.6686 7.55333 88.0953 7.28 87.2953 7.28C86.5086 7.28 85.9353 7.55333 85.5753 8.1C85.2286 8.63333 85.0553 9.44 85.0553 10.52ZM101.498 4.88C102.671 4.88 103.611 5.2 104.318 5.84C105.025 6.46667 105.378 7.48 105.378 8.88V16H102.398V9.62C102.398 8.83333 102.258 8.24667 101.978 7.86C101.698 7.46 101.251 7.26 100.638 7.26C99.7315 7.26 99.1115 7.57333 98.7781 8.2C98.4448 8.81333 98.2781 9.7 98.2781 10.86V16H95.2981V5.08H97.5781L97.9781 6.48H98.1381C98.4848 5.92 98.9581 5.51333 99.5581 5.26C100.171 5.00667 100.818 4.88 101.498 4.88ZM116.303 12.76C116.303 13.8667 115.909 14.72 115.123 15.32C114.349 15.9067 113.189 16.2 111.643 16.2C110.883 16.2 110.229 16.1467 109.683 16.04C109.136 15.9467 108.589 15.7867 108.043 15.56V13.1C108.629 13.3667 109.263 13.5867 109.943 13.76C110.623 13.9333 111.223 14.02 111.743 14.02C112.329 14.02 112.743 13.9333 112.983 13.76C113.236 13.5867 113.363 13.36 113.363 13.08C113.363 12.8933 113.309 12.7267 113.203 12.58C113.109 12.4333 112.896 12.2667 112.563 12.08C112.229 11.8933 111.709 11.6533 111.003 11.36C110.323 11.0667 109.763 10.78 109.323 10.5C108.883 10.2067 108.556 9.86 108.343 9.46C108.129 9.04667 108.023 8.53333 108.023 7.92C108.023 6.90667 108.416 6.14667 109.203 5.64C109.989 5.13333 111.036 4.88 112.343 4.88C113.023 4.88 113.669 4.94667 114.283 5.08C114.896 5.21333 115.529 5.43333 116.183 5.74L115.283 7.88C114.749 7.65333 114.243 7.46667 113.763 7.32C113.283 7.16 112.796 7.08 112.303 7.08C111.423 7.08 110.983 7.32 110.983 7.8C110.983 7.97333 111.036 8.13333 111.143 8.28C111.263 8.41333 111.483 8.56 111.803 8.72C112.136 8.88 112.623 9.09333 113.263 9.36C113.889 9.61333 114.429 9.88 114.883 10.16C115.336 10.4267 115.683 10.7667 115.923 11.18C116.176 11.58 116.303 12.1067 116.303 12.76ZM123.539 10.52C123.539 8.89333 123.773 7.32667 124.239 5.82C124.719 4.3 125.466 2.93333 126.479 1.72H128.919C128.013 2.97333 127.319 4.35333 126.839 5.86C126.373 7.36667 126.139 8.91333 126.139 10.5C126.139 12.0467 126.373 13.5733 126.839 15.08C127.319 16.5733 128.006 17.9333 128.899 19.16H126.479C125.466 17.9867 124.719 16.66 124.239 15.18C123.773 13.6867 123.539 12.1333 123.539 10.52ZM139.977 4.92C139.977 5.90667 139.677 6.69333 139.077 7.28C138.49 7.86667 137.763 8.26667 136.897 8.48V8.54C138.043 8.67333 138.91 9.02 139.497 9.58C140.097 10.14 140.397 10.8933 140.397 11.84C140.397 12.6667 140.19 13.4133 139.777 14.08C139.377 14.7333 138.75 15.2533 137.897 15.64C137.057 16.0133 135.97 16.2 134.637 16.2C133.09 16.2 131.717 15.94 130.517 15.42V12.86C131.13 13.1667 131.77 13.4 132.437 13.56C133.117 13.72 133.743 13.8 134.317 13.8C135.397 13.8 136.15 13.6133 136.577 13.24C137.017 12.8667 137.237 12.34 137.237 11.66C137.237 11.26 137.137 10.9267 136.937 10.66C136.737 10.38 136.383 10.1733 135.877 10.04C135.383 9.89333 134.69 9.82 133.797 9.82H132.717V7.5H133.817C134.697 7.5 135.363 7.42 135.817 7.26C136.283 7.08667 136.597 6.86 136.757 6.58C136.93 6.28667 137.017 5.95333 137.017 5.58C137.017 5.07333 136.857 4.68 136.537 4.4C136.23 4.10667 135.71 3.96 134.977 3.96C134.297 3.96 133.703 4.08 133.197 4.32C132.703 4.54667 132.283 4.77333 131.937 5L130.537 2.92C131.097 2.52 131.75 2.18667 132.497 1.92C133.257 1.65333 134.157 1.52 135.197 1.52C136.663 1.52 137.823 1.82 138.677 2.42C139.543 3.00667 139.977 3.84 139.977 4.92ZM152.222 16H142.242V13.9L145.822 10.28C146.542 9.53333 147.122 8.91333 147.562 8.42C148.002 7.91333 148.322 7.46 148.522 7.06C148.722 6.64667 148.822 6.20667 148.822 5.74C148.822 5.16667 148.662 4.74 148.342 4.46C148.035 4.18 147.615 4.04 147.082 4.04C146.535 4.04 146.002 4.16667 145.482 4.42C144.962 4.67333 144.415 5.03333 143.842 5.5L142.202 3.56C142.615 3.2 143.049 2.86667 143.502 2.56C143.969 2.25333 144.502 2.00667 145.102 1.82C145.715 1.62 146.449 1.52 147.302 1.52C148.235 1.52 149.035 1.69333 149.702 2.04C150.382 2.37333 150.902 2.83333 151.262 3.42C151.635 3.99333 151.822 4.64667 151.822 5.38C151.822 6.16667 151.662 6.88667 151.342 7.54C151.035 8.19333 150.582 8.84 149.982 9.48C149.395 10.12 148.682 10.8267 147.842 11.6L146.002 13.32V13.46H152.222V16ZM166.203 4.88C167.429 4.88 168.423 5.36 169.183 6.32C169.943 7.26667 170.323 8.66667 170.323 10.52C170.323 12.3733 169.929 13.7867 169.143 14.76C168.356 15.72 167.349 16.2 166.123 16.2C165.336 16.2 164.709 16.06 164.243 15.78C163.776 15.4867 163.396 15.16 163.103 14.8H162.943C163.049 15.36 163.103 15.8933 163.103 16.4V20.8H160.123V5.08H162.543L162.963 6.5H163.103C163.396 6.06 163.789 5.68 164.283 5.36C164.776 5.04 165.416 4.88 166.203 4.88ZM165.243 7.26C164.469 7.26 163.923 7.5 163.603 7.98C163.296 8.46 163.129 9.19333 163.103 10.18V10.5C163.103 11.5533 163.256 12.3667 163.563 12.94C163.883 13.5 164.456 13.78 165.283 13.78C165.963 13.78 166.463 13.5 166.783 12.94C167.116 12.3667 167.283 11.5467 167.283 10.48C167.283 8.33333 166.603 7.26 165.243 7.26ZM174.868 10.42L171.348 5.08H174.728L176.848 8.56L178.988 5.08H182.368L178.808 10.42L182.528 16H179.148L176.848 12.26L174.548 16H171.168L174.868 10.42ZM188.851 10.52C188.851 12.1333 188.611 13.6867 188.131 15.18C187.664 16.66 186.924 17.9867 185.911 19.16H183.491C184.397 17.9333 185.084 16.5733 185.551 15.08C186.017 13.5733 186.251 12.0467 186.251 10.5C186.251 8.91333 186.011 7.36667 185.531 5.86C185.064 4.35333 184.377 2.97333 183.471 1.72H185.911C186.924 2.93333 187.664 4.3 188.131 5.82C188.611 7.32667 188.851 8.89333 188.851 10.52Z" fill="#0F2851"/>
</svg>
