<svg width="36" height="36" viewBox="0 0 36 36" fill="none" xmlns="http://www.w3.org/2000/svg">
<g id="icon / percentage progress">
<path id="51%" d="M10.91 17.51C11.3633 17.51 11.7633 17.5933 12.11 17.76C12.4567 17.92 12.7267 18.16 12.92 18.48C13.12 18.8 13.22 19.19 13.22 19.65C13.22 20.41 12.98 21.01 12.5 21.45C12.0267 21.8833 11.34 22.1 10.44 22.1C10.0667 22.1 9.71667 22.0667 9.39 22C9.06333 21.9333 8.78 21.8367 8.54 21.71V20.59C8.78667 20.7233 9.08333 20.8333 9.43 20.92C9.77667 21.0067 10.1033 21.05 10.41 21.05C10.8833 21.05 11.2533 20.9467 11.52 20.74C11.7933 20.5333 11.93 20.21 11.93 19.77C11.93 19.3767 11.8033 19.0767 11.55 18.87C11.2967 18.6567 10.9033 18.55 10.37 18.55C10.1833 18.55 9.98 18.5667 9.76 18.6C9.54667 18.6333 9.37 18.6667 9.23 18.7L8.69 18.4L8.96 14.86H12.72V15.96H10.07L9.92 17.61C10.0333 17.59 10.1667 17.57 10.32 17.55C10.4733 17.5233 10.67 17.51 10.91 17.51ZM17.6527 22H16.3927V17.55C16.3927 17.3367 16.396 17.11 16.4027 16.87C16.4093 16.63 16.4193 16.4067 16.4327 16.2C16.366 16.2667 16.2827 16.3467 16.1827 16.44C16.0827 16.5267 15.9793 16.6167 15.8727 16.71L15.0727 17.35L14.4427 16.57L16.6027 14.86H17.6527V22ZM21.4553 14.76C21.9953 14.76 22.402 14.9567 22.6753 15.35C22.9553 15.7367 23.0953 16.2833 23.0953 16.99C23.0953 17.6967 22.962 18.25 22.6953 18.65C22.4353 19.0433 22.022 19.24 21.4553 19.24C20.9353 19.24 20.5386 19.0433 20.2653 18.65C19.9986 18.25 19.8653 17.6967 19.8653 16.99C19.8653 16.2833 19.992 15.7367 20.2453 15.35C20.4986 14.9567 20.902 14.76 21.4553 14.76ZM26.3453 14.86L22.3853 22H21.3653L25.3253 14.86H26.3453ZM21.4653 15.63C21.092 15.63 20.9053 16.0867 20.9053 17C20.9053 17.9133 21.092 18.37 21.4653 18.37C21.852 18.37 22.0453 17.9133 22.0453 17C22.0453 16.0867 21.852 15.63 21.4653 15.63ZM26.2253 17.61C26.752 17.61 27.1553 17.8067 27.4353 18.2C27.7153 18.5933 27.8553 19.14 27.8553 19.84C27.8553 20.5467 27.722 21.1 27.4553 21.5C27.1953 21.8933 26.7853 22.09 26.2253 22.09C25.6986 22.09 25.2986 21.8933 25.0253 21.5C24.7586 21.1 24.6253 20.5467 24.6253 19.84C24.6253 19.14 24.752 18.5933 25.0053 18.2C25.2653 17.8067 25.672 17.61 26.2253 17.61ZM26.2253 18.49C25.852 18.49 25.6653 18.9433 25.6653 19.85C25.6653 20.77 25.852 21.23 26.2253 21.23C26.6186 21.23 26.8153 20.77 26.8153 19.85C26.8153 18.9433 26.6186 18.49 26.2253 18.49Z" fill="#415371"/>
<circle id="Ellipse 778" cx="18" cy="18" r="16" stroke="#E5E6EE" stroke-width="3"/>
<path id="Ellipse 780" d="M18 34C26.8366 34 34 26.8366 34 18C34 9.16344 26.8366 2 18 2" stroke="#58C6CD" stroke-width="4" stroke-linecap="round"/>
</g>
</svg>
