<svg width="20" height="20" viewBox="0 0 20 20" fill="none" xmlns="http://www.w3.org/2000/svg">
<g id="icon / pin">
<g id="Group">
<g id="pin-location-1">
<path id="Oval" fill-rule="evenodd" clip-rule="evenodd" d="M10 8.875C11.4497 8.875 12.625 7.69975 12.625 6.25C12.625 4.80025 11.4497 3.625 10 3.625C8.55025 3.625 7.375 4.80025 7.375 6.25C7.375 7.69975 8.55025 8.875 10 8.875Z" stroke="#898D9E" stroke-linecap="round" stroke-linejoin="round"/>
<path id="Shape" fill-rule="evenodd" clip-rule="evenodd" d="M10 1.375C12.8396 1.37541 15.1413 3.67744 15.1413 6.517C15.1413 8.92825 11.4348 14.9057 10.3158 16.6547C10.2468 16.7624 10.1278 16.8274 10 16.8274C9.87221 16.8274 9.75321 16.7624 9.68426 16.6547C8.56526 14.9057 4.85876 8.92975 4.85876 6.517C4.85857 5.15333 5.40014 3.84544 6.36434 2.8811C7.32853 1.91677 8.63634 1.375 10 1.375V1.375Z" stroke="#898D9E" stroke-linecap="round" stroke-linejoin="round"/>
<path id="Shape_2" d="M13.75 15.775C16.636 16.018 18.625 16.5318 18.625 17.125C18.625 17.9538 14.764 18.625 10 18.625C5.236 18.625 1.375 17.9538 1.375 17.125C1.375 16.5325 3.35125 16.0203 6.2185 15.775" stroke="#898D9E" stroke-linecap="round" stroke-linejoin="round"/>
</g>
</g>
</g>
</svg>
