<svg width="40" height="40" viewBox="0 0 40 40" fill="none" xmlns="http://www.w3.org/2000/svg">
<g id="icon / rollers">
<path id="Oval" fill-rule="evenodd" clip-rule="evenodd" d="M31.6667 8.79999C33.9679 8.79999 35.8333 7.00913 35.8333 4.79999C35.8333 2.59085 33.9679 0.799988 31.6667 0.799988C29.3655 0.799988 27.5 2.59085 27.5 4.79999C27.5 7.00913 29.3655 8.79999 31.6667 8.79999Z" stroke="#A1A3F6" stroke-width="1.5" stroke-linecap="round" stroke-linejoin="round"/>
<path id="Shape" d="M26.4483 34.4L27.3283 27.36C27.5112 25.6639 26.8729 23.9812 25.5967 22.7952C23.995 21.2992 22.8517 20.2912 22.0217 19.5952L24.5933 15.7792L24.7167 16.016C25.9857 18.4563 28.5822 19.9987 31.4233 20H35.8333C37.2141 20 38.3333 18.9255 38.3333 17.6C38.3333 16.2745 37.2141 15.2 35.8333 15.2H31.4233C30.4769 15.1997 29.6117 14.6863 29.1883 13.8736L28.5217 12.5936C27.2738 10.1978 24.5791 8.82694 21.8133 9.18081L12.1667 10.4208C10.7979 10.5975 9.83758 11.806 10.0217 13.12C10.2058 14.434 11.4646 15.3559 12.8333 15.1792L19.6367 14.3088L14.3783 22.104C13.9177 22.7873 13.1278 23.1999 12.28 23.2H8.72168" stroke="#A1A3F6" stroke-width="1.5" stroke-linecap="round" stroke-linejoin="round"/>
<path id="Shape_2" d="M5 28H12.2817C14.825 27.9995 17.1948 26.7617 18.5767 24.712L19.275 23.6768C19.99 24.2944 20.9167 25.1168 22.1083 26.2368C22.2897 26.4056 22.38 26.6452 22.3533 26.8864L21.8533 30.8384" stroke="#A1A3F6" stroke-width="1.5" stroke-linecap="round" stroke-linejoin="round"/>
<path id="Shape_3" d="M5 20.8V30.4" stroke="#A1A3F6" stroke-width="1.5" stroke-linecap="round" stroke-linejoin="round"/>
<path id="Shape_4" d="M19.1667 34.4H29.1667" stroke="#A1A3F6" stroke-width="1.5" stroke-linecap="round" stroke-linejoin="round"/>
<path id="Shape_5" d="M2.08334 20.8C2.31346 20.8 2.50001 20.9791 2.50001 21.2" stroke="#A1A3F6" stroke-width="1.5" stroke-linecap="round" stroke-linejoin="round"/>
<path id="Shape_6" d="M1.66666 21.2C1.66666 20.9791 1.8532 20.8 2.08332 20.8" stroke="#A1A3F6" stroke-width="1.5" stroke-linecap="round" stroke-linejoin="round"/>
<path id="Shape_7" d="M2.08332 21.6C1.8532 21.6 1.66666 21.4209 1.66666 21.2" stroke="#A1A3F6" stroke-width="1.5" stroke-linecap="round" stroke-linejoin="round"/>
<path id="Shape_8" d="M2.50001 21.2C2.50001 21.4209 2.31346 21.6 2.08334 21.6" stroke="#A1A3F6" stroke-width="1.5" stroke-linecap="round" stroke-linejoin="round"/>
<path id="Shape_9" d="M2.08334 25.2C2.31346 25.2 2.50001 25.3791 2.50001 25.6" stroke="#A1A3F6" stroke-width="1.5" stroke-linecap="round" stroke-linejoin="round"/>
<path id="Shape_10" d="M1.66666 25.6C1.66666 25.3791 1.8532 25.2 2.08332 25.2" stroke="#A1A3F6" stroke-width="1.5" stroke-linecap="round" stroke-linejoin="round"/>
<path id="Shape_11" d="M2.08332 26C1.8532 26 1.66666 25.8209 1.66666 25.6" stroke="#A1A3F6" stroke-width="1.5" stroke-linecap="round" stroke-linejoin="round"/>
<path id="Shape_12" d="M2.50001 25.6C2.50001 25.8209 2.31346 26 2.08334 26" stroke="#A1A3F6" stroke-width="1.5" stroke-linecap="round" stroke-linejoin="round"/>
<path id="Shape_13" d="M2.08334 29.6C2.31346 29.6 2.50001 29.7791 2.50001 30" stroke="#A1A3F6" stroke-width="1.5" stroke-linecap="round" stroke-linejoin="round"/>
<path id="Shape_14" d="M1.66666 30C1.66666 29.7791 1.8532 29.6 2.08332 29.6" stroke="#A1A3F6" stroke-width="1.5" stroke-linecap="round" stroke-linejoin="round"/>
<path id="Shape_15" d="M2.08332 30.4C1.8532 30.4 1.66666 30.2209 1.66666 30" stroke="#A1A3F6" stroke-width="1.5" stroke-linecap="round" stroke-linejoin="round"/>
<path id="Shape_16" d="M2.50001 30C2.50001 30.2209 2.31346 30.4 2.08334 30.4" stroke="#A1A3F6" stroke-width="1.5" stroke-linecap="round" stroke-linejoin="round"/>
<path id="Shape_17" d="M2.08334 20.8C2.31346 20.8 2.50001 20.9791 2.50001 21.2" stroke="#A1A3F6" stroke-width="1.5" stroke-linecap="round" stroke-linejoin="round"/>
<path id="Shape_18" d="M1.66666 21.2C1.66666 20.9791 1.8532 20.8 2.08332 20.8" stroke="#A1A3F6" stroke-width="1.5" stroke-linecap="round" stroke-linejoin="round"/>
<path id="Shape_19" d="M2.08332 21.6C1.8532 21.6 1.66666 21.4209 1.66666 21.2" stroke="#A1A3F6" stroke-width="1.5" stroke-linecap="round" stroke-linejoin="round"/>
<path id="Shape_20" d="M2.50001 21.2C2.50001 21.4209 2.31346 21.6 2.08334 21.6" stroke="#A1A3F6" stroke-width="1.5" stroke-linecap="round" stroke-linejoin="round"/>
<path id="Shape_21" d="M2.08334 25.4672C2.15974 25.4672 2.22168 25.5267 2.22168 25.6" stroke="#A1A3F6" stroke-width="1.5" stroke-linecap="round" stroke-linejoin="round"/>
<path id="Shape_22" d="M1.94501 25.6C1.94501 25.5267 2.00694 25.4672 2.08334 25.4672" stroke="#A1A3F6" stroke-width="1.5" stroke-linecap="round" stroke-linejoin="round"/>
<path id="Shape_23" d="M2.08334 25.7328C2.00694 25.7328 1.94501 25.6733 1.94501 25.6" stroke="#A1A3F6" stroke-width="1.5" stroke-linecap="round" stroke-linejoin="round"/>
<path id="Shape_24" d="M2.22168 25.6C2.22168 25.6733 2.15974 25.7328 2.08334 25.7328" stroke="#A1A3F6" stroke-width="1.5" stroke-linecap="round" stroke-linejoin="round"/>
<path id="Shape_25" d="M2.08334 29.6C2.31346 29.6 2.50001 29.7791 2.50001 30" stroke="#A1A3F6" stroke-width="1.5" stroke-linecap="round" stroke-linejoin="round"/>
<path id="Shape_26" d="M1.66666 30C1.66666 29.7791 1.8532 29.6 2.08332 29.6" stroke="#A1A3F6" stroke-width="1.5" stroke-linecap="round" stroke-linejoin="round"/>
<path id="Shape_27" d="M2.08332 30.4C1.8532 30.4 1.66666 30.2209 1.66666 30" stroke="#A1A3F6" stroke-width="1.5" stroke-linecap="round" stroke-linejoin="round"/>
<path id="Shape_28" d="M2.50001 30C2.50001 30.2209 2.31346 30.4 2.08334 30.4" stroke="#A1A3F6" stroke-width="1.5" stroke-linecap="round" stroke-linejoin="round"/>
<path id="Shape_29" d="M29.1667 37.2C29.1667 37.4209 28.9801 37.6 28.75 37.6" stroke="#A1A3F6" stroke-width="1.5" stroke-linecap="round" stroke-linejoin="round"/>
<path id="Shape_30" d="M28.75 36.8C28.9801 36.8 29.1667 36.9791 29.1667 37.2" stroke="#A1A3F6" stroke-width="1.5" stroke-linecap="round" stroke-linejoin="round"/>
<path id="Shape_31" d="M28.3333 37.2C28.3333 36.9791 28.5199 36.8 28.75 36.8" stroke="#A1A3F6" stroke-width="1.5" stroke-linecap="round" stroke-linejoin="round"/>
<path id="Shape_32" d="M28.75 37.6C28.5199 37.6 28.3333 37.4209 28.3333 37.2" stroke="#A1A3F6" stroke-width="1.5" stroke-linecap="round" stroke-linejoin="round"/>
<path id="Shape_33" d="M24.5833 37.2C24.5833 37.4209 24.3968 37.6 24.1667 37.6" stroke="#A1A3F6" stroke-width="1.5" stroke-linecap="round" stroke-linejoin="round"/>
<path id="Shape_34" d="M24.1667 36.8C24.3968 36.8 24.5833 36.9791 24.5833 37.2" stroke="#A1A3F6" stroke-width="1.5" stroke-linecap="round" stroke-linejoin="round"/>
<path id="Shape_35" d="M23.75 37.2C23.75 36.9791 23.9365 36.8 24.1667 36.8" stroke="#A1A3F6" stroke-width="1.5" stroke-linecap="round" stroke-linejoin="round"/>
<path id="Shape_36" d="M24.1667 37.6C23.9365 37.6 23.75 37.4209 23.75 37.2" stroke="#A1A3F6" stroke-width="1.5" stroke-linecap="round" stroke-linejoin="round"/>
<path id="Shape_37" d="M20 37.2C20 37.4209 19.8135 37.6 19.5833 37.6" stroke="#A1A3F6" stroke-width="1.5" stroke-linecap="round" stroke-linejoin="round"/>
<path id="Shape_38" d="M19.5833 36.8C19.8135 36.8 20 36.9791 20 37.2" stroke="#A1A3F6" stroke-width="1.5" stroke-linecap="round" stroke-linejoin="round"/>
<path id="Shape_39" d="M19.1667 37.2C19.1667 36.9791 19.3532 36.8 19.5833 36.8" stroke="#A1A3F6" stroke-width="1.5" stroke-linecap="round" stroke-linejoin="round"/>
<path id="Shape_40" d="M19.5833 37.6C19.3532 37.6 19.1667 37.4209 19.1667 37.2" stroke="#A1A3F6" stroke-width="1.5" stroke-linecap="round" stroke-linejoin="round"/>
</g>
</svg>
