<svg width="40" height="40" viewBox="0 0 40 40" fill="none" xmlns="http://www.w3.org/2000/svg">
<g id="icon / running">
<path id="Oval" fill-rule="evenodd" clip-rule="evenodd" d="M27.2084 9.79168C29.5095 9.79168 31.375 7.9262 31.375 5.62501C31.375 3.32382 29.5095 1.45834 27.2084 1.45834C24.9072 1.45834 23.0417 3.32382 23.0417 5.62501C23.0417 7.9262 24.9072 9.79168 27.2084 9.79168Z" stroke="#A1A3F6" stroke-width="1.5" stroke-linecap="round" stroke-linejoin="round"/>
<path id="Shape" fill-rule="evenodd" clip-rule="evenodd" d="M33.475 18.855H32.5216C29.2216 18.855 28.7816 17.78 26.8383 15.1117C25.7579 13.6276 24.3483 12.4142 22.72 11.5667L22.6666 11.53C22.585 11.485 22.5 11.445 22.415 11.4083C16.9428 8.74158 10.3404 10.6386 7.11831 15.8033L6.75498 16.385C6.02366 17.5572 6.38109 19.1003 7.55331 19.8317C8.72554 20.563 10.2687 20.2056 11 19.0333L11.3616 18.4517C12.6178 16.4289 14.8323 15.2015 17.2133 15.2083C17.39 15.2083 17.5666 15.2083 17.7416 15.23L12.9083 23.9233C12.4669 24.7171 11.6298 25.209 10.7216 25.2083H5.33331C3.9526 25.2083 2.83331 26.3276 2.83331 27.7083C2.83331 29.089 3.9526 30.2083 5.33331 30.2083H10.7233C13.0382 30.2073 15.2232 29.1384 16.645 27.3117L20.3333 30.585C20.8653 31.0608 21.1685 31.7413 21.1666 32.455V36.0417C21.1666 37.4224 22.2859 38.5417 23.6666 38.5417C25.0474 38.5417 26.1666 37.4224 26.1666 36.0417V32.455C26.1667 30.3122 25.2502 28.2716 23.6483 26.8483L19.2016 22.895L22.255 17.395C22.4479 17.6018 22.6282 17.8199 22.795 18.0483C25.6766 22.0083 27.6283 23.85 32.5216 23.85H33.475C34.8557 23.85 35.975 22.7307 35.975 21.35C35.975 19.9693 34.8557 18.85 33.475 18.85V18.855Z" stroke="#A1A3F6" stroke-width="1.5" stroke-linecap="round" stroke-linejoin="round"/>
</g>
</svg>
