<svg width="69" height="17" viewBox="0 0 69 17" fill="none" xmlns="http://www.w3.org/2000/svg">
<path id="Socials" d="M10.22 12.04C10.22 13.3067 9.76 14.32 8.84 15.08C7.93333 15.8267 6.64 16.2 4.96 16.2C3.45333 16.2 2.10667 15.9133 0.92 15.34V12.52C1.6 12.8133 2.3 13.0867 3.02 13.34C3.75333 13.58 4.48 13.7 5.2 13.7C5.94667 13.7 6.47333 13.56 6.78 13.28C7.1 12.9867 7.26 12.62 7.26 12.18C7.26 11.82 7.13333 11.5133 6.88 11.26C6.64 11.0067 6.31333 10.7733 5.9 10.56C5.48667 10.3333 5.01333 10.0933 4.48 9.84C4.14667 9.68 3.78667 9.49333 3.4 9.28C3.01333 9.05333 2.64 8.78 2.28 8.46C1.93333 8.12667 1.64667 7.72667 1.42 7.26C1.19333 6.79333 1.08 6.23333 1.08 5.58C1.08 4.3 1.51333 3.30667 2.38 2.6C3.24667 1.88 4.42667 1.52 5.92 1.52C6.66667 1.52 7.37333 1.60667 8.04 1.78C8.72 1.95333 9.42667 2.2 10.16 2.52L9.18 4.88C8.52667 4.61333 7.94 4.40667 7.42 4.26C6.9 4.11333 6.36667 4.04 5.82 4.04C5.24667 4.04 4.80667 4.17333 4.5 4.44C4.19333 4.70667 4.04 5.05333 4.04 5.48C4.04 5.98667 4.26667 6.38667 4.72 6.68C5.17333 6.97333 5.84667 7.33333 6.74 7.76C7.47333 8.10667 8.09333 8.46667 8.6 8.84C9.12 9.21333 9.52 9.65333 9.8 10.16C10.08 10.6667 10.22 11.2933 10.22 12.04ZM22.7356 10.52C22.7356 12.3333 22.2556 13.7333 21.2956 14.72C20.349 15.7067 19.0556 16.2 17.4156 16.2C16.4023 16.2 15.4956 15.98 14.6956 15.54C13.909 15.1 13.289 14.46 12.8356 13.62C12.3823 12.7667 12.1556 11.7333 12.1556 10.52C12.1556 8.70667 12.629 7.31333 13.5756 6.34C14.5223 5.36667 15.8223 4.88 17.4756 4.88C18.5023 4.88 19.409 5.1 20.1956 5.54C20.9823 5.98 21.6023 6.62 22.0556 7.46C22.509 8.28667 22.7356 9.30667 22.7356 10.52ZM15.1956 10.52C15.1956 11.6 15.369 12.42 15.7156 12.98C16.0756 13.5267 16.6556 13.8 17.4556 13.8C18.2423 13.8 18.809 13.5267 19.1556 12.98C19.5156 12.42 19.6956 11.6 19.6956 10.52C19.6956 9.44 19.5156 8.63333 19.1556 8.1C18.809 7.55333 18.2356 7.28 17.4356 7.28C16.649 7.28 16.0756 7.55333 15.7156 8.1C15.369 8.63333 15.1956 9.44 15.1956 10.52ZM29.8784 16.2C28.2518 16.2 26.9918 15.7533 26.0984 14.86C25.2184 13.9533 24.7784 12.5333 24.7784 10.6C24.7784 9.26667 25.0051 8.18 25.4584 7.34C25.9118 6.5 26.5384 5.88 27.3384 5.48C28.1518 5.08 29.0851 4.88 30.1384 4.88C30.8851 4.88 31.5318 4.95333 32.0784 5.1C32.6384 5.24667 33.1251 5.42 33.5384 5.62L32.6584 7.92C32.1918 7.73333 31.7518 7.58 31.3384 7.46C30.9384 7.34 30.5384 7.28 30.1384 7.28C28.5918 7.28 27.8184 8.38 27.8184 10.58C27.8184 11.6733 28.0184 12.48 28.4184 13C28.8318 13.52 29.4051 13.78 30.1384 13.78C30.7651 13.78 31.3184 13.7 31.7984 13.54C32.2784 13.3667 32.7451 13.1333 33.1984 12.84V15.38C32.7451 15.6733 32.2651 15.88 31.7584 16C31.2651 16.1333 30.6384 16.2 29.8784 16.2ZM37.4519 0.799999C37.8919 0.799999 38.2719 0.906666 38.5919 1.12C38.9119 1.32 39.0719 1.7 39.0719 2.26C39.0719 2.80667 38.9119 3.18667 38.5919 3.4C38.2719 3.61333 37.8919 3.72 37.4519 3.72C36.9985 3.72 36.6119 3.61333 36.2919 3.4C35.9852 3.18667 35.8319 2.80667 35.8319 2.26C35.8319 1.7 35.9852 1.32 36.2919 1.12C36.6119 0.906666 36.9985 0.799999 37.4519 0.799999ZM38.9319 5.08V16H35.9519V5.08H38.9319ZM46.7656 4.86C48.2323 4.86 49.3523 5.18 50.1256 5.82C50.9123 6.44667 51.3056 7.41333 51.3056 8.72V16H49.2256L48.6456 14.52H48.5656C48.099 15.1067 47.6056 15.5333 47.0856 15.8C46.5656 16.0667 45.8523 16.2 44.9456 16.2C43.9723 16.2 43.1656 15.92 42.5256 15.36C41.8856 14.7867 41.5656 13.9133 41.5656 12.74C41.5656 11.58 41.9723 10.7267 42.7856 10.18C43.599 9.62 44.819 9.31333 46.4456 9.26L48.3456 9.2V8.72C48.3456 8.14667 48.1923 7.72667 47.8856 7.46C47.5923 7.19333 47.179 7.06 46.6456 7.06C46.1123 7.06 45.5923 7.14 45.0856 7.3C44.579 7.44667 44.0723 7.63333 43.5656 7.86L42.5856 5.84C43.1723 5.53333 43.819 5.29333 44.5256 5.12C45.2456 4.94667 45.9923 4.86 46.7656 4.86ZM47.1856 10.98C46.2256 11.0067 45.559 11.18 45.1856 11.5C44.8123 11.82 44.6256 12.24 44.6256 12.76C44.6256 13.2133 44.759 13.54 45.0256 13.74C45.2923 13.9267 45.639 14.02 46.0656 14.02C46.7056 14.02 47.2456 13.8333 47.6856 13.46C48.1256 13.0733 48.3456 12.5333 48.3456 11.84V10.94L47.1856 10.98ZM57.5759 16H54.5959V0.799999H57.5759V16ZM68.5497 12.76C68.5497 13.8667 68.1564 14.72 67.3697 15.32C66.5964 15.9067 65.4364 16.2 63.8897 16.2C63.1297 16.2 62.4764 16.1467 61.9297 16.04C61.383 15.9467 60.8364 15.7867 60.2897 15.56V13.1C60.8764 13.3667 61.5097 13.5867 62.1897 13.76C62.8697 13.9333 63.4697 14.02 63.9897 14.02C64.5764 14.02 64.9897 13.9333 65.2297 13.76C65.483 13.5867 65.6097 13.36 65.6097 13.08C65.6097 12.8933 65.5564 12.7267 65.4497 12.58C65.3564 12.4333 65.143 12.2667 64.8097 12.08C64.4764 11.8933 63.9564 11.6533 63.2497 11.36C62.5697 11.0667 62.0097 10.78 61.5697 10.5C61.1297 10.2067 60.803 9.86 60.5897 9.46C60.3764 9.04667 60.2697 8.53333 60.2697 7.92C60.2697 6.90667 60.663 6.14667 61.4497 5.64C62.2364 5.13333 63.283 4.88 64.5897 4.88C65.2697 4.88 65.9164 4.94667 66.5297 5.08C67.143 5.21333 67.7764 5.43333 68.4297 5.74L67.5297 7.88C66.9964 7.65333 66.4897 7.46667 66.0097 7.32C65.5297 7.16 65.043 7.08 64.5497 7.08C63.6697 7.08 63.2297 7.32 63.2297 7.8C63.2297 7.97333 63.283 8.13333 63.3897 8.28C63.5097 8.41333 63.7297 8.56 64.0497 8.72C64.383 8.88 64.8697 9.09333 65.5097 9.36C66.1364 9.61333 66.6764 9.88 67.1297 10.16C67.583 10.4267 67.9297 10.7667 68.1697 11.18C68.423 11.58 68.5497 12.1067 68.5497 12.76Z" fill="#0F2851"/>
</svg>
