<svg width="32" height="32" viewBox="0 0 32 32" fill="none" xmlns="http://www.w3.org/2000/svg">
<g id="icon / sound">
<path id="Shape" fill-rule="evenodd" clip-rule="evenodd" d="M9.348 12H4.68134C3.57677 12 2.68134 12.8954 2.68134 14V18C2.68134 19.1046 3.57677 20 4.68134 20H9.348L17.544 28.1947C17.7346 28.3847 18.0209 28.4415 18.2696 28.3385C18.5183 28.2356 18.6807 27.9932 18.6813 27.724V4.27599C18.6807 4.00681 18.5183 3.76439 18.2696 3.66146C18.0209 3.55853 17.7346 3.61528 17.544 3.80533L9.348 12Z" stroke="#898D9E" stroke-width="1.5" stroke-linecap="round" stroke-linejoin="round"/>
<path id="Shape_2" d="M25.348 8C27.8487 9.89974 29.3172 12.8595 29.3172 16C29.3172 19.1405 27.8487 22.1003 25.348 24" stroke="#898D9E" stroke-width="1.5" stroke-linecap="round" stroke-linejoin="round"/>
<path id="Shape_3" d="M22.6813 11.3333C26.252 13.9293 26.24 18.08 22.6813 20.6666" stroke="#898D9E" stroke-width="1.5" stroke-linecap="round" stroke-linejoin="round"/>
</g>
</svg>
