<svg width="32" height="34" viewBox="0 0 32 34" fill="none" xmlns="http://www.w3.org/2000/svg">
<g id="icon / steps">
<path id="Oval" fill-rule="evenodd" clip-rule="evenodd" d="M15.6703 7.94844C13.8283 7.94844 12.3351 6.39298 12.3351 4.47422C12.3351 2.55546 13.8283 1 15.6703 1C17.5123 1 19.0056 2.55546 19.0056 4.47422C19.0056 6.39298 17.5123 7.94844 15.6703 7.94844Z" stroke="#585CE5" stroke-width="1.5" stroke-linecap="round" stroke-linejoin="round"/>
<path id="Shape" fill-rule="evenodd" clip-rule="evenodd" d="M5.03599 16.5742C5.99788 11.6116 9.38783 11.0613 13.0019 10.379C14.579 10.0815 16.205 10.4516 17.5192 11.4073L20.8731 13.849C21.475 14.2884 22.2597 14.3486 22.9169 14.0061L23.4506 13.7281C24.4394 13.2135 25.6414 13.6313 26.1355 14.6613C26.6295 15.6913 26.2284 16.9434 25.2396 17.458L24.706 17.736C22.7351 18.763 20.3825 18.5827 18.5771 17.2663L18.3423 17.0953V19.5968L20.5863 21.9342C21.7134 23.1041 22.345 24.6946 22.3406 26.352V30.8783C22.3406 32.0295 21.4447 32.9628 20.3395 32.9628C19.2343 32.9628 18.3383 32.0295 18.3383 30.8783V26.352C18.3399 25.7988 18.129 25.2679 17.7526 24.8776L15.6701 22.7083V24.4718C15.6704 25.9647 15.1579 27.4085 14.2253 28.5422L11.1862 32.2346C10.7267 32.8203 9.99861 33.1007 9.28384 32.9673C8.56907 32.8339 7.97975 32.3077 7.74399 31.5922C7.50822 30.8768 7.66302 30.0845 8.14845 29.5219L11.1862 25.8295C11.4973 25.4514 11.6681 24.9698 11.6678 24.4718V14.8677L10.6992 15.0511C9.89195 15.2023 9.25636 15.8539 9.09833 16.6923L8.96492 17.3872C8.82527 18.1177 8.32205 18.7152 7.64483 18.9545C6.96761 19.1938 6.21927 19.0386 5.6817 18.5474C5.14414 18.0561 4.89901 17.3034 5.03866 16.5728L5.03599 16.5742Z" stroke="#585CE5" stroke-width="1.5" stroke-linecap="round" stroke-linejoin="round"/>
</g>
</svg>
