<svg width="198" height="21" viewBox="0 0 198 21" fill="none" xmlns="http://www.w3.org/2000/svg">
<path id="Supplements forms" d="M10.22 12.04C10.22 13.3067 9.76 14.32 8.84 15.08C7.93333 15.8267 6.64 16.2 4.96 16.2C3.45333 16.2 2.10667 15.9133 0.92 15.34V12.52C1.6 12.8133 2.3 13.0867 3.02 13.34C3.75333 13.58 4.48 13.7 5.2 13.7C5.94667 13.7 6.47333 13.56 6.78 13.28C7.1 12.9867 7.26 12.62 7.26 12.18C7.26 11.82 7.13333 11.5133 6.88 11.26C6.64 11.0067 6.31333 10.7733 5.9 10.56C5.48667 10.3333 5.01333 10.0933 4.48 9.84C4.14667 9.68 3.78667 9.49333 3.4 9.28C3.01333 9.05333 2.64 8.78 2.28 8.46C1.93333 8.12667 1.64667 7.72667 1.42 7.26C1.19333 6.79333 1.08 6.23333 1.08 5.58C1.08 4.3 1.51333 3.30667 2.38 2.6C3.24667 1.88 4.42667 1.52 5.92 1.52C6.66667 1.52 7.37333 1.60667 8.04 1.78C8.72 1.95333 9.42667 2.2 10.16 2.52L9.18 4.88C8.52667 4.61333 7.94 4.40667 7.42 4.26C6.9 4.11333 6.36667 4.04 5.82 4.04C5.24667 4.04 4.80667 4.17333 4.5 4.44C4.19333 4.70667 4.04 5.05333 4.04 5.48C4.04 5.98667 4.26667 6.38667 4.72 6.68C5.17333 6.97333 5.84667 7.33333 6.74 7.76C7.47333 8.10667 8.09333 8.46667 8.6 8.84C9.12 9.21333 9.52 9.65333 9.8 10.16C10.08 10.6667 10.22 11.2933 10.22 12.04ZM22.8356 5.08V16H20.5556L20.1556 14.6H19.9956C19.649 15.16 19.169 15.5667 18.5556 15.82C17.9556 16.0733 17.3156 16.2 16.6356 16.2C15.4623 16.2 14.5223 15.8867 13.8156 15.26C13.109 14.62 12.7556 13.6 12.7556 12.2V5.08H15.7356V11.46C15.7356 12.2333 15.8756 12.82 16.1556 13.22C16.4356 13.62 16.8823 13.82 17.4956 13.82C18.4023 13.82 19.0223 13.5133 19.3556 12.9C19.689 12.2733 19.8556 11.38 19.8556 10.22V5.08H22.8356ZM32.2802 4.88C33.5068 4.88 34.5002 5.36 35.2602 6.32C36.0202 7.26667 36.4002 8.66667 36.4002 10.52C36.4002 12.3733 36.0068 13.7867 35.2202 14.76C34.4335 15.72 33.4268 16.2 32.2002 16.2C31.4135 16.2 30.7868 16.06 30.3202 15.78C29.8535 15.4867 29.4735 15.16 29.1802 14.8H29.0202C29.1268 15.36 29.1802 15.8933 29.1802 16.4V20.8H26.2002V5.08H28.6202L29.0402 6.5H29.1802C29.4735 6.06 29.8668 5.68 30.3602 5.36C30.8535 5.04 31.4935 4.88 32.2802 4.88ZM31.3202 7.26C30.5468 7.26 30.0002 7.5 29.6802 7.98C29.3735 8.46 29.2068 9.19333 29.1802 10.18V10.5C29.1802 11.5533 29.3335 12.3667 29.6402 12.94C29.9602 13.5 30.5335 13.78 31.3602 13.78C32.0402 13.78 32.5402 13.5 32.8602 12.94C33.1935 12.3667 33.3602 11.5467 33.3602 10.48C33.3602 8.33333 32.6802 7.26 31.3202 7.26ZM45.1764 4.88C46.4031 4.88 47.3964 5.36 48.1564 6.32C48.9164 7.26667 49.2964 8.66667 49.2964 10.52C49.2964 12.3733 48.9031 13.7867 48.1164 14.76C47.3297 15.72 46.3231 16.2 45.0964 16.2C44.3097 16.2 43.6831 16.06 43.2164 15.78C42.7497 15.4867 42.3697 15.16 42.0764 14.8H41.9164C42.0231 15.36 42.0764 15.8933 42.0764 16.4V20.8H39.0964V5.08H41.5164L41.9364 6.5H42.0764C42.3697 6.06 42.7631 5.68 43.2564 5.36C43.7497 5.04 44.3897 4.88 45.1764 4.88ZM44.2164 7.26C43.4431 7.26 42.8964 7.5 42.5764 7.98C42.2697 8.46 42.1031 9.19333 42.0764 10.18V10.5C42.0764 11.5533 42.2297 12.3667 42.5364 12.94C42.8564 13.5 43.4297 13.78 44.2564 13.78C44.9364 13.78 45.4364 13.5 45.7564 12.94C46.0897 12.3667 46.2564 11.5467 46.2564 10.48C46.2564 8.33333 45.5764 7.26 44.2164 7.26ZM54.9727 16H51.9927V0.799999H54.9727V16ZM62.8264 4.88C64.3331 4.88 65.5264 5.31333 66.4064 6.18C67.2864 7.03333 67.7264 8.25333 67.7264 9.84V11.28H60.6864C60.7131 12.12 60.9597 12.78 61.4264 13.26C61.9064 13.74 62.5664 13.98 63.4064 13.98C64.1131 13.98 64.7531 13.9133 65.3264 13.78C65.8997 13.6333 66.4931 13.4133 67.1064 13.12V15.42C66.5731 15.6867 66.0064 15.88 65.4064 16C64.8197 16.1333 64.1064 16.2 63.2664 16.2C62.1731 16.2 61.2064 16 60.3664 15.6C59.5264 15.1867 58.8664 14.5667 58.3864 13.74C57.9064 12.9133 57.6664 11.8733 57.6664 10.62C57.6664 9.34 57.8797 8.28 58.3064 7.44C58.7464 6.58667 59.3531 5.94667 60.1264 5.52C60.8997 5.09333 61.7997 4.88 62.8264 4.88ZM62.8464 7C62.2731 7 61.7931 7.18667 61.4064 7.56C61.0331 7.93333 60.8131 8.51333 60.7464 9.3H64.9264C64.9131 8.63333 64.7397 8.08667 64.4064 7.66C64.0731 7.22 63.5531 7 62.8464 7ZM83.2028 4.88C84.4428 4.88 85.3761 5.2 86.0028 5.84C86.6428 6.46667 86.9628 7.48 86.9628 8.88V16H83.9828V9.62C83.9828 8.04667 83.4361 7.26 82.3428 7.26C81.5561 7.26 80.9961 7.54 80.6628 8.1C80.3295 8.66 80.1628 9.46667 80.1628 10.52V16H77.1828V9.62C77.1828 8.04667 76.6361 7.26 75.5428 7.26C74.7161 7.26 74.1428 7.57333 73.8228 8.2C73.5161 8.81333 73.3628 9.7 73.3628 10.86V16H70.3828V5.08H72.6628L73.0628 6.48H73.2228C73.5561 5.92 74.0095 5.51333 74.5828 5.26C75.1695 5.00667 75.7761 4.88 76.4028 4.88C77.2028 4.88 77.8828 5.01333 78.4428 5.28C79.0028 5.53333 79.4295 5.93333 79.7228 6.48H79.9828C80.3161 5.92 80.7761 5.51333 81.3628 5.26C81.9628 5.00667 82.5761 4.88 83.2028 4.88ZM94.7713 4.88C96.2779 4.88 97.4713 5.31333 98.3513 6.18C99.2313 7.03333 99.6713 8.25333 99.6713 9.84V11.28H92.6313C92.6579 12.12 92.9046 12.78 93.3713 13.26C93.8513 13.74 94.5113 13.98 95.3513 13.98C96.0579 13.98 96.6979 13.9133 97.2713 13.78C97.8446 13.6333 98.4379 13.4133 99.0513 13.12V15.42C98.5179 15.6867 97.9513 15.88 97.3513 16C96.7646 16.1333 96.0513 16.2 95.2113 16.2C94.1179 16.2 93.1513 16 92.3113 15.6C91.4713 15.1867 90.8113 14.5667 90.3313 13.74C89.8513 12.9133 89.6113 11.8733 89.6113 10.62C89.6113 9.34 89.8246 8.28 90.2513 7.44C90.6913 6.58667 91.2979 5.94667 92.0713 5.52C92.8446 5.09333 93.7446 4.88 94.7713 4.88ZM94.7913 7C94.2179 7 93.7379 7.18667 93.3513 7.56C92.9779 7.93333 92.7579 8.51333 92.6913 9.3H96.8713C96.8579 8.63333 96.6846 8.08667 96.3513 7.66C96.0179 7.22 95.4979 7 94.7913 7ZM108.528 4.88C109.701 4.88 110.641 5.2 111.348 5.84C112.054 6.46667 112.408 7.48 112.408 8.88V16H109.428V9.62C109.428 8.83333 109.288 8.24667 109.008 7.86C108.728 7.46 108.281 7.26 107.668 7.26C106.761 7.26 106.141 7.57333 105.808 8.2C105.474 8.81333 105.308 9.7 105.308 10.86V16H102.328V5.08H104.608L105.008 6.48H105.168C105.514 5.92 105.988 5.51333 106.588 5.26C107.201 5.00667 107.848 4.88 108.528 4.88ZM120.312 13.82C120.646 13.82 120.966 13.7867 121.272 13.72C121.579 13.6533 121.886 13.5733 122.192 13.48V15.7C121.872 15.8333 121.472 15.9467 120.992 16.04C120.526 16.1467 120.012 16.2 119.452 16.2C118.799 16.2 118.212 16.0933 117.692 15.88C117.186 15.6667 116.779 15.3 116.472 14.78C116.179 14.2467 116.032 13.5133 116.032 12.58V7.32H114.612V6.06L116.252 5.06L117.112 2.76H119.012V5.08H122.072V7.32H119.012V12.58C119.012 12.9933 119.132 13.3067 119.372 13.52C119.612 13.72 119.926 13.82 120.312 13.82ZM132.244 12.76C132.244 13.8667 131.851 14.72 131.064 15.32C130.291 15.9067 129.131 16.2 127.584 16.2C126.824 16.2 126.171 16.1467 125.624 16.04C125.077 15.9467 124.531 15.7867 123.984 15.56V13.1C124.571 13.3667 125.204 13.5867 125.884 13.76C126.564 13.9333 127.164 14.02 127.684 14.02C128.271 14.02 128.684 13.9333 128.924 13.76C129.177 13.5867 129.304 13.36 129.304 13.08C129.304 12.8933 129.251 12.7267 129.144 12.58C129.051 12.4333 128.837 12.2667 128.504 12.08C128.171 11.8933 127.651 11.6533 126.944 11.36C126.264 11.0667 125.704 10.78 125.264 10.5C124.824 10.2067 124.497 9.86 124.284 9.46C124.071 9.04667 123.964 8.53333 123.964 7.92C123.964 6.90667 124.357 6.14667 125.144 5.64C125.931 5.13333 126.977 4.88 128.284 4.88C128.964 4.88 129.611 4.94667 130.224 5.08C130.837 5.21333 131.471 5.43333 132.124 5.74L131.224 7.88C130.691 7.65333 130.184 7.46667 129.704 7.32C129.224 7.16 128.737 7.08 128.244 7.08C127.364 7.08 126.924 7.32 126.924 7.8C126.924 7.97333 126.977 8.13333 127.084 8.28C127.204 8.41333 127.424 8.56 127.744 8.72C128.077 8.88 128.564 9.09333 129.204 9.36C129.831 9.61333 130.371 9.88 130.824 10.16C131.277 10.4267 131.624 10.7667 131.864 11.18C132.117 11.58 132.244 12.1067 132.244 12.76ZM146.281 7.32H143.701V16H140.721V7.32H139.081V5.88L140.721 5.08V4.28C140.721 3.34667 140.874 2.62667 141.181 2.12C141.501 1.6 141.947 1.23333 142.521 1.02C143.107 0.806666 143.794 0.699999 144.581 0.699999C145.167 0.699999 145.694 0.746666 146.161 0.84C146.641 0.933333 147.027 1.04 147.321 1.16L146.561 3.34C146.334 3.27333 146.087 3.21333 145.821 3.16C145.554 3.09333 145.247 3.06 144.901 3.06C144.487 3.06 144.181 3.18667 143.981 3.44C143.794 3.69333 143.701 4.01333 143.701 4.4V5.08H146.281V7.32ZM158.135 10.52C158.135 12.3333 157.655 13.7333 156.695 14.72C155.748 15.7067 154.455 16.2 152.815 16.2C151.802 16.2 150.895 15.98 150.095 15.54C149.308 15.1 148.688 14.46 148.235 13.62C147.782 12.7667 147.555 11.7333 147.555 10.52C147.555 8.70667 148.028 7.31333 148.975 6.34C149.922 5.36667 151.222 4.88 152.875 4.88C153.902 4.88 154.808 5.1 155.595 5.54C156.382 5.98 157.002 6.62 157.455 7.46C157.908 8.28667 158.135 9.30667 158.135 10.52ZM150.595 10.52C150.595 11.6 150.768 12.42 151.115 12.98C151.475 13.5267 152.055 13.8 152.855 13.8C153.642 13.8 154.208 13.5267 154.555 12.98C154.915 12.42 155.095 11.6 155.095 10.52C155.095 9.44 154.915 8.63333 154.555 8.1C154.208 7.55333 153.635 7.28 152.835 7.28C152.048 7.28 151.475 7.55333 151.115 8.1C150.768 8.63333 150.595 9.44 150.595 10.52ZM166.938 4.88C167.085 4.88 167.258 4.88667 167.458 4.9C167.658 4.91333 167.818 4.93333 167.938 4.96L167.718 7.76C167.625 7.73333 167.485 7.71333 167.298 7.7C167.125 7.67333 166.971 7.66 166.838 7.66C166.331 7.66 165.845 7.75333 165.378 7.94C164.911 8.11333 164.531 8.4 164.238 8.8C163.958 9.2 163.818 9.74667 163.818 10.44V16H160.838V5.08H163.098L163.538 6.92H163.678C163.998 6.36 164.438 5.88 164.998 5.48C165.558 5.08 166.205 4.88 166.938 4.88ZM182.98 4.88C184.22 4.88 185.153 5.2 185.78 5.84C186.42 6.46667 186.74 7.48 186.74 8.88V16H183.76V9.62C183.76 8.04667 183.213 7.26 182.12 7.26C181.333 7.26 180.773 7.54 180.44 8.1C180.107 8.66 179.94 9.46667 179.94 10.52V16H176.96V9.62C176.96 8.04667 176.413 7.26 175.32 7.26C174.493 7.26 173.92 7.57333 173.6 8.2C173.293 8.81333 173.14 9.7 173.14 10.86V16H170.16V5.08H172.44L172.84 6.48H173C173.333 5.92 173.787 5.51333 174.36 5.26C174.947 5.00667 175.553 4.88 176.18 4.88C176.98 4.88 177.66 5.01333 178.22 5.28C178.78 5.53333 179.207 5.93333 179.5 6.48H179.76C180.093 5.92 180.553 5.51333 181.14 5.26C181.74 5.00667 182.353 4.88 182.98 4.88ZM197.668 12.76C197.668 13.8667 197.275 14.72 196.488 15.32C195.715 15.9067 194.555 16.2 193.008 16.2C192.248 16.2 191.595 16.1467 191.048 16.04C190.502 15.9467 189.955 15.7867 189.408 15.56V13.1C189.995 13.3667 190.628 13.5867 191.308 13.76C191.988 13.9333 192.588 14.02 193.108 14.02C193.695 14.02 194.108 13.9333 194.348 13.76C194.602 13.5867 194.728 13.36 194.728 13.08C194.728 12.8933 194.675 12.7267 194.568 12.58C194.475 12.4333 194.262 12.2667 193.928 12.08C193.595 11.8933 193.075 11.6533 192.368 11.36C191.688 11.0667 191.128 10.78 190.688 10.5C190.248 10.2067 189.922 9.86 189.708 9.46C189.495 9.04667 189.388 8.53333 189.388 7.92C189.388 6.90667 189.782 6.14667 190.568 5.64C191.355 5.13333 192.402 4.88 193.708 4.88C194.388 4.88 195.035 4.94667 195.648 5.08C196.262 5.21333 196.895 5.43333 197.548 5.74L196.648 7.88C196.115 7.65333 195.608 7.46667 195.128 7.32C194.648 7.16 194.162 7.08 193.668 7.08C192.788 7.08 192.348 7.32 192.348 7.8C192.348 7.97333 192.402 8.13333 192.508 8.28C192.628 8.41333 192.848 8.56 193.168 8.72C193.502 8.88 193.988 9.09333 194.628 9.36C195.255 9.61333 195.795 9.88 196.248 10.16C196.702 10.4267 197.048 10.7667 197.288 11.18C197.542 11.58 197.668 12.1067 197.668 12.76Z" fill="#0F2851"/>
</svg>
