<svg width="67" height="17" viewBox="0 0 67 17" fill="none" xmlns="http://www.w3.org/2000/svg">
<path id="Switch" d="M10.22 12.04C10.22 13.3067 9.76 14.32 8.84 15.08C7.93333 15.8267 6.64 16.2 4.96 16.2C3.45333 16.2 2.10667 15.9133 0.92 15.34V12.52C1.6 12.8133 2.3 13.0867 3.02 13.34C3.75333 13.58 4.48 13.7 5.2 13.7C5.94667 13.7 6.47333 13.56 6.78 13.28C7.1 12.9867 7.26 12.62 7.26 12.18C7.26 11.82 7.13333 11.5133 6.88 11.26C6.64 11.0067 6.31333 10.7733 5.9 10.56C5.48667 10.3333 5.01333 10.0933 4.48 9.84C4.14667 9.68 3.78667 9.49333 3.4 9.28C3.01333 9.05333 2.64 8.78 2.28 8.46C1.93333 8.12667 1.64667 7.72667 1.42 7.26C1.19333 6.79333 1.08 6.23333 1.08 5.58C1.08 4.3 1.51333 3.30667 2.38 2.6C3.24667 1.88 4.42667 1.52 5.92 1.52C6.66667 1.52 7.37333 1.60667 8.04 1.78C8.72 1.95333 9.42667 2.2 10.16 2.52L9.18 4.88C8.52667 4.61333 7.94 4.40667 7.42 4.26C6.9 4.11333 6.36667 4.04 5.82 4.04C5.24667 4.04 4.80667 4.17333 4.5 4.44C4.19333 4.70667 4.04 5.05333 4.04 5.48C4.04 5.98667 4.26667 6.38667 4.72 6.68C5.17333 6.97333 5.84667 7.33333 6.74 7.76C7.47333 8.10667 8.09333 8.46667 8.6 8.84C9.12 9.21333 9.52 9.65333 9.8 10.16C10.08 10.6667 10.22 11.2933 10.22 12.04ZM20.9556 12.18C20.9023 11.9533 20.8223 11.62 20.7156 11.18C20.6223 10.7267 20.5156 10.2467 20.3956 9.74C20.2756 9.22 20.1623 8.74667 20.0556 8.32C19.949 7.88 19.8756 7.56 19.8356 7.36H19.7556C19.7156 7.56 19.6423 7.88 19.5356 8.32C19.4423 8.74667 19.3356 9.22 19.2156 9.74C19.0956 10.2467 18.9823 10.7267 18.8756 11.18C18.769 11.6333 18.689 11.98 18.6356 12.22L17.7556 16H14.5556L11.4556 5.08H14.4156L15.6756 9.92C15.769 10.2533 15.849 10.6533 15.9156 11.12C15.9956 11.5867 16.069 12.04 16.1356 12.48C16.2023 12.9067 16.249 13.2467 16.2756 13.5H16.3556C16.369 13.3133 16.3956 13.0667 16.4356 12.76C16.4756 12.44 16.5223 12.1133 16.5756 11.78C16.6423 11.4467 16.6956 11.1467 16.7356 10.88C16.789 10.6 16.829 10.4133 16.8556 10.32L18.1956 5.08H21.4756L22.7556 10.32C22.809 10.5067 22.869 10.8067 22.9356 11.22C23.0156 11.6333 23.0823 12.0533 23.1356 12.48C23.2023 12.9067 23.2356 13.2467 23.2356 13.5H23.3156C23.3423 13.2733 23.389 12.9467 23.4556 12.52C23.5223 12.08 23.5956 11.62 23.6756 11.14C23.769 10.66 23.8623 10.2533 23.9556 9.92L25.2556 5.08H28.1756L25.0356 16H21.7956L20.9556 12.18ZM31.6845 0.799999C32.1245 0.799999 32.5045 0.906666 32.8245 1.12C33.1445 1.32 33.3045 1.7 33.3045 2.26C33.3045 2.80667 33.1445 3.18667 32.8245 3.4C32.5045 3.61333 32.1245 3.72 31.6845 3.72C31.2312 3.72 30.8445 3.61333 30.5245 3.4C30.2179 3.18667 30.0645 2.80667 30.0645 2.26C30.0645 1.7 30.2179 1.32 30.5245 1.12C30.8445 0.906666 31.2312 0.799999 31.6845 0.799999ZM33.1645 5.08V16H30.1845V5.08H33.1645ZM41.1183 13.82C41.4516 13.82 41.7716 13.7867 42.0783 13.72C42.3849 13.6533 42.6916 13.5733 42.9983 13.48V15.7C42.6783 15.8333 42.2783 15.9467 41.7983 16.04C41.3316 16.1467 40.8183 16.2 40.2583 16.2C39.6049 16.2 39.0183 16.0933 38.4983 15.88C37.9916 15.6667 37.5849 15.3 37.2783 14.78C36.9849 14.2467 36.8383 13.5133 36.8383 12.58V7.32H35.4183V6.06L37.0583 5.06L37.9183 2.76H39.8183V5.08H42.8783V7.32H39.8183V12.58C39.8183 12.9933 39.9383 13.3067 40.1783 13.52C40.4183 13.72 40.7316 13.82 41.1183 13.82ZM49.8702 16.2C48.2435 16.2 46.9835 15.7533 46.0902 14.86C45.2102 13.9533 44.7702 12.5333 44.7702 10.6C44.7702 9.26667 44.9968 8.18 45.4502 7.34C45.9035 6.5 46.5302 5.88 47.3302 5.48C48.1435 5.08 49.0768 4.88 50.1302 4.88C50.8768 4.88 51.5235 4.95333 52.0702 5.1C52.6302 5.24667 53.1168 5.42 53.5302 5.62L52.6502 7.92C52.1835 7.73333 51.7435 7.58 51.3302 7.46C50.9302 7.34 50.5302 7.28 50.1302 7.28C48.5835 7.28 47.8102 8.38 47.8102 10.58C47.8102 11.6733 48.0102 12.48 48.4102 13C48.8235 13.52 49.3968 13.78 50.1302 13.78C50.7568 13.78 51.3102 13.7 51.7902 13.54C52.2702 13.3667 52.7368 13.1333 53.1902 12.84V15.38C52.7368 15.6733 52.2568 15.88 51.7502 16C51.2568 16.1333 50.6302 16.2 49.8702 16.2ZM58.9236 3.9C58.9236 4.43333 58.9036 4.94667 58.8636 5.44C58.8369 5.93333 58.8103 6.28 58.7836 6.48H58.9436C59.2903 5.92 59.7369 5.51333 60.2836 5.26C60.8303 5.00667 61.4369 4.88 62.1036 4.88C63.2903 4.88 64.2369 5.2 64.9436 5.84C65.6636 6.46667 66.0236 7.48 66.0236 8.88V16H63.0436V9.62C63.0436 8.04667 62.4569 7.26 61.2836 7.26C60.3903 7.26 59.7703 7.57333 59.4236 8.2C59.0903 8.81333 58.9236 9.7 58.9236 10.86V16H55.9436V0.799999H58.9236V3.9Z" fill="#0F2851"/>
</svg>
