<svg width="32" height="32" viewBox="0 0 32 32" fill="none" xmlns="http://www.w3.org/2000/svg">
<g id="icon / temperature">
<path id="Shape" fill-rule="evenodd" clip-rule="evenodd" d="M15.5002 19.418V7.75C15.5002 6.09315 14.157 4.75 12.5002 4.75C10.8433 4.75 9.50019 6.09315 9.50019 7.75V19.418C8.10953 20.6618 7.63067 22.6348 8.29642 24.3778C8.96216 26.1208 10.6344 27.2721 12.5002 27.2721C14.366 27.2721 16.0382 26.1208 16.704 24.3778C17.3697 22.6348 16.8909 20.6618 15.5002 19.418Z" stroke="#585CE5" stroke-width="1.5" stroke-linecap="round" stroke-linejoin="round"/>
<path id="Shape_2" d="M12.5032 14.5V21.25" stroke="#585CE5" stroke-width="1.5" stroke-linecap="round" stroke-linejoin="round"/>
<path id="Oval" fill-rule="evenodd" clip-rule="evenodd" d="M12.5032 24.25C13.3316 24.25 14.0032 23.5784 14.0032 22.75C14.0032 21.9216 13.3316 21.25 12.5032 21.25C11.6748 21.25 11.0032 21.9216 11.0032 22.75C11.0032 23.5784 11.6748 24.25 12.5032 24.25Z" stroke="#585CE5" stroke-width="1.5" stroke-linecap="round" stroke-linejoin="round"/>
<path id="Shape_3" d="M19.2532 7.75H24.5032" stroke="#585CE5" stroke-width="1.5" stroke-linecap="round" stroke-linejoin="round"/>
<path id="Shape_4" d="M19.2532 12.25H21.5032" stroke="#585CE5" stroke-width="1.5" stroke-linecap="round" stroke-linejoin="round"/>
<path id="Shape_5" d="M19.2532 16.75H24.5032" stroke="#585CE5" stroke-width="1.5" stroke-linecap="round" stroke-linejoin="round"/>
</g>
</svg>
