<svg width="228" height="21" viewBox="0 0 228 21" fill="none" xmlns="http://www.w3.org/2000/svg">
<path id="Text links icons (16 px)" d="M7.3 16H4.28V4.24H0.4V1.72H11.18V4.24H7.3V16ZM16.4758 4.88C17.9824 4.88 19.1758 5.31333 20.0558 6.18C20.9358 7.03333 21.3758 8.25333 21.3758 9.84V11.28H14.3358C14.3624 12.12 14.6091 12.78 15.0758 13.26C15.5558 13.74 16.2158 13.98 17.0558 13.98C17.7624 13.98 18.4024 13.9133 18.9758 13.78C19.5491 13.6333 20.1424 13.4133 20.7558 13.12V15.42C20.2224 15.6867 19.6558 15.88 19.0558 16C18.4691 16.1333 17.7558 16.2 16.9158 16.2C15.8224 16.2 14.8558 16 14.0158 15.6C13.1758 15.1867 12.5158 14.5667 12.0358 13.74C11.5558 12.9133 11.3158 11.8733 11.3158 10.62C11.3158 9.34 11.5291 8.28 11.9558 7.44C12.3958 6.58667 13.0024 5.94667 13.7758 5.52C14.5491 5.09333 15.4491 4.88 16.4758 4.88ZM16.4958 7C15.9224 7 15.4424 7.18667 15.0558 7.56C14.6824 7.93333 14.4624 8.51333 14.3958 9.3H18.5758C18.5624 8.63333 18.3891 8.08667 18.0558 7.66C17.7224 7.22 17.2024 7 16.4958 7ZM25.8816 10.42L22.3616 5.08H25.7416L27.8616 8.56L30.0016 5.08H33.3816L29.8216 10.42L33.5416 16H30.1616L27.8616 12.26L25.5616 16H22.1816L25.8816 10.42ZM40.0441 13.82C40.3774 13.82 40.6974 13.7867 41.0041 13.72C41.3107 13.6533 41.6174 13.5733 41.9241 13.48V15.7C41.6041 15.8333 41.2041 15.9467 40.7241 16.04C40.2574 16.1467 39.7441 16.2 39.1841 16.2C38.5307 16.2 37.9441 16.0933 37.4241 15.88C36.9174 15.6667 36.5107 15.3 36.2041 14.78C35.9107 14.2467 35.7641 13.5133 35.7641 12.58V7.32H34.3441V6.06L35.9841 5.06L36.8441 2.76H38.7441V5.08H41.8041V7.32H38.7441V12.58C38.7441 12.9933 38.8641 13.3067 39.1041 13.52C39.3441 13.72 39.6574 13.82 40.0441 13.82ZM52.7713 16H49.7913V0.799999H52.7713V16ZM57.625 0.799999C58.065 0.799999 58.445 0.906666 58.765 1.12C59.085 1.32 59.245 1.7 59.245 2.26C59.245 2.80667 59.085 3.18667 58.765 3.4C58.445 3.61333 58.065 3.72 57.625 3.72C57.1717 3.72 56.785 3.61333 56.465 3.4C56.1583 3.18667 56.005 2.80667 56.005 2.26C56.005 1.7 56.1583 1.32 56.465 1.12C56.785 0.906666 57.1717 0.799999 57.625 0.799999ZM59.105 5.08V16H56.125V5.08H59.105ZM68.6588 4.88C69.8321 4.88 70.7721 5.2 71.4788 5.84C72.1854 6.46667 72.5388 7.48 72.5388 8.88V16H69.5588V9.62C69.5588 8.83333 69.4188 8.24667 69.1388 7.86C68.8588 7.46 68.4121 7.26 67.7988 7.26C66.8921 7.26 66.2721 7.57333 65.9388 8.2C65.6054 8.81333 65.4388 9.7 65.4388 10.86V16H62.4588V5.08H64.7388L65.1388 6.48H65.2988C65.6454 5.92 66.1188 5.51333 66.7188 5.26C67.3321 5.00667 67.9788 4.88 68.6588 4.88ZM78.8233 7.6C78.8233 8.01333 78.8033 8.42667 78.7633 8.84C78.7366 9.24 78.7033 9.64667 78.6633 10.06H78.7033C78.9033 9.78 79.1099 9.5 79.3233 9.22C79.5366 8.92667 79.7633 8.65333 80.0033 8.4L83.0633 5.08H86.4233L82.0833 9.82L86.6833 16H83.2433L80.1033 11.58L78.8233 12.6V16H75.8433V0.799999H78.8233V7.6ZM96.1056 12.76C96.1056 13.8667 95.7123 14.72 94.9256 15.32C94.1523 15.9067 92.9923 16.2 91.4456 16.2C90.6856 16.2 90.0323 16.1467 89.4856 16.04C88.939 15.9467 88.3923 15.7867 87.8456 15.56V13.1C88.4323 13.3667 89.0656 13.5867 89.7456 13.76C90.4256 13.9333 91.0256 14.02 91.5456 14.02C92.1323 14.02 92.5456 13.9333 92.7856 13.76C93.039 13.5867 93.1656 13.36 93.1656 13.08C93.1656 12.8933 93.1123 12.7267 93.0056 12.58C92.9123 12.4333 92.699 12.2667 92.3656 12.08C92.0323 11.8933 91.5123 11.6533 90.8056 11.36C90.1256 11.0667 89.5656 10.78 89.1256 10.5C88.6856 10.2067 88.359 9.86 88.1456 9.46C87.9323 9.04667 87.8256 8.53333 87.8256 7.92C87.8256 6.90667 88.219 6.14667 89.0056 5.64C89.7923 5.13333 90.839 4.88 92.1456 4.88C92.8256 4.88 93.4723 4.94667 94.0856 5.08C94.699 5.21333 95.3323 5.43333 95.9856 5.74L95.0856 7.88C94.5523 7.65333 94.0456 7.46667 93.5656 7.32C93.0856 7.16 92.599 7.08 92.1056 7.08C91.2256 7.08 90.7856 7.32 90.7856 7.8C90.7856 7.97333 90.839 8.13333 90.9456 8.28C91.0656 8.41333 91.2856 8.56 91.6056 8.72C91.939 8.88 92.4256 9.09333 93.0656 9.36C93.6923 9.61333 94.2323 9.88 94.6856 10.16C95.139 10.4267 95.4856 10.7667 95.7256 11.18C95.979 11.58 96.1056 12.1067 96.1056 12.76ZM105.602 0.799999C106.042 0.799999 106.422 0.906666 106.742 1.12C107.062 1.32 107.222 1.7 107.222 2.26C107.222 2.80667 107.062 3.18667 106.742 3.4C106.422 3.61333 106.042 3.72 105.602 3.72C105.149 3.72 104.762 3.61333 104.442 3.4C104.136 3.18667 103.982 2.80667 103.982 2.26C103.982 1.7 104.136 1.32 104.442 1.12C104.762 0.906666 105.149 0.799999 105.602 0.799999ZM107.082 5.08V16H104.102V5.08H107.082ZM114.876 16.2C113.249 16.2 111.989 15.7533 111.096 14.86C110.216 13.9533 109.776 12.5333 109.776 10.6C109.776 9.26667 110.003 8.18 110.456 7.34C110.909 6.5 111.536 5.88 112.336 5.48C113.149 5.08 114.083 4.88 115.136 4.88C115.883 4.88 116.529 4.95333 117.076 5.1C117.636 5.24667 118.123 5.42 118.536 5.62L117.656 7.92C117.189 7.73333 116.749 7.58 116.336 7.46C115.936 7.34 115.536 7.28 115.136 7.28C113.589 7.28 112.816 8.38 112.816 10.58C112.816 11.6733 113.016 12.48 113.416 13C113.829 13.52 114.403 13.78 115.136 13.78C115.763 13.78 116.316 13.7 116.796 13.54C117.276 13.3667 117.743 13.1333 118.196 12.84V15.38C117.743 15.6733 117.263 15.88 116.756 16C116.263 16.1333 115.636 16.2 114.876 16.2ZM130.87 10.52C130.87 12.3333 130.39 13.7333 129.43 14.72C128.483 15.7067 127.19 16.2 125.55 16.2C124.536 16.2 123.63 15.98 122.83 15.54C122.043 15.1 121.423 14.46 120.97 13.62C120.516 12.7667 120.29 11.7333 120.29 10.52C120.29 8.70667 120.763 7.31333 121.71 6.34C122.656 5.36667 123.956 4.88 125.61 4.88C126.636 4.88 127.543 5.1 128.33 5.54C129.116 5.98 129.736 6.62 130.19 7.46C130.643 8.28667 130.87 9.30667 130.87 10.52ZM123.33 10.52C123.33 11.6 123.503 12.42 123.85 12.98C124.21 13.5267 124.79 13.8 125.59 13.8C126.376 13.8 126.943 13.5267 127.29 12.98C127.65 12.42 127.83 11.6 127.83 10.52C127.83 9.44 127.65 8.63333 127.29 8.1C126.943 7.55333 126.37 7.28 125.57 7.28C124.783 7.28 124.21 7.55333 123.85 8.1C123.503 8.63333 123.33 9.44 123.33 10.52ZM139.772 4.88C140.946 4.88 141.886 5.2 142.592 5.84C143.299 6.46667 143.652 7.48 143.652 8.88V16H140.672V9.62C140.672 8.83333 140.532 8.24667 140.252 7.86C139.972 7.46 139.526 7.26 138.912 7.26C138.006 7.26 137.386 7.57333 137.052 8.2C136.719 8.81333 136.552 9.7 136.552 10.86V16H133.572V5.08H135.852L136.252 6.48H136.412C136.759 5.92 137.232 5.51333 137.832 5.26C138.446 5.00667 139.092 4.88 139.772 4.88ZM154.577 12.76C154.577 13.8667 154.184 14.72 153.397 15.32C152.624 15.9067 151.464 16.2 149.917 16.2C149.157 16.2 148.504 16.1467 147.957 16.04C147.41 15.9467 146.864 15.7867 146.317 15.56V13.1C146.904 13.3667 147.537 13.5867 148.217 13.76C148.897 13.9333 149.497 14.02 150.017 14.02C150.604 14.02 151.017 13.9333 151.257 13.76C151.51 13.5867 151.637 13.36 151.637 13.08C151.637 12.8933 151.584 12.7267 151.477 12.58C151.384 12.4333 151.17 12.2667 150.837 12.08C150.504 11.8933 149.984 11.6533 149.277 11.36C148.597 11.0667 148.037 10.78 147.597 10.5C147.157 10.2067 146.83 9.86 146.617 9.46C146.404 9.04667 146.297 8.53333 146.297 7.92C146.297 6.90667 146.69 6.14667 147.477 5.64C148.264 5.13333 149.31 4.88 150.617 4.88C151.297 4.88 151.944 4.94667 152.557 5.08C153.17 5.21333 153.804 5.43333 154.457 5.74L153.557 7.88C153.024 7.65333 152.517 7.46667 152.037 7.32C151.557 7.16 151.07 7.08 150.577 7.08C149.697 7.08 149.257 7.32 149.257 7.8C149.257 7.97333 149.31 8.13333 149.417 8.28C149.537 8.41333 149.757 8.56 150.077 8.72C150.41 8.88 150.897 9.09333 151.537 9.36C152.164 9.61333 152.704 9.88 153.157 10.16C153.61 10.4267 153.957 10.7667 154.197 11.18C154.45 11.58 154.577 12.1067 154.577 12.76ZM161.814 10.52C161.814 8.89333 162.047 7.32667 162.514 5.82C162.994 4.3 163.74 2.93333 164.754 1.72H167.194C166.287 2.97333 165.594 4.35333 165.114 5.86C164.647 7.36667 164.414 8.91333 164.414 10.5C164.414 12.0467 164.647 13.5733 165.114 15.08C165.594 16.5733 166.28 17.9333 167.174 19.16H164.754C163.74 17.9867 162.994 16.66 162.514 15.18C162.047 13.6867 161.814 12.1333 161.814 10.52ZM176.291 16H173.271V7.74C173.271 7.39333 173.278 6.94 173.291 6.38C173.318 5.82 173.338 5.32667 173.351 4.9C173.284 4.98 173.138 5.12667 172.911 5.34C172.698 5.54 172.498 5.72 172.311 5.88L170.671 7.2L169.211 5.38L173.811 1.72H176.291V16ZM180.416 9.94C180.416 9.11333 180.476 8.3 180.596 7.5C180.716 6.7 180.923 5.94667 181.216 5.24C181.523 4.52 181.943 3.88667 182.476 3.34C183.023 2.78 183.71 2.34667 184.536 2.04C185.376 1.72 186.39 1.56 187.576 1.56C187.856 1.56 188.183 1.57333 188.556 1.6C188.93 1.61333 189.243 1.64667 189.496 1.7V4.12C189.243 4.05333 188.963 4.00667 188.656 3.98C188.363 3.94 188.07 3.92 187.776 3.92C186.59 3.92 185.67 4.10667 185.016 4.48C184.376 4.85333 183.923 5.38 183.656 6.06C183.39 6.72667 183.236 7.5 183.196 8.38H183.316C183.583 7.91333 183.963 7.52 184.456 7.2C184.963 6.88 185.616 6.72 186.416 6.72C187.67 6.72 188.663 7.11333 189.396 7.9C190.13 8.68667 190.496 9.8 190.496 11.24C190.496 12.7867 190.056 14 189.176 14.88C188.31 15.76 187.13 16.2 185.636 16.2C184.663 16.2 183.783 15.98 182.996 15.54C182.21 15.0867 181.583 14.4 181.116 13.48C180.65 12.5467 180.416 11.3667 180.416 9.94ZM185.576 13.78C186.163 13.78 186.643 13.58 187.016 13.18C187.39 12.7667 187.576 12.1333 187.576 11.28C187.576 10.5867 187.416 10.04 187.096 9.64C186.776 9.24 186.29 9.04 185.636 9.04C185.196 9.04 184.81 9.14 184.476 9.34C184.143 9.52667 183.883 9.77333 183.696 10.08C183.51 10.3867 183.416 10.7 183.416 11.02C183.416 11.46 183.496 11.8933 183.656 12.32C183.816 12.7333 184.056 13.08 184.376 13.36C184.71 13.64 185.11 13.78 185.576 13.78ZM204.477 4.88C205.704 4.88 206.697 5.36 207.457 6.32C208.217 7.26667 208.597 8.66667 208.597 10.52C208.597 12.3733 208.204 13.7867 207.417 14.76C206.63 15.72 205.624 16.2 204.397 16.2C203.61 16.2 202.984 16.06 202.517 15.78C202.05 15.4867 201.67 15.16 201.377 14.8H201.217C201.324 15.36 201.377 15.8933 201.377 16.4V20.8H198.397V5.08H200.817L201.237 6.5H201.377C201.67 6.06 202.064 5.68 202.557 5.36C203.05 5.04 203.69 4.88 204.477 4.88ZM203.517 7.26C202.744 7.26 202.197 7.5 201.877 7.98C201.57 8.46 201.404 9.19333 201.377 10.18V10.5C201.377 11.5533 201.53 12.3667 201.837 12.94C202.157 13.5 202.73 13.78 203.557 13.78C204.237 13.78 204.737 13.5 205.057 12.94C205.39 12.3667 205.557 11.5467 205.557 10.48C205.557 8.33333 204.877 7.26 203.517 7.26ZM213.142 10.42L209.622 5.08H213.002L215.122 8.56L217.262 5.08H220.642L217.082 10.42L220.802 16H217.422L215.122 12.26L212.822 16H209.442L213.142 10.42ZM227.125 10.52C227.125 12.1333 226.885 13.6867 226.405 15.18C225.938 16.66 225.198 17.9867 224.185 19.16H221.765C222.672 17.9333 223.358 16.5733 223.825 15.08C224.292 13.5733 224.525 12.0467 224.525 10.5C224.525 8.91333 224.285 7.36667 223.805 5.86C223.338 4.35333 222.652 2.97333 221.745 1.72H224.185C225.198 2.93333 225.938 4.3 226.405 5.82C226.885 7.32667 227.125 8.89333 227.125 10.52Z" fill="#0F2851"/>
</svg>
