<svg width="119" height="21" viewBox="0 0 119 21" fill="none" xmlns="http://www.w3.org/2000/svg">
<path id="Time of day" d="M7.3 16H4.28V4.24H0.4V1.72H11.18V4.24H7.3V16ZM14.882 0.799999C15.322 0.799999 15.702 0.906666 16.022 1.12C16.342 1.32 16.502 1.7 16.502 2.26C16.502 2.80667 16.342 3.18667 16.022 3.4C15.702 3.61333 15.322 3.72 14.882 3.72C14.4287 3.72 14.042 3.61333 13.722 3.4C13.4154 3.18667 13.262 2.80667 13.262 2.26C13.262 1.7 13.4154 1.32 13.722 1.12C14.042 0.906666 14.4287 0.799999 14.882 0.799999ZM16.362 5.08V16H13.382V5.08H16.362ZM32.5358 4.88C33.7758 4.88 34.7091 5.2 35.3358 5.84C35.9758 6.46667 36.2958 7.48 36.2958 8.88V16H33.3158V9.62C33.3158 8.04667 32.7691 7.26 31.6758 7.26C30.8891 7.26 30.3291 7.54 29.9958 8.1C29.6624 8.66 29.4958 9.46667 29.4958 10.52V16H26.5158V9.62C26.5158 8.04667 25.9691 7.26 24.8758 7.26C24.0491 7.26 23.4758 7.57333 23.1558 8.2C22.8491 8.81333 22.6958 9.7 22.6958 10.86V16H19.7158V5.08H21.9958L22.3958 6.48H22.5558C22.8891 5.92 23.3424 5.51333 23.9158 5.26C24.5024 5.00667 25.1091 4.88 25.7358 4.88C26.5358 4.88 27.2158 5.01333 27.7758 5.28C28.3358 5.53333 28.7624 5.93333 29.0558 6.48H29.3158C29.6491 5.92 30.1091 5.51333 30.6958 5.26C31.2958 5.00667 31.9091 4.88 32.5358 4.88ZM44.1042 4.88C45.6109 4.88 46.8042 5.31333 47.6842 6.18C48.5642 7.03333 49.0042 8.25333 49.0042 9.84V11.28H41.9642C41.9909 12.12 42.2376 12.78 42.7042 13.26C43.1842 13.74 43.8442 13.98 44.6842 13.98C45.3909 13.98 46.0309 13.9133 46.6042 13.78C47.1776 13.6333 47.7709 13.4133 48.3842 13.12V15.42C47.8509 15.6867 47.2842 15.88 46.6842 16C46.0976 16.1333 45.3842 16.2 44.5442 16.2C43.4509 16.2 42.4842 16 41.6442 15.6C40.8042 15.1867 40.1442 14.5667 39.6642 13.74C39.1842 12.9133 38.9442 11.8733 38.9442 10.62C38.9442 9.34 39.1576 8.28 39.5842 7.44C40.0242 6.58667 40.6309 5.94667 41.4042 5.52C42.1776 5.09333 43.0776 4.88 44.1042 4.88ZM44.1242 7C43.5509 7 43.0709 7.18667 42.6842 7.56C42.3109 7.93333 42.0909 8.51333 42.0242 9.3H46.2042C46.1909 8.63333 46.0176 8.08667 45.6842 7.66C45.3509 7.22 44.8309 7 44.1242 7ZM67.0159 10.52C67.0159 12.3333 66.5359 13.7333 65.5759 14.72C64.6293 15.7067 63.3359 16.2 61.6959 16.2C60.6826 16.2 59.7759 15.98 58.9759 15.54C58.1893 15.1 57.5693 14.46 57.1159 13.62C56.6626 12.7667 56.4359 11.7333 56.4359 10.52C56.4359 8.70667 56.9093 7.31333 57.8559 6.34C58.8026 5.36667 60.1026 4.88 61.7559 4.88C62.7826 4.88 63.6893 5.1 64.4759 5.54C65.2626 5.98 65.8826 6.62 66.3359 7.46C66.7893 8.28667 67.0159 9.30667 67.0159 10.52ZM59.4759 10.52C59.4759 11.6 59.6493 12.42 59.9959 12.98C60.3559 13.5267 60.9359 13.8 61.7359 13.8C62.5226 13.8 63.0893 13.5267 63.4359 12.98C63.7959 12.42 63.9759 11.6 63.9759 10.52C63.9759 9.44 63.7959 8.63333 63.4359 8.1C63.0893 7.55333 62.5159 7.28 61.7159 7.28C60.9293 7.28 60.3559 7.55333 59.9959 8.1C59.6493 8.63333 59.4759 9.44 59.4759 10.52ZM75.7588 7.32H73.1788V16H70.1988V7.32H68.5588V5.88L70.1988 5.08V4.28C70.1988 3.34667 70.3521 2.62667 70.6588 2.12C70.9788 1.6 71.4254 1.23333 71.9988 1.02C72.5854 0.806666 73.2721 0.699999 74.0588 0.699999C74.6454 0.699999 75.1721 0.746666 75.6388 0.84C76.1188 0.933333 76.5054 1.04 76.7988 1.16L76.0388 3.34C75.8121 3.27333 75.5654 3.21333 75.2988 3.16C75.0321 3.09333 74.7254 3.06 74.3788 3.06C73.9654 3.06 73.6588 3.18667 73.4588 3.44C73.2721 3.69333 73.1788 4.01333 73.1788 4.4V5.08H75.7588V7.32ZM86.5884 16.2C85.3751 16.2 84.3818 15.7267 83.6084 14.78C82.8484 13.82 82.4684 12.4133 82.4684 10.56C82.4684 8.69333 82.8551 7.28 83.6284 6.32C84.4018 5.36 85.4151 4.88 86.6684 4.88C87.4551 4.88 88.1018 5.03333 88.6084 5.34C89.1151 5.64667 89.5151 6.02667 89.8084 6.48H89.9084C89.8684 6.26667 89.8218 5.96 89.7684 5.56C89.7151 5.14667 89.6884 4.72667 89.6884 4.3V0.799999H92.6684V16H90.3884L89.8084 14.58H89.6884C89.3951 15.0333 89.0018 15.42 88.5084 15.74C88.0151 16.0467 87.3751 16.2 86.5884 16.2ZM87.6284 13.82C88.4551 13.82 89.0351 13.58 89.3684 13.1C89.7018 12.6067 89.8751 11.8733 89.8884 10.9V10.58C89.8884 9.51333 89.7218 8.7 89.3884 8.14C89.0684 7.58 88.4684 7.3 87.5884 7.3C86.9351 7.3 86.4218 7.58667 86.0484 8.16C85.6751 8.72 85.4884 9.53333 85.4884 10.6C85.4884 11.6667 85.6751 12.4733 86.0484 13.02C86.4218 13.5533 86.9484 13.82 87.6284 13.82ZM100.505 4.86C101.971 4.86 103.091 5.18 103.865 5.82C104.651 6.44667 105.045 7.41333 105.045 8.72V16H102.965L102.385 14.52H102.305C101.838 15.1067 101.345 15.5333 100.825 15.8C100.305 16.0667 99.5914 16.2 98.6847 16.2C97.7114 16.2 96.9047 15.92 96.2647 15.36C95.6247 14.7867 95.3047 13.9133 95.3047 12.74C95.3047 11.58 95.7114 10.7267 96.5247 10.18C97.338 9.62 98.558 9.31333 100.185 9.26L102.085 9.2V8.72C102.085 8.14667 101.931 7.72667 101.625 7.46C101.331 7.19333 100.918 7.06 100.385 7.06C99.8514 7.06 99.3314 7.14 98.8247 7.3C98.318 7.44667 97.8114 7.63333 97.3047 7.86L96.3247 5.84C96.9114 5.53333 97.558 5.29333 98.2647 5.12C98.9847 4.94667 99.7314 4.86 100.505 4.86ZM100.925 10.98C99.9647 11.0067 99.298 11.18 98.9247 11.5C98.5514 11.82 98.3647 12.24 98.3647 12.76C98.3647 13.2133 98.498 13.54 98.7647 13.74C99.0314 13.9267 99.378 14.02 99.8047 14.02C100.445 14.02 100.985 13.8333 101.425 13.46C101.865 13.0733 102.085 12.5333 102.085 11.84V10.94L100.925 10.98ZM106.775 5.08H110.035L112.095 11.22C112.202 11.5133 112.282 11.82 112.335 12.14C112.388 12.4467 112.428 12.7733 112.455 13.12H112.515C112.555 12.7733 112.608 12.4467 112.675 12.14C112.755 11.82 112.842 11.5133 112.935 11.22L114.955 5.08H118.155L113.535 17.4C113.122 18.5333 112.515 19.38 111.715 19.94C110.928 20.5133 110.015 20.8 108.975 20.8C108.642 20.8 108.348 20.78 108.095 20.74C107.855 20.7133 107.642 20.68 107.455 20.64V18.28C107.602 18.3067 107.775 18.3333 107.975 18.36C108.188 18.3867 108.408 18.4 108.635 18.4C109.262 18.4 109.755 18.2067 110.115 17.82C110.488 17.4467 110.762 16.9933 110.935 16.46L111.115 15.92L106.775 5.08Z" fill="#0F2851"/>
</svg>
