<svg width="40" height="40" viewBox="0 0 40 40" fill="none" xmlns="http://www.w3.org/2000/svg">
<g id="icon / yoga">
<path id="Oval" fill-rule="evenodd" clip-rule="evenodd" d="M20.0017 11.6667C22.3028 11.6667 24.1683 9.8012 24.1683 7.50001C24.1683 5.19882 22.3028 3.33334 20.0017 3.33334C17.7005 3.33334 15.835 5.19882 15.835 7.50001C15.835 9.8012 17.7005 11.6667 20.0017 11.6667Z" stroke="#A1A3F6" stroke-width="1.5" stroke-linecap="round" stroke-linejoin="round"/>
<path id="Shape" fill-rule="evenodd" clip-rule="evenodd" d="M34.1667 31.6667H27.0567L22.8517 26.2617C22.6239 25.9692 22.5001 25.6091 22.5 25.2383V20H35.8333C37.214 20 38.3333 18.8807 38.3333 17.5C38.3333 16.1193 37.214 15 35.8333 15H4.16666C2.78594 15 1.66666 16.1193 1.66666 17.5C1.66666 18.8807 2.78594 20 4.16666 20H17.5V24.1667H14.1667C10.945 24.1667 8.33332 26.7783 8.33332 30V34.1667C8.33332 35.5474 9.45261 36.6667 10.8333 36.6667C12.214 36.6667 13.3333 35.5474 13.3333 34.1667V30C13.3333 29.5398 13.7064 29.1667 14.1667 29.1667H18.7783L23.8617 35.7017C24.335 36.3101 25.0625 36.6662 25.8333 36.6667H34.1667C35.5474 36.6667 36.6667 35.5474 36.6667 34.1667C36.6667 32.786 35.5474 31.6667 34.1667 31.6667Z" stroke="#A1A3F6" stroke-width="1.5" stroke-linecap="round" stroke-linejoin="round"/>
<path id="Shape_2" d="M17.5017 24.1667H22.5017" stroke="#A1A3F6" stroke-width="1.5" stroke-linecap="round" stroke-linejoin="round"/>
</g>
</svg>
